<svg xmlns="http://www.w3.org/2000/svg" xmlns:xlink="http://www.w3.org/1999/xlink" width="559" zoomAndPan="magnify" viewBox="0 0 419.25 297.749991" height="397" preserveAspectRatio="xMidYMid meet" version="1.0"><defs><g/><clipPath id="136eb6028b"><path d="M 0 0.140625 L 418.5 0.140625 L 418.5 297.359375 L 0 297.359375 Z M 0 0.140625 " clip-rule="nonzero"/></clipPath><clipPath id="ecf2402319"><path d="M 0 0.140625 L 418.222656 0.140625 L 418.222656 297.164062 L 0 297.164062 Z M 0 0.140625 " clip-rule="nonzero"/></clipPath><clipPath id="18457e7f54"><path d="M 265 100 L 268.828125 100 L 268.828125 198 L 265 198 Z M 265 100 " clip-rule="nonzero"/></clipPath><clipPath id="ebd91d168e"><path d="M 149.867188 100 L 154 100 L 154 198 L 149.867188 198 Z M 149.867188 100 " clip-rule="nonzero"/></clipPath><clipPath id="fba6aa0369"><path d="M 160 89.214844 L 258 89.214844 L 258 93 L 160 93 Z M 160 89.214844 " clip-rule="nonzero"/></clipPath><clipPath id="441ea7185e"><path d="M 160 204 L 258 204 L 258 208.171875 L 160 208.171875 Z M 160 204 " clip-rule="nonzero"/></clipPath><clipPath id="bca79276e1"><path d="M 257 89.214844 L 268.828125 89.214844 L 268.828125 101 L 257 101 Z M 257 89.214844 " clip-rule="nonzero"/></clipPath><clipPath id="4d095d161b"><path d="M 149.867188 89.214844 L 161 89.214844 L 161 101 L 149.867188 101 Z M 149.867188 89.214844 " clip-rule="nonzero"/></clipPath><clipPath id="66920811a0"><path d="M 257 197 L 268.828125 197 L 268.828125 208.171875 L 257 208.171875 Z M 257 197 " clip-rule="nonzero"/></clipPath><clipPath id="60a79adf49"><path d="M 149.867188 197 L 161 197 L 161 208.171875 L 149.867188 208.171875 Z M 149.867188 197 " clip-rule="nonzero"/></clipPath><clipPath id="ce22e94587"><path d="M 53.195312 66.945312 L 365.304688 66.945312 L 365.304688 230.246094 L 53.195312 230.246094 Z M 53.195312 66.945312 " clip-rule="nonzero"/></clipPath><clipPath id="ba2c2ca1a0"><path d="M 0.195312 0.945312 L 312.304688 0.945312 L 312.304688 164.246094 L 0.195312 164.246094 Z M 0.195312 0.945312 " clip-rule="nonzero"/></clipPath><clipPath id="03d56a06dd"><rect x="0" width="313" y="0" height="165"/></clipPath><clipPath id="99d50aae1c"><path d="M 53.195312 66.949219 L 365.179688 66.949219 L 365.179688 230.046875 L 53.195312 230.046875 Z M 53.195312 66.949219 " clip-rule="nonzero"/></clipPath><clipPath id="f47071def9"><rect x="0" width="419" y="0" height="298"/></clipPath></defs><g clip-path="url(#136eb6028b)"><path fill="#ffffff" d="M 0 0.140625 L 418.5 0.140625 L 418.5 297.359375 L 0 297.359375 Z M 0 0.140625 " fill-opacity="1" fill-rule="nonzero"/><g transform="matrix(1, 0, 0, 1, 0, 0.000000000000006772)"><g clip-path="url(#f47071def9)"><g clip-path="url(#ecf2402319)"><path fill="#ffffff" d="M 0 0.140625 L 418.222656 0.140625 L 418.222656 297.164062 L 0 297.164062 Z M 0 0.140625 " fill-opacity="1" fill-rule="nonzero"/></g><g clip-path="url(#18457e7f54)"><path fill="#ffffff" d="M 265.273438 100.113281 L 268.828125 100.113281 L 268.828125 197.273438 L 265.273438 197.273438 Z M 265.273438 100.113281 " fill-opacity="1" fill-rule="nonzero"/></g><g clip-path="url(#ebd91d168e)"><path fill="#ffffff" d="M 149.867188 100.113281 L 153.421875 100.113281 L 153.421875 197.273438 L 149.867188 197.273438 Z M 149.867188 100.113281 " fill-opacity="1" fill-rule="nonzero"/></g><g clip-path="url(#fba6aa0369)"><path fill="#ffffff" d="M 160.769531 89.214844 L 257.925781 89.214844 L 257.925781 92.769531 L 160.769531 92.769531 Z M 160.769531 89.214844 " fill-opacity="1" fill-rule="nonzero"/></g><g clip-path="url(#441ea7185e)"><path fill="#ffffff" d="M 160.769531 204.617188 L 257.925781 204.617188 L 257.925781 208.171875 L 160.769531 208.171875 Z M 160.769531 204.617188 " fill-opacity="1" fill-rule="nonzero"/></g><g clip-path="url(#bca79276e1)"><path fill="#ffffff" d="M 265.273438 92.769531 L 265.273438 100.113281 L 268.828125 100.113281 L 268.828125 89.214844 L 257.925781 89.214844 L 257.925781 92.769531 Z M 265.273438 92.769531 " fill-opacity="1" fill-rule="nonzero"/></g><g clip-path="url(#4d095d161b)"><path fill="#ffffff" d="M 153.421875 92.769531 L 160.769531 92.769531 L 160.769531 89.214844 L 149.867188 89.214844 L 149.867188 100.113281 L 153.421875 100.113281 Z M 153.421875 92.769531 " fill-opacity="1" fill-rule="nonzero"/></g><g clip-path="url(#66920811a0)"><path fill="#ffffff" d="M 265.273438 204.617188 L 257.925781 204.617188 L 257.925781 208.171875 L 268.828125 208.171875 L 268.828125 197.273438 L 265.273438 197.273438 Z M 265.273438 204.617188 " fill-opacity="1" fill-rule="nonzero"/></g><g clip-path="url(#60a79adf49)"><path fill="#ffffff" d="M 153.421875 204.617188 L 153.421875 197.273438 L 149.867188 197.273438 L 149.867188 208.171875 L 160.769531 208.171875 L 160.769531 204.617188 Z M 153.421875 204.617188 " fill-opacity="1" fill-rule="nonzero"/></g><g clip-path="url(#ce22e94587)"><g transform="matrix(1, 0, 0, 1, 53, 66)"><g clip-path="url(#03d56a06dd)"><g clip-path="url(#ba2c2ca1a0)"><path fill="#7ed957" d="M 0.195312 0.945312 L 312.125 0.945312 L 312.125 164.246094 L 0.195312 164.246094 Z M 0.195312 0.945312 " fill-opacity="1" fill-rule="nonzero"/></g></g></g></g><g clip-path="url(#99d50aae1c)"><path stroke-linecap="butt" transform="matrix(0.748165, 0, 0, 0.748165, 53.194943, 66.947474)" fill="none" stroke-linejoin="miter" d="M 0.000493501 0.00233261 L 417.156319 0.00233261 L 417.156319 218.260174 L 0.000493501 218.260174 Z M 0.000493501 0.00233261 " stroke="#000000" stroke-width="8" stroke-opacity="1" stroke-miterlimit="4"/></g><g fill="#ffffff" fill-opacity="1"><g transform="translate(137.082983, 164.955409)"><g><path d="M 20.25 -11.34375 C 20.25 -12.238281 20.132812 -13.109375 19.90625 -13.953125 C 19.6875 -14.796875 19.320312 -15.632812 18.8125 -16.46875 C 18.300781 -17.300781 17.535156 -17.960938 16.515625 -18.453125 C 15.492188 -18.953125 14.296875 -19.203125 12.921875 -19.203125 C 10.242188 -19.203125 8.15625 -18.097656 6.65625 -15.890625 L 2.734375 -16.421875 L 6.078125 -34.28125 L 23.125 -34.28125 L 23.125 -30.203125 L 9.390625 -30.203125 L 7.609375 -20.734375 C 9.648438 -22.203125 11.789062 -22.9375 14.03125 -22.9375 C 17.3125 -22.9375 19.914062 -21.875 21.84375 -19.75 C 23.78125 -17.625 24.75 -14.9375 24.75 -11.6875 C 24.75 -8.207031 23.671875 -5.289062 21.515625 -2.9375 C 19.359375 -0.59375 16.507812 0.578125 12.96875 0.578125 C 9.875 0.578125 7.34375 -0.265625 5.375 -1.953125 C 3.414062 -3.648438 2.28125 -6.015625 1.96875 -9.046875 L 6.375 -9.328125 C 7.039062 -5.023438 9.238281 -2.875 12.96875 -2.875 C 15.050781 -2.875 16.785156 -3.644531 18.171875 -5.1875 C 19.554688 -6.738281 20.25 -8.789062 20.25 -11.34375 Z M 20.25 -11.34375 "/></g></g></g><g fill="#ffffff" fill-opacity="1"><g transform="translate(163.705653, 164.955409)"><g/></g></g><g fill="#ffffff" fill-opacity="1"><g transform="translate(179.985704, 164.955409)"><g><path d="M 0.234375 0 L 13.5 -17.90625 L 1.765625 -34.28125 L 7.1875 -34.28125 L 16.140625 -21.5 C 16.140625 -21.5 19.34375 -25.757812 25.75 -34.28125 L 30.6875 -34.28125 L 18.625 -18.140625 L 31.640625 0 L 26.046875 0 L 15.9375 -14.265625 L 5.65625 0 Z M 0.234375 0 "/></g></g></g><g fill="#ffffff" fill-opacity="1"><g transform="translate(211.875452, 164.955409)"><g/></g></g><g fill="#ffffff" fill-opacity="1"><g transform="translate(228.155503, 164.955409)"><g><path d="M 17.8125 0 L 13.640625 0 L 13.640625 -26.71875 C 11.441406 -24.570312 8.632812 -22.863281 5.21875 -21.59375 L 5.21875 -25.703125 C 10.132812 -27.941406 13.4375 -30.800781 15.125 -34.28125 L 17.8125 -34.28125 Z M 17.8125 0 "/></g></g></g><g fill="#ffffff" fill-opacity="1"><g transform="translate(254.778173, 164.955409)"><g><path d="M 1.96875 -16.90625 C 1.96875 -28.582031 5.71875 -34.421875 13.21875 -34.421875 C 20.65625 -34.421875 24.375 -28.582031 24.375 -16.90625 C 24.375 -5.25 20.65625 0.578125 13.21875 0.578125 C 5.71875 0.578125 1.96875 -5.25 1.96875 -16.90625 Z M 6.3125 -16.90625 C 6.3125 -7.550781 8.613281 -2.875 13.21875 -2.875 C 17.75 -2.875 20.015625 -7.550781 20.015625 -16.90625 C 20.015625 -26.28125 17.71875 -30.96875 13.125 -30.96875 C 8.582031 -30.96875 6.3125 -26.28125 6.3125 -16.90625 Z M 6.3125 -16.90625 "/></g></g></g><path stroke-linecap="butt" transform="matrix(0.748165, 0, 0, 0.748165, 29.690973, 29.083874)" fill="none" stroke-linejoin="miter" d="M 1.499037 0.999989 L 478.499211 0.999989 " stroke="#000000" stroke-width="2" stroke-opacity="1" stroke-miterlimit="4"/><path stroke-linecap="round" transform="matrix(0.748165, 0, 0, 0.748165, 29.690973, 29.083874)" fill="none" stroke-linejoin="round" d="M 0.997811 -2.002146 L 0.997811 4.002125 " stroke="#000000" stroke-width="2" stroke-opacity="1" stroke-miterlimit="4"/><path stroke-linecap="round" transform="matrix(0.748165, 0, 0, 0.748165, 29.690973, 29.083874)" fill="none" stroke-linejoin="round" d="M 479.000437 -2.002146 L 479.000437 4.002125 " stroke="#000000" stroke-width="2" stroke-opacity="1" stroke-miterlimit="4"/><path stroke-linecap="butt" transform="matrix(-0.0029624, -0.74816, 0.74816, -0.0029624, 29.314429, 243.071574)" fill="none" stroke-linejoin="miter" d="M 1.501414 1.000606 L 251.051296 1.001924 " stroke="#000000" stroke-width="2" stroke-opacity="1" stroke-miterlimit="4"/><path stroke-linecap="round" transform="matrix(-0.0029624, -0.74816, 0.74816, -0.0029624, 29.314429, 243.071574)" fill="none" stroke-linejoin="round" d="M 1.001616 -1.998311 L 0.998747 4.000775 " stroke="#000000" stroke-width="2" stroke-opacity="1" stroke-miterlimit="4"/><path stroke-linecap="round" transform="matrix(-0.0029624, -0.74816, 0.74816, -0.0029624, 29.314429, 243.071574)" fill="none" stroke-linejoin="round" d="M 251.553963 -1.998244 L 251.551094 4.000841 " stroke="#000000" stroke-width="2" stroke-opacity="1" stroke-miterlimit="4"/><g fill="#000000" fill-opacity="1"><g transform="translate(165.910832, 23.746955)"><g><path d="M 4.671875 -1.40625 C 4.671875 -0.394531 3.984375 0.109375 2.609375 0.109375 C 1.242188 0.109375 0.5625 -0.394531 0.5625 -1.40625 L 0.5625 -2.046875 C 0.5625 -2.492188 0.75 -2.8125 1.125 -3 C 0.695312 -3.289062 0.484375 -3.710938 0.484375 -4.265625 C 0.484375 -4.679688 0.597656 -5.019531 0.828125 -5.28125 C 1.054688 -5.539062 1.367188 -5.671875 1.765625 -5.671875 C 2.046875 -5.671875 2.285156 -5.582031 2.484375 -5.40625 C 2.679688 -5.238281 2.78125 -5.019531 2.78125 -4.75 C 2.78125 -4.5 2.691406 -4.28125 2.515625 -4.09375 C 2.335938 -3.90625 2.101562 -3.8125 1.8125 -3.8125 C 1.664062 -3.8125 1.535156 -3.832031 1.421875 -3.875 C 1.492188 -3.519531 1.660156 -3.34375 1.921875 -3.34375 L 2.921875 -3.34375 L 2.921875 -2.671875 L 1.921875 -2.671875 C 1.773438 -2.671875 1.65625 -2.601562 1.5625 -2.46875 C 1.46875 -2.34375 1.421875 -2.191406 1.421875 -2.015625 L 1.421875 -1.375 C 1.421875 -0.875 1.816406 -0.625 2.609375 -0.625 C 3.410156 -0.625 3.8125 -0.875 3.8125 -1.375 L 3.8125 -5.5625 L 4.671875 -5.5625 Z M 2.265625 -4.734375 C 2.265625 -4.859375 2.222656 -4.960938 2.140625 -5.046875 C 2.054688 -5.128906 1.945312 -5.171875 1.8125 -5.171875 C 1.6875 -5.171875 1.582031 -5.128906 1.5 -5.046875 C 1.414062 -4.960938 1.375 -4.859375 1.375 -4.734375 C 1.375 -4.597656 1.414062 -4.488281 1.5 -4.40625 C 1.582031 -4.320312 1.6875 -4.28125 1.8125 -4.28125 C 1.945312 -4.28125 2.054688 -4.320312 2.140625 -4.40625 C 2.222656 -4.488281 2.265625 -4.597656 2.265625 -4.734375 Z M 2.265625 -4.734375 "/></g></g></g><g fill="#000000" fill-opacity="1"><g transform="translate(171.298602, 23.746955)"><g><path d="M 3.984375 0 L 3.109375 0 L 3.109375 -4.0625 C 3.109375 -4.320312 3.019531 -4.53125 2.84375 -4.6875 C 2.664062 -4.851562 2.425781 -4.9375 2.125 -4.9375 C 1.8125 -4.9375 1.554688 -4.832031 1.359375 -4.625 C 1.171875 -4.425781 1.070312 -4.164062 1.0625 -3.84375 L 0.21875 -3.84375 C 0.25 -4.40625 0.429688 -4.847656 0.765625 -5.171875 C 1.109375 -5.503906 1.5625 -5.671875 2.125 -5.671875 C 2.644531 -5.671875 3.082031 -5.539062 3.4375 -5.28125 C 3.800781 -5.019531 3.984375 -4.617188 3.984375 -4.078125 Z M 3.984375 0 "/></g></g></g><g fill="#000000" fill-opacity="1"><g transform="translate(175.988483, 23.746955)"><g><path d="M 4.578125 -1.015625 C 4.578125 -0.691406 4.46875 -0.425781 4.25 -0.21875 C 4.039062 -0.0078125 3.773438 0.09375 3.453125 0.09375 C 3.160156 0.09375 2.910156 -0.00390625 2.703125 -0.203125 C 2.503906 -0.410156 2.40625 -0.660156 2.40625 -0.953125 C 2.40625 -1.242188 2.503906 -1.492188 2.703125 -1.703125 C 2.910156 -1.910156 3.160156 -2.015625 3.453125 -2.015625 C 3.554688 -2.015625 3.644531 -2.007812 3.71875 -2 L 3.71875 -4.046875 C 3.71875 -4.640625 3.285156 -4.9375 2.421875 -4.9375 C 2.066406 -4.9375 1.765625 -4.828125 1.515625 -4.609375 C 1.273438 -4.390625 1.15625 -4.097656 1.15625 -3.734375 L 0.328125 -3.734375 C 0.347656 -4.347656 0.546875 -4.820312 0.921875 -5.15625 C 1.304688 -5.5 1.804688 -5.671875 2.421875 -5.671875 C 3.035156 -5.671875 3.53125 -5.550781 3.90625 -5.3125 C 4.351562 -5.03125 4.578125 -4.585938 4.578125 -3.984375 Z M 3.9375 -0.96875 C 3.9375 -1.09375 3.890625 -1.203125 3.796875 -1.296875 C 3.703125 -1.390625 3.585938 -1.4375 3.453125 -1.4375 C 3.328125 -1.4375 3.21875 -1.390625 3.125 -1.296875 C 3.03125 -1.203125 2.984375 -1.09375 2.984375 -0.96875 C 2.984375 -0.832031 3.03125 -0.71875 3.125 -0.625 C 3.21875 -0.53125 3.328125 -0.484375 3.453125 -0.484375 C 3.585938 -0.484375 3.703125 -0.53125 3.796875 -0.625 C 3.890625 -0.71875 3.9375 -0.832031 3.9375 -0.96875 Z M 3.9375 -0.96875 "/></g></g></g><g fill="#000000" fill-opacity="1"><g transform="translate(181.278554, 23.746955)"><g><path d="M 2.265625 0.765625 C 1.160156 -0.367188 0.609375 -1.71875 0.609375 -3.28125 C 0.609375 -4.738281 1.144531 -6.109375 2.21875 -7.390625 L 3.25 -7.390625 C 2.070312 -6.097656 1.484375 -4.726562 1.484375 -3.28125 C 1.484375 -1.90625 2.066406 -0.554688 3.234375 0.765625 Z M 2.265625 0.765625 "/></g></g></g><g fill="#000000" fill-opacity="1"><g transform="translate(184.684295, 23.746955)"><g><path d="M 4.828125 0 L 0.703125 0 L 0.703125 -6.640625 L 1.578125 -6.640625 L 1.578125 -0.75 L 4.828125 -0.75 Z M 4.828125 0 "/></g></g></g><g fill="#000000" fill-opacity="1"><g transform="translate(189.695209, 23.746955)"><g><path d="M 2.78125 -3.328125 C 2.78125 -1.796875 2.226562 -0.429688 1.125 0.765625 L 0.171875 0.765625 C 1.328125 -0.617188 1.90625 -1.984375 1.90625 -3.328125 C 1.90625 -4.671875 1.320312 -6.023438 0.15625 -7.390625 L 1.109375 -7.390625 C 2.222656 -6.210938 2.78125 -4.859375 2.78125 -3.328125 Z M 2.78125 -3.328125 "/></g></g></g><g fill="#000000" fill-opacity="1"><g transform="translate(193.10095, 23.746955)"><g/></g></g><g fill="#000000" fill-opacity="1"><g transform="translate(196.255446, 23.746955)"><g><path d="M 1.875 -0.546875 C 1.875 -0.359375 1.804688 -0.195312 1.671875 -0.0625 C 1.546875 0.0625 1.390625 0.125 1.203125 0.125 C 1.015625 0.125 0.851562 0.0625 0.71875 -0.0625 C 0.59375 -0.195312 0.53125 -0.359375 0.53125 -0.546875 C 0.53125 -0.734375 0.59375 -0.890625 0.71875 -1.015625 C 0.851562 -1.148438 1.015625 -1.21875 1.203125 -1.21875 C 1.390625 -1.21875 1.546875 -1.148438 1.671875 -1.015625 C 1.804688 -0.890625 1.875 -0.734375 1.875 -0.546875 Z M 1.875 -3.984375 C 1.875 -3.796875 1.804688 -3.632812 1.671875 -3.5 C 1.546875 -3.375 1.390625 -3.3125 1.203125 -3.3125 C 1.015625 -3.3125 0.851562 -3.375 0.71875 -3.5 C 0.59375 -3.632812 0.53125 -3.796875 0.53125 -3.984375 C 0.53125 -4.160156 0.59375 -4.3125 0.71875 -4.4375 C 0.851562 -4.570312 1.015625 -4.640625 1.203125 -4.640625 C 1.390625 -4.640625 1.546875 -4.570312 1.671875 -4.4375 C 1.804688 -4.3125 1.875 -4.160156 1.875 -3.984375 Z M 1.875 -3.984375 "/></g></g></g><g fill="#000000" fill-opacity="1"><g transform="translate(198.656217, 23.746955)"><g/></g></g><g fill="#000000" fill-opacity="1"><g transform="translate(201.810713, 23.746955)"><g><path d="M 4.765625 -2.09375 C 4.765625 -1.46875 4.570312 -0.941406 4.1875 -0.515625 C 3.8125 -0.0976562 3.332031 0.109375 2.75 0.109375 C 2.09375 0.109375 1.550781 -0.113281 1.125 -0.5625 C 0.707031 -1.019531 0.5 -1.628906 0.5 -2.390625 C 0.5 -3.453125 0.851562 -4.394531 1.5625 -5.21875 C 2.269531 -6.039062 3.191406 -6.5625 4.328125 -6.78125 L 4.40625 -6.078125 C 3.820312 -5.921875 3.265625 -5.632812 2.734375 -5.21875 C 2.203125 -4.8125 1.820312 -4.351562 1.59375 -3.84375 C 1.875 -4.125 2.269531 -4.265625 2.78125 -4.265625 C 3.332031 -4.265625 3.800781 -4.054688 4.1875 -3.640625 C 4.570312 -3.222656 4.765625 -2.707031 4.765625 -2.09375 Z M 3.953125 -2.09375 C 3.953125 -2.46875 3.828125 -2.796875 3.578125 -3.078125 C 3.335938 -3.367188 3.050781 -3.515625 2.71875 -3.515625 C 2.363281 -3.515625 2.0625 -3.375 1.8125 -3.09375 C 1.570312 -2.820312 1.453125 -2.488281 1.453125 -2.09375 C 1.453125 -1.695312 1.570312 -1.359375 1.8125 -1.078125 C 2.0625 -0.804688 2.363281 -0.671875 2.71875 -0.671875 C 3.050781 -0.671875 3.335938 -0.8125 3.578125 -1.09375 C 3.828125 -1.382812 3.953125 -1.71875 3.953125 -2.09375 Z M 3.953125 -2.09375 "/></g></g></g><g fill="#000000" fill-opacity="1"><g transform="translate(207.086822, 23.746955)"><g><path d="M 1.875 -0.546875 C 1.875 -0.359375 1.804688 -0.195312 1.671875 -0.0625 C 1.546875 0.0625 1.390625 0.125 1.203125 0.125 C 1.015625 0.125 0.851562 0.0625 0.71875 -0.0625 C 0.59375 -0.195312 0.53125 -0.359375 0.53125 -0.546875 C 0.53125 -0.734375 0.59375 -0.890625 0.71875 -1.015625 C 0.851562 -1.148438 1.015625 -1.21875 1.203125 -1.21875 C 1.390625 -1.21875 1.546875 -1.148438 1.671875 -1.015625 C 1.804688 -0.890625 1.875 -0.734375 1.875 -0.546875 Z M 1.875 -0.546875 "/></g></g></g><g fill="#000000" fill-opacity="1"><g transform="translate(209.487593, 23.746955)"><g><path d="M 4.828125 -2.34375 C 4.828125 -1.613281 4.570312 -1.019531 4.0625 -0.5625 C 3.550781 -0.113281 2.890625 0.109375 2.078125 0.109375 C 1.390625 0.109375 0.816406 -0.0859375 0.359375 -0.484375 L 0.734375 -1.125 C 1.253906 -0.800781 1.734375 -0.640625 2.171875 -0.640625 C 2.660156 -0.640625 3.078125 -0.800781 3.421875 -1.125 C 3.765625 -1.445312 3.9375 -1.847656 3.9375 -2.328125 C 3.9375 -2.734375 3.804688 -3.046875 3.546875 -3.265625 C 3.285156 -3.484375 2.9375 -3.59375 2.5 -3.59375 C 2.0625 -3.59375 1.773438 -3.4375 1.640625 -3.125 L 1.09375 -3.09375 L 1.328125 -6.640625 L 4.640625 -6.640625 L 4.5 -5.890625 L 2.171875 -5.890625 L 2.078125 -4.265625 C 2.242188 -4.335938 2.441406 -4.375 2.671875 -4.375 C 3.285156 -4.375 3.796875 -4.179688 4.203125 -3.796875 C 4.617188 -3.421875 4.828125 -2.9375 4.828125 -2.34375 Z M 4.828125 -2.34375 "/></g></g></g><g fill="#000000" fill-opacity="1"><g transform="translate(214.763702, 23.746955)"><g/></g></g><g fill="#000000" fill-opacity="1"><g transform="translate(217.918198, 23.746955)"><g><path d="M 2.84375 -0.953125 C 2.84375 -0.648438 2.738281 -0.394531 2.53125 -0.1875 C 2.320312 0.0078125 2.070312 0.109375 1.78125 0.109375 C 1.46875 0.109375 1.203125 0.00390625 0.984375 -0.203125 C 0.773438 -0.421875 0.671875 -0.691406 0.671875 -1.015625 L 0.671875 -5.5625 L 1.53125 -5.5625 L 1.53125 -1.984375 C 1.582031 -2.003906 1.664062 -2.015625 1.78125 -2.015625 C 2.070312 -2.015625 2.320312 -1.910156 2.53125 -1.703125 C 2.738281 -1.492188 2.84375 -1.242188 2.84375 -0.953125 Z M 2.265625 -0.953125 C 2.265625 -1.078125 2.21875 -1.1875 2.125 -1.28125 C 2.03125 -1.375 1.914062 -1.421875 1.78125 -1.421875 C 1.65625 -1.421875 1.546875 -1.375 1.453125 -1.28125 C 1.359375 -1.1875 1.3125 -1.078125 1.3125 -0.953125 C 1.3125 -0.816406 1.359375 -0.703125 1.453125 -0.609375 C 1.546875 -0.515625 1.65625 -0.46875 1.78125 -0.46875 C 1.914062 -0.46875 2.03125 -0.515625 2.125 -0.609375 C 2.21875 -0.703125 2.265625 -0.816406 2.265625 -0.953125 Z M 2.265625 -0.953125 "/></g></g></g><g fill="#000000" fill-opacity="1"><g transform="translate(220.82146, 23.746955)"><g><path d="M 5.109375 0 L 4.234375 0 C 3.703125 -0.476562 3.160156 -0.816406 2.609375 -1.015625 L 2.609375 -0.953125 C 2.609375 -0.648438 2.492188 -0.394531 2.265625 -0.1875 C 2.035156 0.0078125 1.78125 0.109375 1.5 0.109375 C 1.1875 0.109375 0.914062 0 0.6875 -0.21875 C 0.46875 -0.445312 0.359375 -0.710938 0.359375 -1.015625 C 0.359375 -1.328125 0.46875 -1.59375 0.6875 -1.8125 C 0.914062 -2.03125 1.1875 -2.140625 1.5 -2.140625 L 1.59375 -2.140625 L 1.59375 -3.59375 C 1.5 -3.570312 1.421875 -3.5625 1.359375 -3.5625 C 1.054688 -3.5625 0.800781 -3.664062 0.59375 -3.875 C 0.394531 -4.082031 0.296875 -4.332031 0.296875 -4.625 C 0.296875 -4.914062 0.394531 -5.160156 0.59375 -5.359375 C 0.800781 -5.566406 1.054688 -5.671875 1.359375 -5.671875 C 1.671875 -5.671875 1.929688 -5.5625 2.140625 -5.34375 C 2.347656 -5.132812 2.453125 -4.867188 2.453125 -4.546875 L 2.453125 -1.890625 C 3.191406 -1.640625 3.785156 -1.3125 4.234375 -0.90625 L 4.234375 -5.5625 L 5.109375 -5.5625 Z M 1.828125 -4.625 C 1.828125 -4.75 1.78125 -4.859375 1.6875 -4.953125 C 1.59375 -5.046875 1.484375 -5.09375 1.359375 -5.09375 C 1.222656 -5.09375 1.109375 -5.046875 1.015625 -4.953125 C 0.921875 -4.859375 0.875 -4.75 0.875 -4.625 C 0.875 -4.488281 0.921875 -4.375 1.015625 -4.28125 C 1.109375 -4.1875 1.222656 -4.140625 1.359375 -4.140625 C 1.484375 -4.140625 1.59375 -4.1875 1.6875 -4.28125 C 1.78125 -4.375 1.828125 -4.488281 1.828125 -4.625 Z M 1.96875 -1.015625 C 1.96875 -1.148438 1.921875 -1.265625 1.828125 -1.359375 C 1.734375 -1.453125 1.625 -1.5 1.5 -1.5 C 1.363281 -1.5 1.25 -1.453125 1.15625 -1.359375 C 1.0625 -1.265625 1.015625 -1.148438 1.015625 -1.015625 C 1.015625 -0.890625 1.0625 -0.78125 1.15625 -0.6875 C 1.25 -0.59375 1.363281 -0.546875 1.5 -0.546875 C 1.625 -0.546875 1.734375 -0.59375 1.828125 -0.6875 C 1.921875 -0.78125 1.96875 -0.890625 1.96875 -1.015625 Z M 1.96875 -1.015625 "/></g></g></g><g fill="#000000" fill-opacity="1"><g transform="translate(226.641935, 23.746955)"><g><path d="M 4.9375 0 L 4.078125 0 L 4.078125 -3.65625 C 4.078125 -4.25 3.914062 -4.675781 3.59375 -4.9375 L 2.71875 -4.3125 L 1.875 -4.9375 C 1.476562 -4.738281 1.28125 -4.296875 1.28125 -3.609375 C 1.28125 -3.390625 1.347656 -3.0625 1.484375 -2.625 C 1.617188 -2.1875 1.6875 -1.859375 1.6875 -1.640625 C 1.6875 -1.492188 1.660156 -1.34375 1.609375 -1.1875 C 1.660156 -1.3125 1.789062 -1.488281 2 -1.71875 C 2.21875 -1.957031 2.425781 -2.140625 2.625 -2.265625 C 2.375 -2.273438 2.175781 -2.367188 2.03125 -2.546875 C 1.882812 -2.722656 1.8125 -2.921875 1.8125 -3.140625 C 1.8125 -3.390625 1.894531 -3.601562 2.0625 -3.78125 C 2.238281 -3.957031 2.453125 -4.046875 2.703125 -4.046875 C 2.953125 -4.046875 3.164062 -3.957031 3.34375 -3.78125 C 3.519531 -3.601562 3.609375 -3.390625 3.609375 -3.140625 C 3.609375 -2.742188 3.398438 -2.320312 2.984375 -1.875 C 2.429688 -1.28125 2.109375 -0.894531 2.015625 -0.71875 C 1.867188 -0.445312 1.796875 -0.207031 1.796875 0 L 0.921875 0 C 0.941406 -0.351562 0.953125 -0.710938 0.953125 -1.078125 C 0.953125 -1.441406 0.894531 -1.785156 0.78125 -2.109375 C 0.550781 -2.773438 0.4375 -3.273438 0.4375 -3.609375 C 0.4375 -4.117188 0.5625 -4.5625 0.8125 -4.9375 C 1.070312 -5.3125 1.4375 -5.5625 1.90625 -5.6875 L 2.703125 -5.09375 L 3.453125 -5.6875 C 4.441406 -5.539062 4.9375 -4.875 4.9375 -3.6875 Z M 3.125 -3.15625 C 3.125 -3.269531 3.082031 -3.367188 3 -3.453125 C 2.925781 -3.535156 2.828125 -3.578125 2.703125 -3.578125 C 2.585938 -3.578125 2.488281 -3.535156 2.40625 -3.453125 C 2.320312 -3.367188 2.28125 -3.269531 2.28125 -3.15625 C 2.28125 -3.03125 2.320312 -2.925781 2.40625 -2.84375 C 2.488281 -2.769531 2.585938 -2.734375 2.703125 -2.734375 C 2.828125 -2.734375 2.925781 -2.769531 3 -2.84375 C 3.082031 -2.925781 3.125 -3.03125 3.125 -3.15625 Z M 3.125 -3.15625 "/></g></g></g><g fill="#000000" fill-opacity="1"><g transform="translate(232.294912, 23.746955)"><g><path d="M 3.78125 -0.9375 C 3.78125 -0.632812 3.675781 -0.382812 3.46875 -0.1875 C 3.257812 0.0078125 3.003906 0.109375 2.703125 0.109375 C 2.410156 0.109375 2.15625 0.0078125 1.9375 -0.1875 C 1.726562 -0.394531 1.625 -0.648438 1.625 -0.953125 C 1.625 -1.242188 1.726562 -1.492188 1.9375 -1.703125 C 2.15625 -1.910156 2.410156 -2.015625 2.703125 -2.015625 C 2.816406 -2.015625 2.890625 -2.007812 2.921875 -2 L 2.921875 -3.1875 C 2.921875 -3.34375 2.609375 -3.488281 1.984375 -3.625 C 1.367188 -3.769531 0.8125 -3.890625 0.3125 -3.984375 C 0.320312 -4.492188 0.453125 -4.898438 0.703125 -5.203125 C 0.960938 -5.515625 1.328125 -5.671875 1.796875 -5.671875 C 1.992188 -5.671875 2.257812 -5.625 2.59375 -5.53125 C 2.9375 -5.445312 3.179688 -5.40625 3.328125 -5.40625 C 3.492188 -5.40625 3.582031 -5.507812 3.59375 -5.71875 L 4.28125 -5.546875 C 4.113281 -4.972656 3.804688 -4.6875 3.359375 -4.6875 C 3.191406 -4.6875 2.953125 -4.726562 2.640625 -4.8125 C 2.328125 -4.894531 2.09375 -4.9375 1.9375 -4.9375 C 1.53125 -4.9375 1.296875 -4.78125 1.234375 -4.46875 C 1.953125 -4.3125 2.554688 -4.148438 3.046875 -3.984375 C 3.535156 -3.816406 3.78125 -3.53125 3.78125 -3.125 Z M 3.1875 -0.953125 C 3.1875 -1.078125 3.140625 -1.1875 3.046875 -1.28125 C 2.953125 -1.375 2.835938 -1.421875 2.703125 -1.421875 C 2.578125 -1.421875 2.46875 -1.375 2.375 -1.28125 C 2.28125 -1.1875 2.234375 -1.078125 2.234375 -0.953125 C 2.234375 -0.816406 2.28125 -0.703125 2.375 -0.609375 C 2.46875 -0.515625 2.578125 -0.46875 2.703125 -0.46875 C 2.835938 -0.46875 2.953125 -0.515625 3.046875 -0.609375 C 3.140625 -0.703125 3.1875 -0.816406 3.1875 -0.953125 Z M 3.1875 -0.953125 "/></g></g></g><g fill="#000000" fill-opacity="1"><g transform="translate(236.887083, 23.746955)"><g><path d="M 2.265625 0.765625 C 1.160156 -0.367188 0.609375 -1.71875 0.609375 -3.28125 C 0.609375 -4.738281 1.144531 -6.109375 2.21875 -7.390625 L 3.25 -7.390625 C 2.070312 -6.097656 1.484375 -4.726562 1.484375 -3.28125 C 1.484375 -1.90625 2.066406 -0.554688 3.234375 0.765625 Z M 2.265625 0.765625 "/></g></g></g><g fill="#000000" fill-opacity="1"><g transform="translate(240.292824, 23.746955)"><g><path d="M 8.171875 0 L 7.296875 0 L 7.296875 -2.625 C 7.296875 -3.050781 7.195312 -3.40625 7 -3.6875 C 6.78125 -3.988281 6.488281 -4.140625 6.125 -4.140625 C 5.820312 -4.140625 5.535156 -4.019531 5.265625 -3.78125 C 5.003906 -3.539062 4.875 -3.28125 4.875 -3 L 4.875 0 L 3.984375 0 L 3.984375 -2.859375 C 3.984375 -3.710938 3.628906 -4.140625 2.921875 -4.140625 C 2.597656 -4.140625 2.289062 -4 2 -3.71875 C 1.71875 -3.4375 1.578125 -3.140625 1.578125 -2.828125 L 1.578125 0 L 0.703125 0 L 0.703125 -3.484375 C 0.703125 -4.066406 0.664062 -4.492188 0.59375 -4.765625 L 1.40625 -4.765625 C 1.46875 -4.597656 1.5 -4.414062 1.5 -4.21875 C 1.632812 -4.40625 1.847656 -4.5625 2.140625 -4.6875 C 2.441406 -4.820312 2.738281 -4.890625 3.03125 -4.890625 C 3.644531 -4.890625 4.132812 -4.628906 4.5 -4.109375 C 5 -4.628906 5.597656 -4.890625 6.296875 -4.890625 C 6.835938 -4.890625 7.285156 -4.679688 7.640625 -4.265625 C 7.992188 -3.847656 8.171875 -3.304688 8.171875 -2.640625 Z M 8.171875 0 "/></g></g></g><g fill="#000000" fill-opacity="1"><g transform="translate(249.170084, 23.746955)"><g><path d="M 2.78125 -3.328125 C 2.78125 -1.796875 2.226562 -0.429688 1.125 0.765625 L 0.171875 0.765625 C 1.328125 -0.617188 1.90625 -1.984375 1.90625 -3.328125 C 1.90625 -4.671875 1.320312 -6.023438 0.15625 -7.390625 L 1.109375 -7.390625 C 2.222656 -6.210938 2.78125 -4.859375 2.78125 -3.328125 Z M 2.78125 -3.328125 "/></g></g></g><g fill="#000000" fill-opacity="1"><g transform="translate(19.057606, 192.117722)"><g><path d="M 0 -4.75 L 0 -3.875 L -3.703125 -3.875 C -4.078125 -3.875 -4.375 -3.757812 -4.59375 -3.53125 C -4.820312 -3.300781 -4.9375 -2.992188 -4.9375 -2.609375 C -4.9375 -2.046875 -4.703125 -1.625 -4.234375 -1.34375 C -4.148438 -1.78125 -3.9375 -2.09375 -3.59375 -2.28125 C -3.320312 -1.800781 -2.988281 -1.5625 -2.59375 -1.5625 L 0 -1.5625 L 0 -0.703125 L -2.65625 -0.703125 C -3.039062 -0.703125 -3.347656 -0.890625 -3.578125 -1.265625 C -3.734375 -1.035156 -3.785156 -0.753906 -3.734375 -0.421875 C -4.316406 -0.441406 -4.789062 -0.664062 -5.15625 -1.09375 C -5.5 -1.476562 -5.671875 -1.972656 -5.671875 -2.578125 C -5.671875 -3.253906 -5.492188 -3.785156 -5.140625 -4.171875 C -4.785156 -4.554688 -4.300781 -4.75 -3.6875 -4.75 Z M 0 -4.75 "/></g></g></g><g fill="#000000" fill-opacity="1"><g transform="translate(19.057606, 186.660154)"><g><path d="M -1.015625 -4.578125 C -0.691406 -4.578125 -0.425781 -4.46875 -0.21875 -4.25 C -0.0078125 -4.039062 0.09375 -3.773438 0.09375 -3.453125 C 0.09375 -3.160156 -0.00390625 -2.910156 -0.203125 -2.703125 C -0.410156 -2.503906 -0.660156 -2.40625 -0.953125 -2.40625 C -1.242188 -2.40625 -1.492188 -2.503906 -1.703125 -2.703125 C -1.910156 -2.910156 -2.015625 -3.160156 -2.015625 -3.453125 C -2.015625 -3.554688 -2.007812 -3.644531 -2 -3.71875 L -4.046875 -3.71875 C -4.640625 -3.71875 -4.9375 -3.285156 -4.9375 -2.421875 C -4.9375 -2.066406 -4.828125 -1.765625 -4.609375 -1.515625 C -4.390625 -1.273438 -4.097656 -1.15625 -3.734375 -1.15625 L -3.734375 -0.328125 C -4.347656 -0.347656 -4.820312 -0.546875 -5.15625 -0.921875 C -5.5 -1.304688 -5.671875 -1.804688 -5.671875 -2.421875 C -5.671875 -3.035156 -5.550781 -3.53125 -5.3125 -3.90625 C -5.03125 -4.351562 -4.585938 -4.578125 -3.984375 -4.578125 Z M -0.96875 -3.9375 C -1.09375 -3.9375 -1.203125 -3.890625 -1.296875 -3.796875 C -1.390625 -3.703125 -1.4375 -3.585938 -1.4375 -3.453125 C -1.4375 -3.328125 -1.390625 -3.21875 -1.296875 -3.125 C -1.203125 -3.03125 -1.09375 -2.984375 -0.96875 -2.984375 C -0.832031 -2.984375 -0.71875 -3.03125 -0.625 -3.125 C -0.53125 -3.21875 -0.484375 -3.328125 -0.484375 -3.453125 C -0.484375 -3.585938 -0.53125 -3.703125 -0.625 -3.796875 C -0.71875 -3.890625 -0.832031 -3.9375 -0.96875 -3.9375 Z M -0.96875 -3.9375 "/></g></g></g><g fill="#000000" fill-opacity="1"><g transform="translate(19.057606, 181.370083)"><g><path d="M -8.890625 -0.140625 C -8.398438 -0.046875 -7.984375 0.0820312 -7.640625 0.25 C -7.304688 0.414062 -7.039062 0.628906 -6.84375 0.890625 C -6.644531 1.148438 -6.503906 1.453125 -6.421875 1.796875 C -6.335938 2.148438 -6.296875 2.554688 -6.296875 3.015625 L -6.296875 3.46875 L -6.84375 3.46875 C -6.851562 3.28125 -6.921875 3.125 -7.046875 3 C -7.171875 2.875 -7.289062 2.789062 -7.40625 2.75 C -7.445312 2.976562 -7.550781 3.160156 -7.71875 3.296875 C -7.882812 3.429688 -8.085938 3.5 -8.328125 3.5 C -8.578125 3.5 -8.785156 3.40625 -8.953125 3.21875 C -9.117188 3.039062 -9.203125 2.832031 -9.203125 2.59375 C -9.203125 2.3125 -9.113281 2.09375 -8.9375 1.9375 C -8.757812 1.78125 -8.539062 1.703125 -8.28125 1.703125 C -8.007812 1.703125 -7.742188 1.765625 -7.484375 1.890625 C -7.234375 2.023438 -7.039062 2.160156 -6.90625 2.296875 C -6.988281 1.835938 -7.210938 1.457031 -7.578125 1.15625 C -7.953125 0.863281 -8.390625 0.710938 -8.890625 0.703125 Z M -8.296875 2.25 C -8.398438 2.25 -8.488281 2.28125 -8.5625 2.34375 C -8.632812 2.414062 -8.671875 2.503906 -8.671875 2.609375 C -8.671875 2.710938 -8.632812 2.796875 -8.5625 2.859375 C -8.488281 2.921875 -8.398438 2.953125 -8.296875 2.953125 C -8.203125 2.953125 -8.117188 2.921875 -8.046875 2.859375 C -7.972656 2.796875 -7.9375 2.710938 -7.9375 2.609375 C -7.9375 2.503906 -7.972656 2.414062 -8.046875 2.34375 C -8.117188 2.28125 -8.203125 2.25 -8.296875 2.25 Z M -8.296875 2.25 "/></g></g></g><g fill="#000000" fill-opacity="1"><g transform="translate(19.057606, 181.370083)"><g><path d="M 0 -3.984375 L 0 -3.109375 L -4.0625 -3.109375 C -4.320312 -3.109375 -4.53125 -3.019531 -4.6875 -2.84375 C -4.851562 -2.664062 -4.9375 -2.425781 -4.9375 -2.125 C -4.9375 -1.8125 -4.832031 -1.554688 -4.625 -1.359375 C -4.425781 -1.171875 -4.164062 -1.070312 -3.84375 -1.0625 L -3.84375 -0.21875 C -4.40625 -0.25 -4.847656 -0.429688 -5.171875 -0.765625 C -5.503906 -1.109375 -5.671875 -1.5625 -5.671875 -2.125 C -5.671875 -2.644531 -5.539062 -3.082031 -5.28125 -3.4375 C -5.019531 -3.800781 -4.617188 -3.984375 -4.078125 -3.984375 Z M 0 -3.984375 "/></g></g></g><g fill="#000000" fill-opacity="1"><g transform="translate(19.057606, 176.680201)"><g><path d="M 0 -3.71875 L 0 -2.875 L -2.9375 -0.265625 L -3.546875 -0.78125 L -1.203125 -2.859375 L -3.59375 -2.859375 C -3.59375 -2.828125 -3.59375 -2.738281 -3.59375 -2.59375 C -3.59375 -2.300781 -3.6875 -2.054688 -3.875 -1.859375 C -4.0625 -1.660156 -4.304688 -1.5625 -4.609375 -1.5625 C -4.898438 -1.5625 -5.148438 -1.660156 -5.359375 -1.859375 C -5.566406 -2.066406 -5.671875 -2.3125 -5.671875 -2.59375 C -5.671875 -2.914062 -5.566406 -3.179688 -5.359375 -3.390625 C -5.148438 -3.609375 -4.878906 -3.71875 -4.546875 -3.71875 Z M -4.625 -3.0625 C -4.757812 -3.0625 -4.875 -3.015625 -4.96875 -2.921875 C -5.0625 -2.835938 -5.109375 -2.726562 -5.109375 -2.59375 C -5.109375 -2.46875 -5.0625 -2.359375 -4.96875 -2.265625 C -4.875 -2.171875 -4.757812 -2.125 -4.625 -2.125 C -4.5 -2.125 -4.390625 -2.171875 -4.296875 -2.265625 C -4.203125 -2.359375 -4.15625 -2.46875 -4.15625 -2.59375 C -4.15625 -2.726562 -4.203125 -2.835938 -4.296875 -2.921875 C -4.390625 -3.015625 -4.5 -3.0625 -4.625 -3.0625 Z M -4.625 -3.0625 "/></g></g></g><g fill="#000000" fill-opacity="1"><g transform="translate(19.057606, 172.241566)"><g><path d="M 0.765625 -2.265625 C -0.367188 -1.160156 -1.71875 -0.609375 -3.28125 -0.609375 C -4.738281 -0.609375 -6.109375 -1.144531 -7.390625 -2.21875 L -7.390625 -3.25 C -6.097656 -2.070312 -4.726562 -1.484375 -3.28125 -1.484375 C -1.90625 -1.484375 -0.554688 -2.066406 0.765625 -3.234375 Z M 0.765625 -2.265625 "/></g></g></g><g fill="#000000" fill-opacity="1"><g transform="translate(19.057606, 168.835824)"><g><path d="M 0 -6.75 L 0 -5.9375 L -5.421875 -4.265625 L 0 -2.59375 L 0 -1.78125 L -6.640625 0.0625 L -6.640625 -0.90625 L -1.34375 -2.203125 L -6.640625 -3.84375 L -6.640625 -4.6875 L -1.34375 -6.328125 L -6.640625 -7.625 L -6.640625 -8.59375 Z M 0 -6.75 "/></g></g></g><g fill="#000000" fill-opacity="1"><g transform="translate(19.057606, 160.293547)"><g><path d="M -3.328125 -2.78125 C -1.796875 -2.78125 -0.429688 -2.226562 0.765625 -1.125 L 0.765625 -0.171875 C -0.617188 -1.328125 -1.984375 -1.90625 -3.328125 -1.90625 C -4.671875 -1.90625 -6.023438 -1.320312 -7.390625 -0.15625 L -7.390625 -1.109375 C -6.210938 -2.222656 -4.859375 -2.78125 -3.328125 -2.78125 Z M -3.328125 -2.78125 "/></g></g></g><g fill="#000000" fill-opacity="1"><g transform="translate(19.057606, 156.887806)"><g/></g></g><g fill="#000000" fill-opacity="1"><g transform="translate(19.057606, 153.73331)"><g><path d="M -0.546875 -1.875 C -0.359375 -1.875 -0.195312 -1.804688 -0.0625 -1.671875 C 0.0625 -1.546875 0.125 -1.390625 0.125 -1.203125 C 0.125 -1.015625 0.0625 -0.851562 -0.0625 -0.71875 C -0.195312 -0.59375 -0.359375 -0.53125 -0.546875 -0.53125 C -0.734375 -0.53125 -0.890625 -0.59375 -1.015625 -0.71875 C -1.148438 -0.851562 -1.21875 -1.015625 -1.21875 -1.203125 C -1.21875 -1.390625 -1.148438 -1.546875 -1.015625 -1.671875 C -0.890625 -1.804688 -0.734375 -1.875 -0.546875 -1.875 Z M -3.984375 -1.875 C -3.796875 -1.875 -3.632812 -1.804688 -3.5 -1.671875 C -3.375 -1.546875 -3.3125 -1.390625 -3.3125 -1.203125 C -3.3125 -1.015625 -3.375 -0.851562 -3.5 -0.71875 C -3.632812 -0.59375 -3.796875 -0.53125 -3.984375 -0.53125 C -4.160156 -0.53125 -4.3125 -0.59375 -4.4375 -0.71875 C -4.570312 -0.851562 -4.640625 -1.015625 -4.640625 -1.203125 C -4.640625 -1.390625 -4.570312 -1.546875 -4.4375 -1.671875 C -4.3125 -1.804688 -4.160156 -1.875 -3.984375 -1.875 Z M -3.984375 -1.875 "/></g></g></g><g fill="#000000" fill-opacity="1"><g transform="translate(19.057606, 151.332539)"><g/></g></g><g fill="#000000" fill-opacity="1"><g transform="translate(19.057606, 148.178043)"><g><path d="M -2.34375 -4.828125 C -1.613281 -4.828125 -1.019531 -4.570312 -0.5625 -4.0625 C -0.113281 -3.550781 0.109375 -2.890625 0.109375 -2.078125 C 0.109375 -1.390625 -0.0859375 -0.816406 -0.484375 -0.359375 L -1.125 -0.734375 C -0.800781 -1.253906 -0.640625 -1.734375 -0.640625 -2.171875 C -0.640625 -2.660156 -0.800781 -3.078125 -1.125 -3.421875 C -1.445312 -3.765625 -1.847656 -3.9375 -2.328125 -3.9375 C -2.734375 -3.9375 -3.046875 -3.804688 -3.265625 -3.546875 C -3.484375 -3.285156 -3.59375 -2.9375 -3.59375 -2.5 C -3.59375 -2.0625 -3.4375 -1.773438 -3.125 -1.640625 L -3.09375 -1.09375 L -6.640625 -1.328125 L -6.640625 -4.640625 L -5.890625 -4.5 L -5.890625 -2.171875 L -4.265625 -2.078125 C -4.335938 -2.242188 -4.375 -2.441406 -4.375 -2.671875 C -4.375 -3.285156 -4.179688 -3.796875 -3.796875 -4.203125 C -3.421875 -4.617188 -2.9375 -4.828125 -2.34375 -4.828125 Z M -2.34375 -4.828125 "/></g></g></g><g fill="#000000" fill-opacity="1"><g transform="translate(19.057606, 142.901933)"><g/></g></g><g fill="#000000" fill-opacity="1"><g transform="translate(19.057606, 139.747437)"><g><path d="M -0.953125 -2.84375 C -0.648438 -2.84375 -0.394531 -2.738281 -0.1875 -2.53125 C 0.0078125 -2.320312 0.109375 -2.070312 0.109375 -1.78125 C 0.109375 -1.46875 0.00390625 -1.203125 -0.203125 -0.984375 C -0.421875 -0.773438 -0.691406 -0.671875 -1.015625 -0.671875 L -5.5625 -0.671875 L -5.5625 -1.53125 L -1.984375 -1.53125 C -2.003906 -1.582031 -2.015625 -1.664062 -2.015625 -1.78125 C -2.015625 -2.070312 -1.910156 -2.320312 -1.703125 -2.53125 C -1.492188 -2.738281 -1.242188 -2.84375 -0.953125 -2.84375 Z M -0.953125 -2.265625 C -1.078125 -2.265625 -1.1875 -2.21875 -1.28125 -2.125 C -1.375 -2.03125 -1.421875 -1.914062 -1.421875 -1.78125 C -1.421875 -1.65625 -1.375 -1.546875 -1.28125 -1.453125 C -1.1875 -1.359375 -1.078125 -1.3125 -0.953125 -1.3125 C -0.816406 -1.3125 -0.703125 -1.359375 -0.609375 -1.453125 C -0.515625 -1.546875 -0.46875 -1.65625 -0.46875 -1.78125 C -0.46875 -1.914062 -0.515625 -2.03125 -0.609375 -2.125 C -0.703125 -2.21875 -0.816406 -2.265625 -0.953125 -2.265625 Z M -0.953125 -2.265625 "/></g></g></g><g fill="#000000" fill-opacity="1"><g transform="translate(19.057606, 136.844176)"><g><path d="M 0 -5.109375 L 0 -4.234375 C -0.476562 -3.703125 -0.816406 -3.160156 -1.015625 -2.609375 L -0.953125 -2.609375 C -0.648438 -2.609375 -0.394531 -2.492188 -0.1875 -2.265625 C 0.0078125 -2.035156 0.109375 -1.78125 0.109375 -1.5 C 0.109375 -1.1875 0 -0.914062 -0.21875 -0.6875 C -0.445312 -0.46875 -0.710938 -0.359375 -1.015625 -0.359375 C -1.328125 -0.359375 -1.59375 -0.46875 -1.8125 -0.6875 C -2.03125 -0.914062 -2.140625 -1.1875 -2.140625 -1.5 L -2.140625 -1.59375 L -3.59375 -1.59375 C -3.570312 -1.5 -3.5625 -1.421875 -3.5625 -1.359375 C -3.5625 -1.054688 -3.664062 -0.800781 -3.875 -0.59375 C -4.082031 -0.394531 -4.332031 -0.296875 -4.625 -0.296875 C -4.914062 -0.296875 -5.160156 -0.394531 -5.359375 -0.59375 C -5.566406 -0.800781 -5.671875 -1.054688 -5.671875 -1.359375 C -5.671875 -1.671875 -5.5625 -1.929688 -5.34375 -2.140625 C -5.132812 -2.347656 -4.867188 -2.453125 -4.546875 -2.453125 L -1.890625 -2.453125 C -1.640625 -3.191406 -1.3125 -3.785156 -0.90625 -4.234375 L -5.5625 -4.234375 L -5.5625 -5.109375 Z M -4.625 -1.828125 C -4.75 -1.828125 -4.859375 -1.78125 -4.953125 -1.6875 C -5.046875 -1.59375 -5.09375 -1.484375 -5.09375 -1.359375 C -5.09375 -1.222656 -5.046875 -1.109375 -4.953125 -1.015625 C -4.859375 -0.921875 -4.75 -0.875 -4.625 -0.875 C -4.488281 -0.875 -4.375 -0.921875 -4.28125 -1.015625 C -4.1875 -1.109375 -4.140625 -1.222656 -4.140625 -1.359375 C -4.140625 -1.484375 -4.1875 -1.59375 -4.28125 -1.6875 C -4.375 -1.78125 -4.488281 -1.828125 -4.625 -1.828125 Z M -1.015625 -1.96875 C -1.148438 -1.96875 -1.265625 -1.921875 -1.359375 -1.828125 C -1.453125 -1.734375 -1.5 -1.625 -1.5 -1.5 C -1.5 -1.363281 -1.453125 -1.25 -1.359375 -1.15625 C -1.265625 -1.0625 -1.148438 -1.015625 -1.015625 -1.015625 C -0.890625 -1.015625 -0.78125 -1.0625 -0.6875 -1.15625 C -0.59375 -1.25 -0.546875 -1.363281 -0.546875 -1.5 C -0.546875 -1.625 -0.59375 -1.734375 -0.6875 -1.828125 C -0.78125 -1.921875 -0.890625 -1.96875 -1.015625 -1.96875 Z M -1.015625 -1.96875 "/></g></g></g><g fill="#000000" fill-opacity="1"><g transform="translate(19.057606, 131.023701)"><g><path d="M 0 -4.9375 L 0 -4.078125 L -3.65625 -4.078125 C -4.25 -4.078125 -4.675781 -3.914062 -4.9375 -3.59375 L -4.3125 -2.71875 L -4.9375 -1.875 C -4.738281 -1.476562 -4.296875 -1.28125 -3.609375 -1.28125 C -3.390625 -1.28125 -3.0625 -1.347656 -2.625 -1.484375 C -2.1875 -1.617188 -1.859375 -1.6875 -1.640625 -1.6875 C -1.492188 -1.6875 -1.34375 -1.660156 -1.1875 -1.609375 C -1.3125 -1.660156 -1.488281 -1.789062 -1.71875 -2 C -1.957031 -2.21875 -2.140625 -2.425781 -2.265625 -2.625 C -2.273438 -2.375 -2.367188 -2.175781 -2.546875 -2.03125 C -2.722656 -1.882812 -2.921875 -1.8125 -3.140625 -1.8125 C -3.390625 -1.8125 -3.601562 -1.894531 -3.78125 -2.0625 C -3.957031 -2.238281 -4.046875 -2.453125 -4.046875 -2.703125 C -4.046875 -2.953125 -3.957031 -3.164062 -3.78125 -3.34375 C -3.601562 -3.519531 -3.390625 -3.609375 -3.140625 -3.609375 C -2.742188 -3.609375 -2.320312 -3.398438 -1.875 -2.984375 C -1.28125 -2.429688 -0.894531 -2.109375 -0.71875 -2.015625 C -0.445312 -1.867188 -0.207031 -1.796875 0 -1.796875 L 0 -0.921875 C -0.351562 -0.941406 -0.710938 -0.953125 -1.078125 -0.953125 C -1.441406 -0.953125 -1.785156 -0.894531 -2.109375 -0.78125 C -2.773438 -0.550781 -3.273438 -0.4375 -3.609375 -0.4375 C -4.117188 -0.4375 -4.5625 -0.5625 -4.9375 -0.8125 C -5.3125 -1.070312 -5.5625 -1.4375 -5.6875 -1.90625 L -5.09375 -2.703125 L -5.6875 -3.453125 C -5.539062 -4.441406 -4.875 -4.9375 -3.6875 -4.9375 Z M -3.15625 -3.125 C -3.269531 -3.125 -3.367188 -3.082031 -3.453125 -3 C -3.535156 -2.925781 -3.578125 -2.828125 -3.578125 -2.703125 C -3.578125 -2.585938 -3.535156 -2.488281 -3.453125 -2.40625 C -3.367188 -2.320312 -3.269531 -2.28125 -3.15625 -2.28125 C -3.03125 -2.28125 -2.925781 -2.320312 -2.84375 -2.40625 C -2.769531 -2.488281 -2.734375 -2.585938 -2.734375 -2.703125 C -2.734375 -2.828125 -2.769531 -2.925781 -2.84375 -3 C -2.925781 -3.082031 -3.03125 -3.125 -3.15625 -3.125 Z M -3.15625 -3.125 "/></g></g></g><g fill="#000000" fill-opacity="1"><g transform="translate(19.057606, 125.370724)"><g><path d="M -0.9375 -3.78125 C -0.632812 -3.78125 -0.382812 -3.675781 -0.1875 -3.46875 C 0.0078125 -3.257812 0.109375 -3.003906 0.109375 -2.703125 C 0.109375 -2.410156 0.0078125 -2.15625 -0.1875 -1.9375 C -0.394531 -1.726562 -0.648438 -1.625 -0.953125 -1.625 C -1.242188 -1.625 -1.492188 -1.726562 -1.703125 -1.9375 C -1.910156 -2.15625 -2.015625 -2.410156 -2.015625 -2.703125 C -2.015625 -2.816406 -2.007812 -2.890625 -2 -2.921875 L -3.1875 -2.921875 C -3.34375 -2.921875 -3.488281 -2.609375 -3.625 -1.984375 C -3.769531 -1.367188 -3.890625 -0.8125 -3.984375 -0.3125 C -4.492188 -0.320312 -4.898438 -0.453125 -5.203125 -0.703125 C -5.515625 -0.960938 -5.671875 -1.328125 -5.671875 -1.796875 C -5.671875 -1.992188 -5.625 -2.257812 -5.53125 -2.59375 C -5.445312 -2.9375 -5.40625 -3.179688 -5.40625 -3.328125 C -5.40625 -3.492188 -5.507812 -3.582031 -5.71875 -3.59375 L -5.546875 -4.28125 C -4.972656 -4.113281 -4.6875 -3.804688 -4.6875 -3.359375 C -4.6875 -3.191406 -4.726562 -2.953125 -4.8125 -2.640625 C -4.894531 -2.328125 -4.9375 -2.09375 -4.9375 -1.9375 C -4.9375 -1.53125 -4.78125 -1.296875 -4.46875 -1.234375 C -4.3125 -1.953125 -4.148438 -2.554688 -3.984375 -3.046875 C -3.816406 -3.535156 -3.53125 -3.78125 -3.125 -3.78125 Z M -0.953125 -3.1875 C -1.078125 -3.1875 -1.1875 -3.140625 -1.28125 -3.046875 C -1.375 -2.953125 -1.421875 -2.835938 -1.421875 -2.703125 C -1.421875 -2.578125 -1.375 -2.46875 -1.28125 -2.375 C -1.1875 -2.28125 -1.078125 -2.234375 -0.953125 -2.234375 C -0.816406 -2.234375 -0.703125 -2.28125 -0.609375 -2.375 C -0.515625 -2.46875 -0.46875 -2.578125 -0.46875 -2.703125 C -0.46875 -2.835938 -0.515625 -2.953125 -0.609375 -3.046875 C -0.703125 -3.140625 -0.816406 -3.1875 -0.953125 -3.1875 Z M -0.953125 -3.1875 "/></g></g></g><g fill="#000000" fill-opacity="1"><g transform="translate(19.057606, 120.778553)"><g><path d="M 0.765625 -2.265625 C -0.367188 -1.160156 -1.71875 -0.609375 -3.28125 -0.609375 C -4.738281 -0.609375 -6.109375 -1.144531 -7.390625 -2.21875 L -7.390625 -3.25 C -6.097656 -2.070312 -4.726562 -1.484375 -3.28125 -1.484375 C -1.90625 -1.484375 -0.554688 -2.066406 0.765625 -3.234375 Z M 0.765625 -2.265625 "/></g></g></g><g fill="#000000" fill-opacity="1"><g transform="translate(19.057606, 117.372812)"><g><path d="M 0 -8.171875 L 0 -7.296875 L -2.625 -7.296875 C -3.050781 -7.296875 -3.40625 -7.195312 -3.6875 -7 C -3.988281 -6.78125 -4.140625 -6.488281 -4.140625 -6.125 C -4.140625 -5.820312 -4.019531 -5.535156 -3.78125 -5.265625 C -3.539062 -5.003906 -3.28125 -4.875 -3 -4.875 L 0 -4.875 L 0 -3.984375 L -2.859375 -3.984375 C -3.710938 -3.984375 -4.140625 -3.628906 -4.140625 -2.921875 C -4.140625 -2.597656 -4 -2.289062 -3.71875 -2 C -3.4375 -1.71875 -3.140625 -1.578125 -2.828125 -1.578125 L 0 -1.578125 L 0 -0.703125 L -3.484375 -0.703125 C -4.066406 -0.703125 -4.492188 -0.664062 -4.765625 -0.59375 L -4.765625 -1.40625 C -4.597656 -1.46875 -4.414062 -1.5 -4.21875 -1.5 C -4.40625 -1.632812 -4.5625 -1.847656 -4.6875 -2.140625 C -4.820312 -2.441406 -4.890625 -2.738281 -4.890625 -3.03125 C -4.890625 -3.644531 -4.628906 -4.132812 -4.109375 -4.5 C -4.628906 -5 -4.890625 -5.597656 -4.890625 -6.296875 C -4.890625 -6.835938 -4.679688 -7.285156 -4.265625 -7.640625 C -3.847656 -7.992188 -3.304688 -8.171875 -2.640625 -8.171875 Z M 0 -8.171875 "/></g></g></g><g fill="#000000" fill-opacity="1"><g transform="translate(19.057606, 108.495552)"><g><path d="M -3.328125 -2.78125 C -1.796875 -2.78125 -0.429688 -2.226562 0.765625 -1.125 L 0.765625 -0.171875 C -0.617188 -1.328125 -1.984375 -1.90625 -3.328125 -1.90625 C -4.671875 -1.90625 -6.023438 -1.320312 -7.390625 -0.15625 L -7.390625 -1.109375 C -6.210938 -2.222656 -4.859375 -2.78125 -3.328125 -2.78125 Z M -3.328125 -2.78125 "/></g></g></g><path stroke-linecap="butt" transform="matrix(0.748165, 0, 0, 0.748165, 53.194943, 59.148926)" fill="none" stroke-linejoin="miter" d="M 1.498951 1.0018 L 415.668345 1.0018 " stroke="#000000" stroke-width="2" stroke-opacity="1" stroke-miterlimit="4"/><path stroke-linecap="round" transform="matrix(0.748165, 0, 0, 0.748165, 53.194943, 59.148926)" fill="none" stroke-linejoin="round" d="M 0.997725 -2.000336 L 0.997725 3.998714 " stroke="#000000" stroke-width="2" stroke-opacity="1" stroke-miterlimit="4"/><path stroke-linecap="round" transform="matrix(0.748165, 0, 0, 0.748165, 53.194943, 59.148926)" fill="none" stroke-linejoin="round" d="M 416.169571 -2.000336 L 416.169571 3.998714 " stroke="#000000" stroke-width="2" stroke-opacity="1" stroke-miterlimit="4"/><g fill="#000000" fill-opacity="1"><g transform="translate(163.268879, 56.365295)"><g><path d="M 4.671875 -1.40625 C 4.671875 -0.394531 3.984375 0.109375 2.609375 0.109375 C 1.242188 0.109375 0.5625 -0.394531 0.5625 -1.40625 L 0.5625 -2.046875 C 0.5625 -2.492188 0.75 -2.8125 1.125 -3 C 0.695312 -3.289062 0.484375 -3.710938 0.484375 -4.265625 C 0.484375 -4.679688 0.597656 -5.019531 0.828125 -5.28125 C 1.054688 -5.539062 1.367188 -5.671875 1.765625 -5.671875 C 2.046875 -5.671875 2.285156 -5.582031 2.484375 -5.40625 C 2.679688 -5.238281 2.78125 -5.019531 2.78125 -4.75 C 2.78125 -4.5 2.691406 -4.28125 2.515625 -4.09375 C 2.335938 -3.90625 2.101562 -3.8125 1.8125 -3.8125 C 1.664062 -3.8125 1.535156 -3.832031 1.421875 -3.875 C 1.492188 -3.519531 1.660156 -3.34375 1.921875 -3.34375 L 2.921875 -3.34375 L 2.921875 -2.671875 L 1.921875 -2.671875 C 1.773438 -2.671875 1.65625 -2.601562 1.5625 -2.46875 C 1.46875 -2.34375 1.421875 -2.191406 1.421875 -2.015625 L 1.421875 -1.375 C 1.421875 -0.875 1.816406 -0.625 2.609375 -0.625 C 3.410156 -0.625 3.8125 -0.875 3.8125 -1.375 L 3.8125 -5.5625 L 4.671875 -5.5625 Z M 2.265625 -4.734375 C 2.265625 -4.859375 2.222656 -4.960938 2.140625 -5.046875 C 2.054688 -5.128906 1.945312 -5.171875 1.8125 -5.171875 C 1.6875 -5.171875 1.582031 -5.128906 1.5 -5.046875 C 1.414062 -4.960938 1.375 -4.859375 1.375 -4.734375 C 1.375 -4.597656 1.414062 -4.488281 1.5 -4.40625 C 1.582031 -4.320312 1.6875 -4.28125 1.8125 -4.28125 C 1.945312 -4.28125 2.054688 -4.320312 2.140625 -4.40625 C 2.222656 -4.488281 2.265625 -4.597656 2.265625 -4.734375 Z M 2.265625 -4.734375 "/></g></g></g><g fill="#000000" fill-opacity="1"><g transform="translate(168.656649, 56.365295)"><g><path d="M 3.984375 0 L 3.109375 0 L 3.109375 -4.0625 C 3.109375 -4.320312 3.019531 -4.53125 2.84375 -4.6875 C 2.664062 -4.851562 2.425781 -4.9375 2.125 -4.9375 C 1.8125 -4.9375 1.554688 -4.832031 1.359375 -4.625 C 1.171875 -4.425781 1.070312 -4.164062 1.0625 -3.84375 L 0.21875 -3.84375 C 0.25 -4.40625 0.429688 -4.847656 0.765625 -5.171875 C 1.109375 -5.503906 1.5625 -5.671875 2.125 -5.671875 C 2.644531 -5.671875 3.082031 -5.539062 3.4375 -5.28125 C 3.800781 -5.019531 3.984375 -4.617188 3.984375 -4.078125 Z M 3.984375 0 "/></g></g></g><g fill="#000000" fill-opacity="1"><g transform="translate(173.34653, 56.365295)"><g><path d="M 4.578125 -1.015625 C 4.578125 -0.691406 4.46875 -0.425781 4.25 -0.21875 C 4.039062 -0.0078125 3.773438 0.09375 3.453125 0.09375 C 3.160156 0.09375 2.910156 -0.00390625 2.703125 -0.203125 C 2.503906 -0.410156 2.40625 -0.660156 2.40625 -0.953125 C 2.40625 -1.242188 2.503906 -1.492188 2.703125 -1.703125 C 2.910156 -1.910156 3.160156 -2.015625 3.453125 -2.015625 C 3.554688 -2.015625 3.644531 -2.007812 3.71875 -2 L 3.71875 -4.046875 C 3.71875 -4.640625 3.285156 -4.9375 2.421875 -4.9375 C 2.066406 -4.9375 1.765625 -4.828125 1.515625 -4.609375 C 1.273438 -4.390625 1.15625 -4.097656 1.15625 -3.734375 L 0.328125 -3.734375 C 0.347656 -4.347656 0.546875 -4.820312 0.921875 -5.15625 C 1.304688 -5.5 1.804688 -5.671875 2.421875 -5.671875 C 3.035156 -5.671875 3.53125 -5.550781 3.90625 -5.3125 C 4.351562 -5.03125 4.578125 -4.585938 4.578125 -3.984375 Z M 3.9375 -0.96875 C 3.9375 -1.09375 3.890625 -1.203125 3.796875 -1.296875 C 3.703125 -1.390625 3.585938 -1.4375 3.453125 -1.4375 C 3.328125 -1.4375 3.21875 -1.390625 3.125 -1.296875 C 3.03125 -1.203125 2.984375 -1.09375 2.984375 -0.96875 C 2.984375 -0.832031 3.03125 -0.71875 3.125 -0.625 C 3.21875 -0.53125 3.328125 -0.484375 3.453125 -0.484375 C 3.585938 -0.484375 3.703125 -0.53125 3.796875 -0.625 C 3.890625 -0.71875 3.9375 -0.832031 3.9375 -0.96875 Z M 3.9375 -0.96875 "/></g></g></g><g fill="#000000" fill-opacity="1"><g transform="translate(178.636601, 56.365295)"><g><path d="M 2.265625 0.765625 C 1.160156 -0.367188 0.609375 -1.71875 0.609375 -3.28125 C 0.609375 -4.738281 1.144531 -6.109375 2.21875 -7.390625 L 3.25 -7.390625 C 2.070312 -6.097656 1.484375 -4.726562 1.484375 -3.28125 C 1.484375 -1.90625 2.066406 -0.554688 3.234375 0.765625 Z M 2.265625 0.765625 "/></g></g></g><g fill="#000000" fill-opacity="1"><g transform="translate(182.042343, 56.365295)"><g><path d="M 4.828125 0 L 0.703125 0 L 0.703125 -6.640625 L 1.578125 -6.640625 L 1.578125 -0.75 L 4.828125 -0.75 Z M 4.828125 0 "/></g></g></g><g fill="#000000" fill-opacity="1"><g transform="translate(187.053256, 56.365295)"><g><path d="M 2.78125 -3.328125 C 2.78125 -1.796875 2.226562 -0.429688 1.125 0.765625 L 0.171875 0.765625 C 1.328125 -0.617188 1.90625 -1.984375 1.90625 -3.328125 C 1.90625 -4.671875 1.320312 -6.023438 0.15625 -7.390625 L 1.109375 -7.390625 C 2.222656 -6.210938 2.78125 -4.859375 2.78125 -3.328125 Z M 2.78125 -3.328125 "/></g></g></g><g fill="#000000" fill-opacity="1"><g transform="translate(190.458997, 56.365295)"><g/></g></g><g fill="#000000" fill-opacity="1"><g transform="translate(193.613493, 56.365295)"><g><path d="M 1.875 -0.546875 C 1.875 -0.359375 1.804688 -0.195312 1.671875 -0.0625 C 1.546875 0.0625 1.390625 0.125 1.203125 0.125 C 1.015625 0.125 0.851562 0.0625 0.71875 -0.0625 C 0.59375 -0.195312 0.53125 -0.359375 0.53125 -0.546875 C 0.53125 -0.734375 0.59375 -0.890625 0.71875 -1.015625 C 0.851562 -1.148438 1.015625 -1.21875 1.203125 -1.21875 C 1.390625 -1.21875 1.546875 -1.148438 1.671875 -1.015625 C 1.804688 -0.890625 1.875 -0.734375 1.875 -0.546875 Z M 1.875 -3.984375 C 1.875 -3.796875 1.804688 -3.632812 1.671875 -3.5 C 1.546875 -3.375 1.390625 -3.3125 1.203125 -3.3125 C 1.015625 -3.3125 0.851562 -3.375 0.71875 -3.5 C 0.59375 -3.632812 0.53125 -3.796875 0.53125 -3.984375 C 0.53125 -4.160156 0.59375 -4.3125 0.71875 -4.4375 C 0.851562 -4.570312 1.015625 -4.640625 1.203125 -4.640625 C 1.390625 -4.640625 1.546875 -4.570312 1.671875 -4.4375 C 1.804688 -4.3125 1.875 -4.160156 1.875 -3.984375 Z M 1.875 -3.984375 "/></g></g></g><g fill="#000000" fill-opacity="1"><g transform="translate(196.014264, 56.365295)"><g/></g></g><g fill="#000000" fill-opacity="1"><g transform="translate(199.16876, 56.365295)"><g><path d="M 4.8125 -2.296875 C 4.8125 -1.578125 4.550781 -0.992188 4.03125 -0.546875 C 3.519531 -0.109375 2.847656 0.109375 2.015625 0.109375 C 1.378906 0.109375 0.828125 -0.0820312 0.359375 -0.46875 L 0.75 -1.1875 C 1.164062 -0.882812 1.632812 -0.734375 2.15625 -0.734375 C 2.632812 -0.734375 3.050781 -0.882812 3.40625 -1.1875 C 3.757812 -1.5 3.9375 -1.863281 3.9375 -2.28125 C 3.9375 -2.570312 3.835938 -2.816406 3.640625 -3.015625 C 3.453125 -3.222656 3.21875 -3.328125 2.9375 -3.328125 C 2.582031 -3.328125 2.25 -3.195312 1.9375 -2.9375 L 1.5625 -3.546875 C 2.019531 -3.804688 2.425781 -4.097656 2.78125 -4.421875 C 3.195312 -4.816406 3.40625 -5.132812 3.40625 -5.375 C 3.40625 -5.738281 3.148438 -5.921875 2.640625 -5.921875 C 2.304688 -5.921875 1.992188 -5.8125 1.703125 -5.59375 C 1.421875 -5.382812 1.222656 -5.132812 1.109375 -4.84375 L 0.46875 -5.15625 C 0.644531 -5.625 0.929688 -5.992188 1.328125 -6.265625 C 1.722656 -6.535156 2.171875 -6.671875 2.671875 -6.671875 C 3.117188 -6.671875 3.488281 -6.550781 3.78125 -6.3125 C 4.082031 -6.082031 4.234375 -5.773438 4.234375 -5.390625 C 4.234375 -5.003906 3.945312 -4.566406 3.375 -4.078125 C 3.8125 -3.992188 4.160156 -3.789062 4.421875 -3.46875 C 4.679688 -3.15625 4.8125 -2.765625 4.8125 -2.296875 Z M 4.8125 -2.296875 "/></g></g></g><g fill="#000000" fill-opacity="1"><g transform="translate(204.444869, 56.365295)"><g><path d="M 1.875 -0.546875 C 1.875 -0.359375 1.804688 -0.195312 1.671875 -0.0625 C 1.546875 0.0625 1.390625 0.125 1.203125 0.125 C 1.015625 0.125 0.851562 0.0625 0.71875 -0.0625 C 0.59375 -0.195312 0.53125 -0.359375 0.53125 -0.546875 C 0.53125 -0.734375 0.59375 -0.890625 0.71875 -1.015625 C 0.851562 -1.148438 1.015625 -1.21875 1.203125 -1.21875 C 1.390625 -1.21875 1.546875 -1.148438 1.671875 -1.015625 C 1.804688 -0.890625 1.875 -0.734375 1.875 -0.546875 Z M 1.875 -0.546875 "/></g></g></g><g fill="#000000" fill-opacity="1"><g transform="translate(206.84564, 56.365295)"><g><path d="M 4.859375 0 L 0.328125 0 C 0.410156 -0.40625 0.492188 -0.738281 0.578125 -1 C 0.816406 -1.300781 1.554688 -2.03125 2.796875 -3.1875 C 3.554688 -3.894531 3.9375 -4.476562 3.9375 -4.9375 C 3.9375 -5.550781 3.570312 -5.859375 2.84375 -5.859375 C 2.125 -5.859375 1.695312 -5.445312 1.5625 -4.625 L 0.734375 -4.828125 C 0.804688 -5.421875 1.039062 -5.878906 1.4375 -6.203125 C 1.8125 -6.515625 2.285156 -6.671875 2.859375 -6.671875 C 3.429688 -6.671875 3.898438 -6.503906 4.265625 -6.171875 C 4.640625 -5.835938 4.828125 -5.410156 4.828125 -4.890625 C 4.828125 -4.441406 4.585938 -3.925781 4.109375 -3.34375 C 3.804688 -3 3.304688 -2.519531 2.609375 -1.90625 C 1.984375 -1.363281 1.601562 -0.988281 1.46875 -0.78125 L 5.015625 -0.78125 Z M 4.859375 0 "/></g></g></g><g fill="#000000" fill-opacity="1"><g transform="translate(212.12175, 56.365295)"><g><path d="M 4.8125 -2.296875 C 4.8125 -1.578125 4.550781 -0.992188 4.03125 -0.546875 C 3.519531 -0.109375 2.847656 0.109375 2.015625 0.109375 C 1.378906 0.109375 0.828125 -0.0820312 0.359375 -0.46875 L 0.75 -1.1875 C 1.164062 -0.882812 1.632812 -0.734375 2.15625 -0.734375 C 2.632812 -0.734375 3.050781 -0.882812 3.40625 -1.1875 C 3.757812 -1.5 3.9375 -1.863281 3.9375 -2.28125 C 3.9375 -2.570312 3.835938 -2.816406 3.640625 -3.015625 C 3.453125 -3.222656 3.21875 -3.328125 2.9375 -3.328125 C 2.582031 -3.328125 2.25 -3.195312 1.9375 -2.9375 L 1.5625 -3.546875 C 2.019531 -3.804688 2.425781 -4.097656 2.78125 -4.421875 C 3.195312 -4.816406 3.40625 -5.132812 3.40625 -5.375 C 3.40625 -5.738281 3.148438 -5.921875 2.640625 -5.921875 C 2.304688 -5.921875 1.992188 -5.8125 1.703125 -5.59375 C 1.421875 -5.382812 1.222656 -5.132812 1.109375 -4.84375 L 0.46875 -5.15625 C 0.644531 -5.625 0.929688 -5.992188 1.328125 -6.265625 C 1.722656 -6.535156 2.171875 -6.671875 2.671875 -6.671875 C 3.117188 -6.671875 3.488281 -6.550781 3.78125 -6.3125 C 4.082031 -6.082031 4.234375 -5.773438 4.234375 -5.390625 C 4.234375 -5.003906 3.945312 -4.566406 3.375 -4.078125 C 3.8125 -3.992188 4.160156 -3.789062 4.421875 -3.46875 C 4.679688 -3.15625 4.8125 -2.765625 4.8125 -2.296875 Z M 4.8125 -2.296875 "/></g></g></g><g fill="#000000" fill-opacity="1"><g transform="translate(217.397859, 56.365295)"><g/></g></g><g fill="#000000" fill-opacity="1"><g transform="translate(220.552355, 56.365295)"><g><path d="M 2.84375 -0.953125 C 2.84375 -0.648438 2.738281 -0.394531 2.53125 -0.1875 C 2.320312 0.0078125 2.070312 0.109375 1.78125 0.109375 C 1.46875 0.109375 1.203125 0.00390625 0.984375 -0.203125 C 0.773438 -0.421875 0.671875 -0.691406 0.671875 -1.015625 L 0.671875 -5.5625 L 1.53125 -5.5625 L 1.53125 -1.984375 C 1.582031 -2.003906 1.664062 -2.015625 1.78125 -2.015625 C 2.070312 -2.015625 2.320312 -1.910156 2.53125 -1.703125 C 2.738281 -1.492188 2.84375 -1.242188 2.84375 -0.953125 Z M 2.265625 -0.953125 C 2.265625 -1.078125 2.21875 -1.1875 2.125 -1.28125 C 2.03125 -1.375 1.914062 -1.421875 1.78125 -1.421875 C 1.65625 -1.421875 1.546875 -1.375 1.453125 -1.28125 C 1.359375 -1.1875 1.3125 -1.078125 1.3125 -0.953125 C 1.3125 -0.816406 1.359375 -0.703125 1.453125 -0.609375 C 1.546875 -0.515625 1.65625 -0.46875 1.78125 -0.46875 C 1.914062 -0.46875 2.03125 -0.515625 2.125 -0.609375 C 2.21875 -0.703125 2.265625 -0.816406 2.265625 -0.953125 Z M 2.265625 -0.953125 "/></g></g></g><g fill="#000000" fill-opacity="1"><g transform="translate(223.455617, 56.365295)"><g><path d="M 5.109375 0 L 4.234375 0 C 3.703125 -0.476562 3.160156 -0.816406 2.609375 -1.015625 L 2.609375 -0.953125 C 2.609375 -0.648438 2.492188 -0.394531 2.265625 -0.1875 C 2.035156 0.0078125 1.78125 0.109375 1.5 0.109375 C 1.1875 0.109375 0.914062 0 0.6875 -0.21875 C 0.46875 -0.445312 0.359375 -0.710938 0.359375 -1.015625 C 0.359375 -1.328125 0.46875 -1.59375 0.6875 -1.8125 C 0.914062 -2.03125 1.1875 -2.140625 1.5 -2.140625 L 1.59375 -2.140625 L 1.59375 -3.59375 C 1.5 -3.570312 1.421875 -3.5625 1.359375 -3.5625 C 1.054688 -3.5625 0.800781 -3.664062 0.59375 -3.875 C 0.394531 -4.082031 0.296875 -4.332031 0.296875 -4.625 C 0.296875 -4.914062 0.394531 -5.160156 0.59375 -5.359375 C 0.800781 -5.566406 1.054688 -5.671875 1.359375 -5.671875 C 1.671875 -5.671875 1.929688 -5.5625 2.140625 -5.34375 C 2.347656 -5.132812 2.453125 -4.867188 2.453125 -4.546875 L 2.453125 -1.890625 C 3.191406 -1.640625 3.785156 -1.3125 4.234375 -0.90625 L 4.234375 -5.5625 L 5.109375 -5.5625 Z M 1.828125 -4.625 C 1.828125 -4.75 1.78125 -4.859375 1.6875 -4.953125 C 1.59375 -5.046875 1.484375 -5.09375 1.359375 -5.09375 C 1.222656 -5.09375 1.109375 -5.046875 1.015625 -4.953125 C 0.921875 -4.859375 0.875 -4.75 0.875 -4.625 C 0.875 -4.488281 0.921875 -4.375 1.015625 -4.28125 C 1.109375 -4.1875 1.222656 -4.140625 1.359375 -4.140625 C 1.484375 -4.140625 1.59375 -4.1875 1.6875 -4.28125 C 1.78125 -4.375 1.828125 -4.488281 1.828125 -4.625 Z M 1.96875 -1.015625 C 1.96875 -1.148438 1.921875 -1.265625 1.828125 -1.359375 C 1.734375 -1.453125 1.625 -1.5 1.5 -1.5 C 1.363281 -1.5 1.25 -1.453125 1.15625 -1.359375 C 1.0625 -1.265625 1.015625 -1.148438 1.015625 -1.015625 C 1.015625 -0.890625 1.0625 -0.78125 1.15625 -0.6875 C 1.25 -0.59375 1.363281 -0.546875 1.5 -0.546875 C 1.625 -0.546875 1.734375 -0.59375 1.828125 -0.6875 C 1.921875 -0.78125 1.96875 -0.890625 1.96875 -1.015625 Z M 1.96875 -1.015625 "/></g></g></g><g fill="#000000" fill-opacity="1"><g transform="translate(229.276091, 56.365295)"><g><path d="M 4.9375 0 L 4.078125 0 L 4.078125 -3.65625 C 4.078125 -4.25 3.914062 -4.675781 3.59375 -4.9375 L 2.71875 -4.3125 L 1.875 -4.9375 C 1.476562 -4.738281 1.28125 -4.296875 1.28125 -3.609375 C 1.28125 -3.390625 1.347656 -3.0625 1.484375 -2.625 C 1.617188 -2.1875 1.6875 -1.859375 1.6875 -1.640625 C 1.6875 -1.492188 1.660156 -1.34375 1.609375 -1.1875 C 1.660156 -1.3125 1.789062 -1.488281 2 -1.71875 C 2.21875 -1.957031 2.425781 -2.140625 2.625 -2.265625 C 2.375 -2.273438 2.175781 -2.367188 2.03125 -2.546875 C 1.882812 -2.722656 1.8125 -2.921875 1.8125 -3.140625 C 1.8125 -3.390625 1.894531 -3.601562 2.0625 -3.78125 C 2.238281 -3.957031 2.453125 -4.046875 2.703125 -4.046875 C 2.953125 -4.046875 3.164062 -3.957031 3.34375 -3.78125 C 3.519531 -3.601562 3.609375 -3.390625 3.609375 -3.140625 C 3.609375 -2.742188 3.398438 -2.320312 2.984375 -1.875 C 2.429688 -1.28125 2.109375 -0.894531 2.015625 -0.71875 C 1.867188 -0.445312 1.796875 -0.207031 1.796875 0 L 0.921875 0 C 0.941406 -0.351562 0.953125 -0.710938 0.953125 -1.078125 C 0.953125 -1.441406 0.894531 -1.785156 0.78125 -2.109375 C 0.550781 -2.773438 0.4375 -3.273438 0.4375 -3.609375 C 0.4375 -4.117188 0.5625 -4.5625 0.8125 -4.9375 C 1.070312 -5.3125 1.4375 -5.5625 1.90625 -5.6875 L 2.703125 -5.09375 L 3.453125 -5.6875 C 4.441406 -5.539062 4.9375 -4.875 4.9375 -3.6875 Z M 3.125 -3.15625 C 3.125 -3.269531 3.082031 -3.367188 3 -3.453125 C 2.925781 -3.535156 2.828125 -3.578125 2.703125 -3.578125 C 2.585938 -3.578125 2.488281 -3.535156 2.40625 -3.453125 C 2.320312 -3.367188 2.28125 -3.269531 2.28125 -3.15625 C 2.28125 -3.03125 2.320312 -2.925781 2.40625 -2.84375 C 2.488281 -2.769531 2.585938 -2.734375 2.703125 -2.734375 C 2.828125 -2.734375 2.925781 -2.769531 3 -2.84375 C 3.082031 -2.925781 3.125 -3.03125 3.125 -3.15625 Z M 3.125 -3.15625 "/></g></g></g><g fill="#000000" fill-opacity="1"><g transform="translate(234.929068, 56.365295)"><g><path d="M 3.78125 -0.9375 C 3.78125 -0.632812 3.675781 -0.382812 3.46875 -0.1875 C 3.257812 0.0078125 3.003906 0.109375 2.703125 0.109375 C 2.410156 0.109375 2.15625 0.0078125 1.9375 -0.1875 C 1.726562 -0.394531 1.625 -0.648438 1.625 -0.953125 C 1.625 -1.242188 1.726562 -1.492188 1.9375 -1.703125 C 2.15625 -1.910156 2.410156 -2.015625 2.703125 -2.015625 C 2.816406 -2.015625 2.890625 -2.007812 2.921875 -2 L 2.921875 -3.1875 C 2.921875 -3.34375 2.609375 -3.488281 1.984375 -3.625 C 1.367188 -3.769531 0.8125 -3.890625 0.3125 -3.984375 C 0.320312 -4.492188 0.453125 -4.898438 0.703125 -5.203125 C 0.960938 -5.515625 1.328125 -5.671875 1.796875 -5.671875 C 1.992188 -5.671875 2.257812 -5.625 2.59375 -5.53125 C 2.9375 -5.445312 3.179688 -5.40625 3.328125 -5.40625 C 3.492188 -5.40625 3.582031 -5.507812 3.59375 -5.71875 L 4.28125 -5.546875 C 4.113281 -4.972656 3.804688 -4.6875 3.359375 -4.6875 C 3.191406 -4.6875 2.953125 -4.726562 2.640625 -4.8125 C 2.328125 -4.894531 2.09375 -4.9375 1.9375 -4.9375 C 1.53125 -4.9375 1.296875 -4.78125 1.234375 -4.46875 C 1.953125 -4.3125 2.554688 -4.148438 3.046875 -3.984375 C 3.535156 -3.816406 3.78125 -3.53125 3.78125 -3.125 Z M 3.1875 -0.953125 C 3.1875 -1.078125 3.140625 -1.1875 3.046875 -1.28125 C 2.953125 -1.375 2.835938 -1.421875 2.703125 -1.421875 C 2.578125 -1.421875 2.46875 -1.375 2.375 -1.28125 C 2.28125 -1.1875 2.234375 -1.078125 2.234375 -0.953125 C 2.234375 -0.816406 2.28125 -0.703125 2.375 -0.609375 C 2.46875 -0.515625 2.578125 -0.46875 2.703125 -0.46875 C 2.835938 -0.46875 2.953125 -0.515625 3.046875 -0.609375 C 3.140625 -0.703125 3.1875 -0.816406 3.1875 -0.953125 Z M 3.1875 -0.953125 "/></g></g></g><g fill="#000000" fill-opacity="1"><g transform="translate(239.521239, 56.365295)"><g><path d="M 2.265625 0.765625 C 1.160156 -0.367188 0.609375 -1.71875 0.609375 -3.28125 C 0.609375 -4.738281 1.144531 -6.109375 2.21875 -7.390625 L 3.25 -7.390625 C 2.070312 -6.097656 1.484375 -4.726562 1.484375 -3.28125 C 1.484375 -1.90625 2.066406 -0.554688 3.234375 0.765625 Z M 2.265625 0.765625 "/></g></g></g><g fill="#000000" fill-opacity="1"><g transform="translate(242.92698, 56.365295)"><g><path d="M 8.171875 0 L 7.296875 0 L 7.296875 -2.625 C 7.296875 -3.050781 7.195312 -3.40625 7 -3.6875 C 6.78125 -3.988281 6.488281 -4.140625 6.125 -4.140625 C 5.820312 -4.140625 5.535156 -4.019531 5.265625 -3.78125 C 5.003906 -3.539062 4.875 -3.28125 4.875 -3 L 4.875 0 L 3.984375 0 L 3.984375 -2.859375 C 3.984375 -3.710938 3.628906 -4.140625 2.921875 -4.140625 C 2.597656 -4.140625 2.289062 -4 2 -3.71875 C 1.71875 -3.4375 1.578125 -3.140625 1.578125 -2.828125 L 1.578125 0 L 0.703125 0 L 0.703125 -3.484375 C 0.703125 -4.066406 0.664062 -4.492188 0.59375 -4.765625 L 1.40625 -4.765625 C 1.46875 -4.597656 1.5 -4.414062 1.5 -4.21875 C 1.632812 -4.40625 1.847656 -4.5625 2.140625 -4.6875 C 2.441406 -4.820312 2.738281 -4.890625 3.03125 -4.890625 C 3.644531 -4.890625 4.132812 -4.628906 4.5 -4.109375 C 5 -4.628906 5.597656 -4.890625 6.296875 -4.890625 C 6.835938 -4.890625 7.285156 -4.679688 7.640625 -4.265625 C 7.992188 -3.847656 8.171875 -3.304688 8.171875 -2.640625 Z M 8.171875 0 "/></g></g></g><g fill="#000000" fill-opacity="1"><g transform="translate(251.80424, 56.365295)"><g><path d="M 2.78125 -3.328125 C 2.78125 -1.796875 2.226562 -0.429688 1.125 0.765625 L 0.171875 0.765625 C 1.328125 -0.617188 1.90625 -1.984375 1.90625 -3.328125 C 1.90625 -4.671875 1.320312 -6.023438 0.15625 -7.390625 L 1.109375 -7.390625 C 2.222656 -6.210938 2.78125 -4.859375 2.78125 -3.328125 Z M 2.78125 -3.328125 "/></g></g></g><path stroke-linecap="butt" transform="matrix(0, -0.748165, 0.748165, 0, 372.642259, 230.24532)" fill="none" stroke-linejoin="miter" d="M 1.497423 1.000268 L 216.768813 1.000268 " stroke="#000000" stroke-width="2" stroke-opacity="1" stroke-miterlimit="4"/><path stroke-linecap="round" transform="matrix(0, -0.748165, 0.748165, 0, 372.642259, 230.24532)" fill="none" stroke-linejoin="round" d="M 1.001418 -2.001867 L 1.001418 4.002404 " stroke="#000000" stroke-width="2" stroke-opacity="1" stroke-miterlimit="4"/><path stroke-linecap="round" transform="matrix(0, -0.748165, 0.748165, 0, 372.642259, 230.24532)" fill="none" stroke-linejoin="round" d="M 217.270039 -2.001867 L 217.270039 4.002404 " stroke="#000000" stroke-width="2" stroke-opacity="1" stroke-miterlimit="4"/><g fill="#000000" fill-opacity="1"><g transform="translate(383.962534, 98.602891)"><g><path d="M 0 4.75 L 0 3.875 L 3.703125 3.875 C 4.078125 3.875 4.375 3.757812 4.59375 3.53125 C 4.820312 3.300781 4.9375 2.992188 4.9375 2.609375 C 4.9375 2.046875 4.703125 1.625 4.234375 1.34375 C 4.148438 1.78125 3.9375 2.09375 3.59375 2.28125 C 3.320312 1.800781 2.988281 1.5625 2.59375 1.5625 L 0 1.5625 L 0 0.703125 L 2.65625 0.703125 C 3.039062 0.703125 3.347656 0.890625 3.578125 1.265625 C 3.734375 1.035156 3.785156 0.753906 3.734375 0.421875 C 4.316406 0.441406 4.789062 0.664062 5.15625 1.09375 C 5.5 1.476562 5.671875 1.972656 5.671875 2.578125 C 5.671875 3.253906 5.492188 3.785156 5.140625 4.171875 C 4.785156 4.554688 4.300781 4.75 3.6875 4.75 Z M 0 4.75 "/></g></g></g><g fill="#000000" fill-opacity="1"><g transform="translate(383.962534, 104.060459)"><g><path d="M 1.015625 4.578125 C 0.691406 4.578125 0.425781 4.46875 0.21875 4.25 C 0.0078125 4.039062 -0.09375 3.773438 -0.09375 3.453125 C -0.09375 3.160156 0.00390625 2.910156 0.203125 2.703125 C 0.410156 2.503906 0.660156 2.40625 0.953125 2.40625 C 1.242188 2.40625 1.492188 2.503906 1.703125 2.703125 C 1.910156 2.910156 2.015625 3.160156 2.015625 3.453125 C 2.015625 3.554688 2.007812 3.644531 2 3.71875 L 4.046875 3.71875 C 4.640625 3.71875 4.9375 3.285156 4.9375 2.421875 C 4.9375 2.066406 4.828125 1.765625 4.609375 1.515625 C 4.390625 1.273438 4.097656 1.15625 3.734375 1.15625 L 3.734375 0.328125 C 4.347656 0.347656 4.820312 0.546875 5.15625 0.921875 C 5.5 1.304688 5.671875 1.804688 5.671875 2.421875 C 5.671875 3.035156 5.550781 3.53125 5.3125 3.90625 C 5.03125 4.351562 4.585938 4.578125 3.984375 4.578125 Z M 0.96875 3.9375 C 1.09375 3.9375 1.203125 3.890625 1.296875 3.796875 C 1.390625 3.703125 1.4375 3.585938 1.4375 3.453125 C 1.4375 3.328125 1.390625 3.21875 1.296875 3.125 C 1.203125 3.03125 1.09375 2.984375 0.96875 2.984375 C 0.832031 2.984375 0.71875 3.03125 0.625 3.125 C 0.53125 3.21875 0.484375 3.328125 0.484375 3.453125 C 0.484375 3.585938 0.53125 3.703125 0.625 3.796875 C 0.71875 3.890625 0.832031 3.9375 0.96875 3.9375 Z M 0.96875 3.9375 "/></g></g></g><g fill="#000000" fill-opacity="1"><g transform="translate(383.962534, 109.35053)"><g><path d="M 8.890625 0.140625 C 8.398438 0.046875 7.984375 -0.0820312 7.640625 -0.25 C 7.304688 -0.414062 7.039062 -0.628906 6.84375 -0.890625 C 6.644531 -1.148438 6.503906 -1.453125 6.421875 -1.796875 C 6.335938 -2.148438 6.296875 -2.554688 6.296875 -3.015625 L 6.296875 -3.46875 L 6.84375 -3.46875 C 6.851562 -3.28125 6.921875 -3.125 7.046875 -3 C 7.171875 -2.875 7.289062 -2.789062 7.40625 -2.75 C 7.445312 -2.976562 7.550781 -3.160156 7.71875 -3.296875 C 7.882812 -3.429688 8.085938 -3.5 8.328125 -3.5 C 8.578125 -3.5 8.785156 -3.40625 8.953125 -3.21875 C 9.117188 -3.039062 9.203125 -2.832031 9.203125 -2.59375 C 9.203125 -2.3125 9.113281 -2.09375 8.9375 -1.9375 C 8.757812 -1.78125 8.539062 -1.703125 8.28125 -1.703125 C 8.007812 -1.703125 7.742188 -1.765625 7.484375 -1.890625 C 7.234375 -2.023438 7.039062 -2.160156 6.90625 -2.296875 C 6.988281 -1.835938 7.210938 -1.457031 7.578125 -1.15625 C 7.953125 -0.863281 8.390625 -0.710938 8.890625 -0.703125 Z M 8.296875 -2.25 C 8.398438 -2.25 8.488281 -2.28125 8.5625 -2.34375 C 8.632812 -2.414062 8.671875 -2.503906 8.671875 -2.609375 C 8.671875 -2.710938 8.632812 -2.796875 8.5625 -2.859375 C 8.488281 -2.921875 8.398438 -2.953125 8.296875 -2.953125 C 8.203125 -2.953125 8.117188 -2.921875 8.046875 -2.859375 C 7.972656 -2.796875 7.9375 -2.710938 7.9375 -2.609375 C 7.9375 -2.503906 7.972656 -2.414062 8.046875 -2.34375 C 8.117188 -2.28125 8.203125 -2.25 8.296875 -2.25 Z M 8.296875 -2.25 "/></g></g></g><g fill="#000000" fill-opacity="1"><g transform="translate(383.962534, 109.35053)"><g><path d="M 0 3.984375 L 0 3.109375 L 4.0625 3.109375 C 4.320312 3.109375 4.53125 3.019531 4.6875 2.84375 C 4.851562 2.664062 4.9375 2.425781 4.9375 2.125 C 4.9375 1.8125 4.832031 1.554688 4.625 1.359375 C 4.425781 1.171875 4.164062 1.070312 3.84375 1.0625 L 3.84375 0.21875 C 4.40625 0.25 4.847656 0.429688 5.171875 0.765625 C 5.503906 1.109375 5.671875 1.5625 5.671875 2.125 C 5.671875 2.644531 5.539062 3.082031 5.28125 3.4375 C 5.019531 3.800781 4.617188 3.984375 4.078125 3.984375 Z M 0 3.984375 "/></g></g></g><g fill="#000000" fill-opacity="1"><g transform="translate(383.962534, 114.040412)"><g><path d="M 0 3.71875 L 0 2.875 L 2.9375 0.265625 L 3.546875 0.78125 L 1.203125 2.859375 L 3.59375 2.859375 C 3.59375 2.828125 3.59375 2.738281 3.59375 2.59375 C 3.59375 2.300781 3.6875 2.054688 3.875 1.859375 C 4.0625 1.660156 4.304688 1.5625 4.609375 1.5625 C 4.898438 1.5625 5.148438 1.660156 5.359375 1.859375 C 5.566406 2.066406 5.671875 2.3125 5.671875 2.59375 C 5.671875 2.914062 5.566406 3.179688 5.359375 3.390625 C 5.148438 3.609375 4.878906 3.71875 4.546875 3.71875 Z M 4.625 3.0625 C 4.757812 3.0625 4.875 3.015625 4.96875 2.921875 C 5.0625 2.835938 5.109375 2.726562 5.109375 2.59375 C 5.109375 2.46875 5.0625 2.359375 4.96875 2.265625 C 4.875 2.171875 4.757812 2.125 4.625 2.125 C 4.5 2.125 4.390625 2.171875 4.296875 2.265625 C 4.203125 2.359375 4.15625 2.46875 4.15625 2.59375 C 4.15625 2.726562 4.203125 2.835938 4.296875 2.921875 C 4.390625 3.015625 4.5 3.0625 4.625 3.0625 Z M 4.625 3.0625 "/></g></g></g><g fill="#000000" fill-opacity="1"><g transform="translate(383.962534, 118.479047)"><g><path d="M -0.765625 2.265625 C 0.367188 1.160156 1.71875 0.609375 3.28125 0.609375 C 4.738281 0.609375 6.109375 1.144531 7.390625 2.21875 L 7.390625 3.25 C 6.097656 2.070312 4.726562 1.484375 3.28125 1.484375 C 1.90625 1.484375 0.554688 2.066406 -0.765625 3.234375 Z M -0.765625 2.265625 "/></g></g></g><g fill="#000000" fill-opacity="1"><g transform="translate(383.962534, 121.884789)"><g><path d="M 0 6.75 L 0 5.9375 L 5.421875 4.265625 L 0 2.59375 L 0 1.78125 L 6.640625 -0.0625 L 6.640625 0.90625 L 1.34375 2.203125 L 6.640625 3.84375 L 6.640625 4.6875 L 1.34375 6.328125 L 6.640625 7.625 L 6.640625 8.59375 Z M 0 6.75 "/></g></g></g><g fill="#000000" fill-opacity="1"><g transform="translate(383.962534, 130.427066)"><g><path d="M 3.328125 2.78125 C 1.796875 2.78125 0.429688 2.226562 -0.765625 1.125 L -0.765625 0.171875 C 0.617188 1.328125 1.984375 1.90625 3.328125 1.90625 C 4.671875 1.90625 6.023438 1.320312 7.390625 0.15625 L 7.390625 1.109375 C 6.210938 2.222656 4.859375 2.78125 3.328125 2.78125 Z M 3.328125 2.78125 "/></g></g></g><g fill="#000000" fill-opacity="1"><g transform="translate(383.962534, 133.832807)"><g/></g></g><g fill="#000000" fill-opacity="1"><g transform="translate(383.962534, 136.987303)"><g><path d="M 0.546875 1.875 C 0.359375 1.875 0.195312 1.804688 0.0625 1.671875 C -0.0625 1.546875 -0.125 1.390625 -0.125 1.203125 C -0.125 1.015625 -0.0625 0.851562 0.0625 0.71875 C 0.195312 0.59375 0.359375 0.53125 0.546875 0.53125 C 0.734375 0.53125 0.890625 0.59375 1.015625 0.71875 C 1.148438 0.851562 1.21875 1.015625 1.21875 1.203125 C 1.21875 1.390625 1.148438 1.546875 1.015625 1.671875 C 0.890625 1.804688 0.734375 1.875 0.546875 1.875 Z M 3.984375 1.875 C 3.796875 1.875 3.632812 1.804688 3.5 1.671875 C 3.375 1.546875 3.3125 1.390625 3.3125 1.203125 C 3.3125 1.015625 3.375 0.851562 3.5 0.71875 C 3.632812 0.59375 3.796875 0.53125 3.984375 0.53125 C 4.160156 0.53125 4.3125 0.59375 4.4375 0.71875 C 4.570312 0.851562 4.640625 1.015625 4.640625 1.203125 C 4.640625 1.390625 4.570312 1.546875 4.4375 1.671875 C 4.3125 1.804688 4.160156 1.875 3.984375 1.875 Z M 3.984375 1.875 "/></g></g></g><g fill="#000000" fill-opacity="1"><g transform="translate(383.962534, 139.388074)"><g/></g></g><g fill="#000000" fill-opacity="1"><g transform="translate(383.962534, 142.54257)"><g><path d="M 0 4.28125 L 0 1.34375 L 0.71875 1.34375 L 0.71875 2.375 L 5.34375 2.375 L 4.609375 1.5 L 5.171875 0.984375 L 6.671875 2.75 C 6.671875 3.09375 6.445312 3.265625 6 3.265625 L 0.71875 3.265625 L 0.71875 4.28125 Z M 0 4.28125 "/></g></g></g><g fill="#000000" fill-opacity="1"><g transform="translate(383.962534, 147.81868)"><g><path d="M 0.546875 1.875 C 0.359375 1.875 0.195312 1.804688 0.0625 1.671875 C -0.0625 1.546875 -0.125 1.390625 -0.125 1.203125 C -0.125 1.015625 -0.0625 0.851562 0.0625 0.71875 C 0.195312 0.59375 0.359375 0.53125 0.546875 0.53125 C 0.734375 0.53125 0.890625 0.59375 1.015625 0.71875 C 1.148438 0.851562 1.21875 1.015625 1.21875 1.203125 C 1.21875 1.390625 1.148438 1.546875 1.015625 1.671875 C 0.890625 1.804688 0.734375 1.875 0.546875 1.875 Z M 0.546875 1.875 "/></g></g></g><g fill="#000000" fill-opacity="1"><g transform="translate(383.962534, 150.219451)"><g><path d="M 0 2.75 L 0 1.84375 C 2.59375 1.914062 4.554688 2.570312 5.890625 3.8125 L 5.890625 0.390625 L 6.640625 0.59375 L 6.640625 4.9375 L 5.890625 4.8125 C 4.992188 4.09375 4.140625 3.582031 3.328125 3.28125 C 2.378906 2.925781 1.269531 2.75 0 2.75 Z M 0 2.75 "/></g></g></g><g fill="#000000" fill-opacity="1"><g transform="translate(383.962534, 155.49556)"><g><path d="M 2.34375 4.828125 C 1.613281 4.828125 1.019531 4.570312 0.5625 4.0625 C 0.113281 3.550781 -0.109375 2.890625 -0.109375 2.078125 C -0.109375 1.390625 0.0859375 0.816406 0.484375 0.359375 L 1.125 0.734375 C 0.800781 1.253906 0.640625 1.734375 0.640625 2.171875 C 0.640625 2.660156 0.800781 3.078125 1.125 3.421875 C 1.445312 3.765625 1.847656 3.9375 2.328125 3.9375 C 2.734375 3.9375 3.046875 3.804688 3.265625 3.546875 C 3.484375 3.285156 3.59375 2.9375 3.59375 2.5 C 3.59375 2.0625 3.4375 1.773438 3.125 1.640625 L 3.09375 1.09375 L 6.640625 1.328125 L 6.640625 4.640625 L 5.890625 4.5 L 5.890625 2.171875 L 4.265625 2.078125 C 4.335938 2.242188 4.375 2.441406 4.375 2.671875 C 4.375 3.285156 4.179688 3.796875 3.796875 4.203125 C 3.421875 4.617188 2.9375 4.828125 2.34375 4.828125 Z M 2.34375 4.828125 "/></g></g></g><g fill="#000000" fill-opacity="1"><g transform="translate(383.962534, 160.771669)"><g/></g></g><g fill="#000000" fill-opacity="1"><g transform="translate(383.962534, 163.926165)"><g><path d="M 0.953125 2.84375 C 0.648438 2.84375 0.394531 2.738281 0.1875 2.53125 C -0.0078125 2.320312 -0.109375 2.070312 -0.109375 1.78125 C -0.109375 1.46875 -0.00390625 1.203125 0.203125 0.984375 C 0.421875 0.773438 0.691406 0.671875 1.015625 0.671875 L 5.5625 0.671875 L 5.5625 1.53125 L 1.984375 1.53125 C 2.003906 1.582031 2.015625 1.664062 2.015625 1.78125 C 2.015625 2.070312 1.910156 2.320312 1.703125 2.53125 C 1.492188 2.738281 1.242188 2.84375 0.953125 2.84375 Z M 0.953125 2.265625 C 1.078125 2.265625 1.1875 2.21875 1.28125 2.125 C 1.375 2.03125 1.421875 1.914062 1.421875 1.78125 C 1.421875 1.65625 1.375 1.546875 1.28125 1.453125 C 1.1875 1.359375 1.078125 1.3125 0.953125 1.3125 C 0.816406 1.3125 0.703125 1.359375 0.609375 1.453125 C 0.515625 1.546875 0.46875 1.65625 0.46875 1.78125 C 0.46875 1.914062 0.515625 2.03125 0.609375 2.125 C 0.703125 2.21875 0.816406 2.265625 0.953125 2.265625 Z M 0.953125 2.265625 "/></g></g></g><g fill="#000000" fill-opacity="1"><g transform="translate(383.962534, 166.829427)"><g><path d="M 0 5.109375 L 0 4.234375 C 0.476562 3.703125 0.816406 3.160156 1.015625 2.609375 L 0.953125 2.609375 C 0.648438 2.609375 0.394531 2.492188 0.1875 2.265625 C -0.0078125 2.035156 -0.109375 1.78125 -0.109375 1.5 C -0.109375 1.1875 0 0.914062 0.21875 0.6875 C 0.445312 0.46875 0.710938 0.359375 1.015625 0.359375 C 1.328125 0.359375 1.59375 0.46875 1.8125 0.6875 C 2.03125 0.914062 2.140625 1.1875 2.140625 1.5 L 2.140625 1.59375 L 3.59375 1.59375 C 3.570312 1.5 3.5625 1.421875 3.5625 1.359375 C 3.5625 1.054688 3.664062 0.800781 3.875 0.59375 C 4.082031 0.394531 4.332031 0.296875 4.625 0.296875 C 4.914062 0.296875 5.160156 0.394531 5.359375 0.59375 C 5.566406 0.800781 5.671875 1.054688 5.671875 1.359375 C 5.671875 1.671875 5.5625 1.929688 5.34375 2.140625 C 5.132812 2.347656 4.867188 2.453125 4.546875 2.453125 L 1.890625 2.453125 C 1.640625 3.191406 1.3125 3.785156 0.90625 4.234375 L 5.5625 4.234375 L 5.5625 5.109375 Z M 4.625 1.828125 C 4.75 1.828125 4.859375 1.78125 4.953125 1.6875 C 5.046875 1.59375 5.09375 1.484375 5.09375 1.359375 C 5.09375 1.222656 5.046875 1.109375 4.953125 1.015625 C 4.859375 0.921875 4.75 0.875 4.625 0.875 C 4.488281 0.875 4.375 0.921875 4.28125 1.015625 C 4.1875 1.109375 4.140625 1.222656 4.140625 1.359375 C 4.140625 1.484375 4.1875 1.59375 4.28125 1.6875 C 4.375 1.78125 4.488281 1.828125 4.625 1.828125 Z M 1.015625 1.96875 C 1.148438 1.96875 1.265625 1.921875 1.359375 1.828125 C 1.453125 1.734375 1.5 1.625 1.5 1.5 C 1.5 1.363281 1.453125 1.25 1.359375 1.15625 C 1.265625 1.0625 1.148438 1.015625 1.015625 1.015625 C 0.890625 1.015625 0.78125 1.0625 0.6875 1.15625 C 0.59375 1.25 0.546875 1.363281 0.546875 1.5 C 0.546875 1.625 0.59375 1.734375 0.6875 1.828125 C 0.78125 1.921875 0.890625 1.96875 1.015625 1.96875 Z M 1.015625 1.96875 "/></g></g></g><g fill="#000000" fill-opacity="1"><g transform="translate(383.962534, 172.649901)"><g><path d="M 0 4.9375 L 0 4.078125 L 3.65625 4.078125 C 4.25 4.078125 4.675781 3.914062 4.9375 3.59375 L 4.3125 2.71875 L 4.9375 1.875 C 4.738281 1.476562 4.296875 1.28125 3.609375 1.28125 C 3.390625 1.28125 3.0625 1.347656 2.625 1.484375 C 2.1875 1.617188 1.859375 1.6875 1.640625 1.6875 C 1.492188 1.6875 1.34375 1.660156 1.1875 1.609375 C 1.3125 1.660156 1.488281 1.789062 1.71875 2 C 1.957031 2.21875 2.140625 2.425781 2.265625 2.625 C 2.273438 2.375 2.367188 2.175781 2.546875 2.03125 C 2.722656 1.882812 2.921875 1.8125 3.140625 1.8125 C 3.390625 1.8125 3.601562 1.894531 3.78125 2.0625 C 3.957031 2.238281 4.046875 2.453125 4.046875 2.703125 C 4.046875 2.953125 3.957031 3.164062 3.78125 3.34375 C 3.601562 3.519531 3.390625 3.609375 3.140625 3.609375 C 2.742188 3.609375 2.320312 3.398438 1.875 2.984375 C 1.28125 2.429688 0.894531 2.109375 0.71875 2.015625 C 0.445312 1.867188 0.207031 1.796875 0 1.796875 L 0 0.921875 C 0.351562 0.941406 0.710938 0.953125 1.078125 0.953125 C 1.441406 0.953125 1.785156 0.894531 2.109375 0.78125 C 2.773438 0.550781 3.273438 0.4375 3.609375 0.4375 C 4.117188 0.4375 4.5625 0.5625 4.9375 0.8125 C 5.3125 1.070312 5.5625 1.4375 5.6875 1.90625 L 5.09375 2.703125 L 5.6875 3.453125 C 5.539062 4.441406 4.875 4.9375 3.6875 4.9375 Z M 3.15625 3.125 C 3.269531 3.125 3.367188 3.082031 3.453125 3 C 3.535156 2.925781 3.578125 2.828125 3.578125 2.703125 C 3.578125 2.585938 3.535156 2.488281 3.453125 2.40625 C 3.367188 2.320312 3.269531 2.28125 3.15625 2.28125 C 3.03125 2.28125 2.925781 2.320312 2.84375 2.40625 C 2.769531 2.488281 2.734375 2.585938 2.734375 2.703125 C 2.734375 2.828125 2.769531 2.925781 2.84375 3 C 2.925781 3.082031 3.03125 3.125 3.15625 3.125 Z M 3.15625 3.125 "/></g></g></g><g fill="#000000" fill-opacity="1"><g transform="translate(383.962534, 178.302878)"><g><path d="M 0.9375 3.78125 C 0.632812 3.78125 0.382812 3.675781 0.1875 3.46875 C -0.0078125 3.257812 -0.109375 3.003906 -0.109375 2.703125 C -0.109375 2.410156 -0.0078125 2.15625 0.1875 1.9375 C 0.394531 1.726562 0.648438 1.625 0.953125 1.625 C 1.242188 1.625 1.492188 1.726562 1.703125 1.9375 C 1.910156 2.15625 2.015625 2.410156 2.015625 2.703125 C 2.015625 2.816406 2.007812 2.890625 2 2.921875 L 3.1875 2.921875 C 3.34375 2.921875 3.488281 2.609375 3.625 1.984375 C 3.769531 1.367188 3.890625 0.8125 3.984375 0.3125 C 4.492188 0.320312 4.898438 0.453125 5.203125 0.703125 C 5.515625 0.960938 5.671875 1.328125 5.671875 1.796875 C 5.671875 1.992188 5.625 2.257812 5.53125 2.59375 C 5.445312 2.9375 5.40625 3.179688 5.40625 3.328125 C 5.40625 3.492188 5.507812 3.582031 5.71875 3.59375 L 5.546875 4.28125 C 4.972656 4.113281 4.6875 3.804688 4.6875 3.359375 C 4.6875 3.191406 4.726562 2.953125 4.8125 2.640625 C 4.894531 2.328125 4.9375 2.09375 4.9375 1.9375 C 4.9375 1.53125 4.78125 1.296875 4.46875 1.234375 C 4.3125 1.953125 4.148438 2.554688 3.984375 3.046875 C 3.816406 3.535156 3.53125 3.78125 3.125 3.78125 Z M 0.953125 3.1875 C 1.078125 3.1875 1.1875 3.140625 1.28125 3.046875 C 1.375 2.953125 1.421875 2.835938 1.421875 2.703125 C 1.421875 2.578125 1.375 2.46875 1.28125 2.375 C 1.1875 2.28125 1.078125 2.234375 0.953125 2.234375 C 0.816406 2.234375 0.703125 2.28125 0.609375 2.375 C 0.515625 2.46875 0.46875 2.578125 0.46875 2.703125 C 0.46875 2.835938 0.515625 2.953125 0.609375 3.046875 C 0.703125 3.140625 0.816406 3.1875 0.953125 3.1875 Z M 0.953125 3.1875 "/></g></g></g><g fill="#000000" fill-opacity="1"><g transform="translate(383.962534, 182.895049)"><g><path d="M -0.765625 2.265625 C 0.367188 1.160156 1.71875 0.609375 3.28125 0.609375 C 4.738281 0.609375 6.109375 1.144531 7.390625 2.21875 L 7.390625 3.25 C 6.097656 2.070312 4.726562 1.484375 3.28125 1.484375 C 1.90625 1.484375 0.554688 2.066406 -0.765625 3.234375 Z M -0.765625 2.265625 "/></g></g></g><g fill="#000000" fill-opacity="1"><g transform="translate(383.962534, 186.300791)"><g><path d="M 0 8.171875 L 0 7.296875 L 2.625 7.296875 C 3.050781 7.296875 3.40625 7.195312 3.6875 7 C 3.988281 6.78125 4.140625 6.488281 4.140625 6.125 C 4.140625 5.820312 4.019531 5.535156 3.78125 5.265625 C 3.539062 5.003906 3.28125 4.875 3 4.875 L 0 4.875 L 0 3.984375 L 2.859375 3.984375 C 3.710938 3.984375 4.140625 3.628906 4.140625 2.921875 C 4.140625 2.597656 4 2.289062 3.71875 2 C 3.4375 1.71875 3.140625 1.578125 2.828125 1.578125 L 0 1.578125 L 0 0.703125 L 3.484375 0.703125 C 4.066406 0.703125 4.492188 0.664062 4.765625 0.59375 L 4.765625 1.40625 C 4.597656 1.46875 4.414062 1.5 4.21875 1.5 C 4.40625 1.632812 4.5625 1.847656 4.6875 2.140625 C 4.820312 2.441406 4.890625 2.738281 4.890625 3.03125 C 4.890625 3.644531 4.628906 4.132812 4.109375 4.5 C 4.628906 5 4.890625 5.597656 4.890625 6.296875 C 4.890625 6.835938 4.679688 7.285156 4.265625 7.640625 C 3.847656 7.992188 3.304688 8.171875 2.640625 8.171875 Z M 0 8.171875 "/></g></g></g><g fill="#000000" fill-opacity="1"><g transform="translate(383.962534, 195.17805)"><g><path d="M 3.328125 2.78125 C 1.796875 2.78125 0.429688 2.226562 -0.765625 1.125 L -0.765625 0.171875 C 0.617188 1.328125 1.984375 1.90625 3.328125 1.90625 C 4.671875 1.90625 6.023438 1.320312 7.390625 0.15625 L 7.390625 1.109375 C 6.210938 2.222656 4.859375 2.78125 3.328125 2.78125 Z M 3.328125 2.78125 "/></g></g></g></g></g></g></svg>