<svg xmlns="http://www.w3.org/2000/svg" xmlns:xlink="http://www.w3.org/1999/xlink" width="559" zoomAndPan="magnify" viewBox="0 0 419.25 297.749993" height="397" preserveAspectRatio="xMidYMid meet" version="1.0"><defs><g/><clipPath id="10a62122d1"><path d="M 0 0.140625 L 418.5 0.140625 L 418.5 297.359375 L 0 297.359375 Z M 0 0.140625 " clip-rule="nonzero"/></clipPath><clipPath id="f8b74c5e9f"><path d="M 265 100 L 269.003906 100 L 269.003906 198 L 265 198 Z M 265 100 " clip-rule="nonzero"/></clipPath><clipPath id="67687ccc00"><path d="M 149.96875 100 L 154 100 L 154 198 L 149.96875 198 Z M 149.96875 100 " clip-rule="nonzero"/></clipPath><clipPath id="46ea91336e"><path d="M 160 89.273438 L 259 89.273438 L 259 93 L 160 93 Z M 160 89.273438 " clip-rule="nonzero"/></clipPath><clipPath id="5d5c2d4518"><path d="M 160 204 L 259 204 L 259 208.308594 L 160 208.308594 Z M 160 204 " clip-rule="nonzero"/></clipPath><clipPath id="8791bf4923"><path d="M 258 89.273438 L 269.003906 89.273438 L 269.003906 101 L 258 101 Z M 258 89.273438 " clip-rule="nonzero"/></clipPath><clipPath id="a1af7dc053"><path d="M 149.96875 89.273438 L 161 89.273438 L 161 101 L 149.96875 101 Z M 149.96875 89.273438 " clip-rule="nonzero"/></clipPath><clipPath id="b314df91cf"><path d="M 258 197 L 269.003906 197 L 269.003906 208.308594 L 258 208.308594 Z M 258 197 " clip-rule="nonzero"/></clipPath><clipPath id="a16104adaf"><path d="M 149.96875 197 L 161 197 L 161 208.308594 L 149.96875 208.308594 Z M 149.96875 197 " clip-rule="nonzero"/></clipPath><clipPath id="bfd99e774a"><path d="M 53.230469 66.988281 L 365.546875 66.988281 L 365.546875 230.398438 L 53.230469 230.398438 Z M 53.230469 66.988281 " clip-rule="nonzero"/></clipPath><clipPath id="81341deca7"><path d="M 0.230469 0.988281 L 312.546875 0.988281 L 312.546875 164.398438 L 0.230469 164.398438 Z M 0.230469 0.988281 " clip-rule="nonzero"/></clipPath><clipPath id="3cc06892c9"><rect x="0" width="313" y="0" height="165"/></clipPath><clipPath id="f803aa6aeb"><path d="M 53.230469 66.992188 L 365.421875 66.992188 L 365.421875 230.199219 L 53.230469 230.199219 Z M 53.230469 66.992188 " clip-rule="nonzero"/></clipPath></defs><g clip-path="url(#10a62122d1)"><path fill="#ffffff" d="M 0 0.140625 L 418.5 0.140625 L 418.5 297.359375 L 0 297.359375 Z M 0 0.140625 " fill-opacity="1" fill-rule="nonzero"/><path fill="#ffffff" d="M 0 0.140625 L 418.5 0.140625 L 418.5 297.359375 L 0 297.359375 Z M 0 0.140625 " fill-opacity="1" fill-rule="nonzero"/></g><g clip-path="url(#f8b74c5e9f)"><path fill="#ffffff" d="M 265.449219 100.179688 L 269.003906 100.179688 L 269.003906 197.402344 L 265.449219 197.402344 Z M 265.449219 100.179688 " fill-opacity="1" fill-rule="nonzero"/></g><g clip-path="url(#67687ccc00)"><path fill="#ffffff" d="M 149.96875 100.179688 L 153.523438 100.179688 L 153.523438 197.402344 L 149.96875 197.402344 Z M 149.96875 100.179688 " fill-opacity="1" fill-rule="nonzero"/></g><g clip-path="url(#46ea91336e)"><path fill="#ffffff" d="M 160.875 89.273438 L 258.097656 89.273438 L 258.097656 92.828125 L 160.875 92.828125 Z M 160.875 89.273438 " fill-opacity="1" fill-rule="nonzero"/></g><g clip-path="url(#5d5c2d4518)"><path fill="#ffffff" d="M 160.875 204.753906 L 258.097656 204.753906 L 258.097656 208.308594 L 160.875 208.308594 Z M 160.875 204.753906 " fill-opacity="1" fill-rule="nonzero"/></g><g clip-path="url(#8791bf4923)"><path fill="#ffffff" d="M 265.449219 92.828125 L 265.449219 100.179688 L 269.003906 100.179688 L 269.003906 89.273438 L 258.097656 89.273438 L 258.097656 92.828125 Z M 265.449219 92.828125 " fill-opacity="1" fill-rule="nonzero"/></g><g clip-path="url(#a1af7dc053)"><path fill="#ffffff" d="M 153.523438 92.828125 L 160.875 92.828125 L 160.875 89.273438 L 149.96875 89.273438 L 149.96875 100.179688 L 153.523438 100.179688 Z M 153.523438 92.828125 " fill-opacity="1" fill-rule="nonzero"/></g><g clip-path="url(#b314df91cf)"><path fill="#ffffff" d="M 265.449219 204.753906 L 258.097656 204.753906 L 258.097656 208.308594 L 269.003906 208.308594 L 269.003906 197.402344 L 265.449219 197.402344 Z M 265.449219 204.753906 " fill-opacity="1" fill-rule="nonzero"/></g><g clip-path="url(#a16104adaf)"><path fill="#ffffff" d="M 153.523438 204.753906 L 153.523438 197.402344 L 149.96875 197.402344 L 149.96875 208.308594 L 160.875 208.308594 L 160.875 204.753906 Z M 153.523438 204.753906 " fill-opacity="1" fill-rule="nonzero"/></g><g clip-path="url(#bfd99e774a)"><g transform="matrix(1, 0, 0, 1, 53, 66)"><g clip-path="url(#3cc06892c9)"><g clip-path="url(#81341deca7)"><path fill="#7ed957" d="M 0.230469 0.988281 L 312.367188 0.988281 L 312.367188 164.398438 L 0.230469 164.398438 Z M 0.230469 0.988281 " fill-opacity="1" fill-rule="nonzero"/></g></g></g></g><g clip-path="url(#f803aa6aeb)"><path stroke-linecap="butt" transform="matrix(0.748661, 0, 0, 0.748661, 53.230163, 66.991699)" fill="none" stroke-linejoin="miter" d="M 0.000408832 0.000651888 L 417.156807 0.000651888 L 417.156807 218.260202 L 0.000408832 218.260202 Z M 0.000408832 0.000651888 " stroke="#000000" stroke-width="8" stroke-opacity="1" stroke-miterlimit="4"/></g><g fill="#ffffff" fill-opacity="1"><g transform="translate(137.173742, 165.064531)"><g><path d="M 24.4375 -11.171875 C 24.4375 -7.679688 23.460938 -4.847656 21.515625 -2.671875 C 19.566406 -0.503906 16.976562 0.578125 13.75 0.578125 C 5.757812 0.578125 1.765625 -4.984375 1.765625 -16.109375 C 1.765625 -28.335938 5.875 -34.453125 14.09375 -34.453125 C 19.707031 -34.453125 22.960938 -31.609375 23.859375 -25.921875 L 19.703125 -25.640625 C 18.867188 -29.210938 16.898438 -31 13.796875 -31 C 11.117188 -31 9.15625 -29.757812 7.90625 -27.28125 C 6.65625 -24.8125 6.03125 -21.613281 6.03125 -17.6875 C 7.945312 -20.71875 10.710938 -22.234375 14.328125 -22.234375 C 17.328125 -22.234375 19.757812 -21.1875 21.625 -19.09375 C 23.5 -17 24.4375 -14.359375 24.4375 -11.171875 Z M 13.515625 -18.5 C 12.203125 -18.5 11.066406 -18.242188 10.109375 -17.734375 C 9.148438 -17.222656 8.4375 -16.554688 7.96875 -15.734375 C 7.507812 -14.921875 7.164062 -14.125 6.9375 -13.34375 C 6.71875 -12.5625 6.609375 -11.800781 6.609375 -11.0625 C 6.609375 -8.707031 7.265625 -6.753906 8.578125 -5.203125 C 9.890625 -3.648438 11.582031 -2.875 13.65625 -2.875 C 15.632812 -2.875 17.207031 -3.625 18.375 -5.125 C 19.539062 -6.625 20.125 -8.539062 20.125 -10.875 C 20.125 -13.59375 19.460938 -15.539062 18.140625 -16.71875 C 16.816406 -17.90625 15.273438 -18.5 13.515625 -18.5 Z M 13.515625 -18.5 "/></g></g></g><g fill="#ffffff" fill-opacity="1"><g transform="translate(163.814038, 165.064531)"><g/></g></g><g fill="#ffffff" fill-opacity="1"><g transform="translate(180.104867, 165.064531)"><g><path d="M 0.234375 0 L 13.515625 -17.921875 L 1.765625 -34.3125 L 7.1875 -34.3125 L 16.15625 -21.515625 C 16.15625 -21.515625 19.363281 -25.78125 25.78125 -34.3125 L 30.71875 -34.3125 L 18.640625 -18.15625 L 31.671875 0 L 26.0625 0 L 15.953125 -14.28125 L 5.65625 0 Z M 0.234375 0 "/></g></g></g><g fill="#ffffff" fill-opacity="1"><g transform="translate(212.015729, 165.064531)"><g/></g></g><g fill="#ffffff" fill-opacity="1"><g transform="translate(228.306559, 165.064531)"><g><path d="M 17.828125 0 L 13.65625 0 L 13.65625 -26.734375 C 11.445312 -24.597656 8.632812 -22.890625 5.21875 -21.609375 L 5.21875 -25.734375 C 10.144531 -27.972656 13.453125 -30.832031 15.140625 -34.3125 L 17.828125 -34.3125 Z M 17.828125 0 "/></g></g></g><g fill="#ffffff" fill-opacity="1"><g transform="translate(254.946855, 165.064531)"><g><path d="M 24.015625 -24.921875 C 24.015625 -23.222656 23.554688 -21.550781 22.640625 -19.90625 C 21.734375 -18.257812 20.566406 -16.75 19.140625 -15.375 C 17.722656 -14.007812 16.257812 -12.707031 14.75 -11.46875 C 13.25 -10.238281 11.78125 -8.960938 10.34375 -7.640625 C 8.90625 -6.316406 7.851562 -5.113281 7.1875 -4.03125 L 24.015625 -4.03125 L 24.015625 0 L 1.34375 0 C 1.34375 -1.59375 1.925781 -3.304688 3.09375 -5.140625 C 4.257812 -6.984375 5.519531 -8.523438 6.875 -9.765625 C 8.226562 -11.015625 9.757812 -12.359375 11.46875 -13.796875 C 13.1875 -15.234375 14.269531 -16.191406 14.71875 -16.671875 C 18.039062 -19.898438 19.703125 -22.695312 19.703125 -25.0625 C 19.703125 -26.820312 19.078125 -28.25 17.828125 -29.34375 C 16.578125 -30.445312 15.039062 -31 13.21875 -31 C 11.144531 -31 9.5 -30.382812 8.28125 -29.15625 C 7.070312 -27.925781 6.46875 -26.242188 6.46875 -24.109375 L 2.109375 -24.53125 C 2.710938 -31.144531 6.4375 -34.453125 13.28125 -34.453125 C 16.4375 -34.453125 19.015625 -33.585938 21.015625 -31.859375 C 23.015625 -30.140625 24.015625 -27.828125 24.015625 -24.921875 Z M 24.015625 -24.921875 "/></g></g></g><path stroke-linecap="butt" transform="matrix(0.748661, 0, 0, 0.748661, 29.710628, 29.103036)" fill="none" stroke-linejoin="miter" d="M 1.497879 0.999821 L 478.500731 0.999821 " stroke="#000000" stroke-width="2" stroke-opacity="1" stroke-miterlimit="4"/><path stroke-linecap="round" transform="matrix(0.748661, 0, 0, 0.748661, 29.710628, 29.103036)" fill="none" stroke-linejoin="round" d="M 1.002202 -2.000328 L 1.002202 3.99997 " stroke="#000000" stroke-width="2" stroke-opacity="1" stroke-miterlimit="4"/><path stroke-linecap="round" transform="matrix(0.748661, 0, 0, 0.748661, 29.710628, 29.103036)" fill="none" stroke-linejoin="round" d="M 479.001625 -2.000328 L 479.001625 3.99997 " stroke="#000000" stroke-width="2" stroke-opacity="1" stroke-miterlimit="4"/><path stroke-linecap="butt" transform="matrix(-0.00296436, -0.748655, 0.748655, -0.00296436, 29.333836, 243.23239)" fill="none" stroke-linejoin="miter" d="M 1.501301 1.000113 L 251.053059 1.002091 " stroke="#000000" stroke-width="2" stroke-opacity="1" stroke-miterlimit="4"/><path stroke-linecap="round" transform="matrix(-0.00296436, -0.748655, 0.748655, -0.00296436, 29.333836, 243.23239)" fill="none" stroke-linejoin="round" d="M 1.001854 -2.002037 L 0.998966 3.998297 " stroke="#000000" stroke-width="2" stroke-opacity="1" stroke-miterlimit="4"/><path stroke-linecap="round" transform="matrix(-0.00296436, -0.748655, 0.748655, -0.00296436, 29.333836, 243.23239)" fill="none" stroke-linejoin="round" d="M 251.555415 -2.00131 L 251.552526 3.999024 " stroke="#000000" stroke-width="2" stroke-opacity="1" stroke-miterlimit="4"/><g fill="#000000" fill-opacity="1"><g transform="translate(166.020683, 23.762585)"><g><path d="M 4.671875 -1.40625 C 4.671875 -0.394531 3.984375 0.109375 2.609375 0.109375 C 1.242188 0.109375 0.5625 -0.394531 0.5625 -1.40625 L 0.5625 -2.046875 C 0.5625 -2.492188 0.75 -2.8125 1.125 -3 C 0.695312 -3.289062 0.484375 -3.71875 0.484375 -4.28125 C 0.484375 -4.6875 0.597656 -5.019531 0.828125 -5.28125 C 1.054688 -5.550781 1.375 -5.6875 1.78125 -5.6875 C 2.050781 -5.6875 2.285156 -5.597656 2.484375 -5.421875 C 2.679688 -5.253906 2.78125 -5.03125 2.78125 -4.75 C 2.78125 -4.5 2.691406 -4.28125 2.515625 -4.09375 C 2.335938 -3.90625 2.101562 -3.8125 1.8125 -3.8125 C 1.664062 -3.8125 1.535156 -3.835938 1.421875 -3.890625 C 1.492188 -3.535156 1.660156 -3.359375 1.921875 -3.359375 L 2.921875 -3.359375 L 2.921875 -2.671875 L 1.921875 -2.671875 C 1.773438 -2.671875 1.65625 -2.601562 1.5625 -2.46875 C 1.46875 -2.34375 1.421875 -2.195312 1.421875 -2.03125 L 1.421875 -1.390625 C 1.421875 -0.878906 1.816406 -0.625 2.609375 -0.625 C 3.410156 -0.625 3.8125 -0.878906 3.8125 -1.390625 L 3.8125 -5.578125 L 4.671875 -5.578125 Z M 2.265625 -4.734375 C 2.265625 -4.867188 2.222656 -4.976562 2.140625 -5.0625 C 2.054688 -5.144531 1.945312 -5.1875 1.8125 -5.1875 C 1.6875 -5.1875 1.582031 -5.144531 1.5 -5.0625 C 1.414062 -4.976562 1.375 -4.867188 1.375 -4.734375 C 1.375 -4.609375 1.414062 -4.5 1.5 -4.40625 C 1.582031 -4.320312 1.6875 -4.28125 1.8125 -4.28125 C 1.945312 -4.28125 2.054688 -4.320312 2.140625 -4.40625 C 2.222656 -4.5 2.265625 -4.609375 2.265625 -4.734375 Z M 2.265625 -4.734375 "/></g></g></g><g fill="#000000" fill-opacity="1"><g transform="translate(171.41202, 23.762585)"><g><path d="M 3.984375 0 L 3.109375 0 L 3.109375 -4.0625 C 3.109375 -4.320312 3.019531 -4.53125 2.84375 -4.6875 C 2.664062 -4.851562 2.425781 -4.9375 2.125 -4.9375 C 1.8125 -4.9375 1.554688 -4.832031 1.359375 -4.625 C 1.171875 -4.425781 1.070312 -4.171875 1.0625 -3.859375 L 0.21875 -3.859375 C 0.25 -4.410156 0.429688 -4.851562 0.765625 -5.1875 C 1.109375 -5.519531 1.5625 -5.6875 2.125 -5.6875 C 2.644531 -5.6875 3.082031 -5.550781 3.4375 -5.28125 C 3.800781 -5.019531 3.984375 -4.617188 3.984375 -4.078125 Z M 3.984375 0 "/></g></g></g><g fill="#000000" fill-opacity="1"><g transform="translate(176.105006, 23.762585)"><g><path d="M 4.578125 -1.015625 C 4.578125 -0.691406 4.46875 -0.425781 4.25 -0.21875 C 4.039062 -0.0078125 3.78125 0.09375 3.46875 0.09375 C 3.164062 0.09375 2.910156 -0.00390625 2.703125 -0.203125 C 2.503906 -0.410156 2.40625 -0.660156 2.40625 -0.953125 C 2.40625 -1.242188 2.503906 -1.492188 2.703125 -1.703125 C 2.910156 -1.910156 3.164062 -2.015625 3.46875 -2.015625 C 3.570312 -2.015625 3.65625 -2.007812 3.71875 -2 L 3.71875 -4.046875 C 3.71875 -4.640625 3.289062 -4.9375 2.4375 -4.9375 C 2.082031 -4.9375 1.78125 -4.828125 1.53125 -4.609375 C 1.28125 -4.390625 1.15625 -4.101562 1.15625 -3.75 L 0.328125 -3.75 C 0.347656 -4.363281 0.546875 -4.835938 0.921875 -5.171875 C 1.304688 -5.515625 1.8125 -5.6875 2.4375 -5.6875 C 3.050781 -5.6875 3.539062 -5.566406 3.90625 -5.328125 C 4.351562 -5.035156 4.578125 -4.59375 4.578125 -4 Z M 3.9375 -0.96875 C 3.9375 -1.09375 3.890625 -1.203125 3.796875 -1.296875 C 3.703125 -1.390625 3.59375 -1.4375 3.46875 -1.4375 C 3.332031 -1.4375 3.21875 -1.390625 3.125 -1.296875 C 3.03125 -1.203125 2.984375 -1.09375 2.984375 -0.96875 C 2.984375 -0.832031 3.03125 -0.71875 3.125 -0.625 C 3.21875 -0.53125 3.332031 -0.484375 3.46875 -0.484375 C 3.59375 -0.484375 3.703125 -0.53125 3.796875 -0.625 C 3.890625 -0.71875 3.9375 -0.832031 3.9375 -0.96875 Z M 3.9375 -0.96875 "/></g></g></g><g fill="#000000" fill-opacity="1"><g transform="translate(181.39858, 23.762585)"><g><path d="M 2.265625 0.765625 C 1.160156 -0.367188 0.609375 -1.71875 0.609375 -3.28125 C 0.609375 -4.738281 1.144531 -6.113281 2.21875 -7.40625 L 3.25 -7.40625 C 2.070312 -6.113281 1.484375 -4.738281 1.484375 -3.28125 C 1.484375 -1.90625 2.066406 -0.554688 3.234375 0.765625 Z M 2.265625 0.765625 "/></g></g></g><g fill="#000000" fill-opacity="1"><g transform="translate(184.806576, 23.762585)"><g><path d="M 4.828125 0 L 0.703125 0 L 0.703125 -6.65625 L 1.578125 -6.65625 L 1.578125 -0.75 L 4.828125 -0.75 Z M 4.828125 0 "/></g></g></g><g fill="#000000" fill-opacity="1"><g transform="translate(189.820807, 23.762585)"><g><path d="M 2.78125 -3.328125 C 2.78125 -1.796875 2.226562 -0.429688 1.125 0.765625 L 0.171875 0.765625 C 1.328125 -0.617188 1.90625 -1.984375 1.90625 -3.328125 C 1.90625 -4.671875 1.320312 -6.03125 0.15625 -7.40625 L 1.125 -7.40625 C 2.226562 -6.21875 2.78125 -4.859375 2.78125 -3.328125 Z M 2.78125 -3.328125 "/></g></g></g><g fill="#000000" fill-opacity="1"><g transform="translate(193.228803, 23.762585)"><g/></g></g><g fill="#000000" fill-opacity="1"><g transform="translate(196.385388, 23.762585)"><g><path d="M 1.875 -0.546875 C 1.875 -0.359375 1.804688 -0.195312 1.671875 -0.0625 C 1.546875 0.0625 1.390625 0.125 1.203125 0.125 C 1.015625 0.125 0.851562 0.0625 0.71875 -0.0625 C 0.59375 -0.195312 0.53125 -0.359375 0.53125 -0.546875 C 0.53125 -0.734375 0.59375 -0.890625 0.71875 -1.015625 C 0.851562 -1.148438 1.015625 -1.21875 1.203125 -1.21875 C 1.390625 -1.21875 1.546875 -1.148438 1.671875 -1.015625 C 1.804688 -0.890625 1.875 -0.734375 1.875 -0.546875 Z M 1.875 -3.984375 C 1.875 -3.796875 1.804688 -3.632812 1.671875 -3.5 C 1.546875 -3.375 1.390625 -3.3125 1.203125 -3.3125 C 1.015625 -3.3125 0.851562 -3.375 0.71875 -3.5 C 0.59375 -3.632812 0.53125 -3.796875 0.53125 -3.984375 C 0.53125 -4.171875 0.59375 -4.328125 0.71875 -4.453125 C 0.851562 -4.585938 1.015625 -4.65625 1.203125 -4.65625 C 1.390625 -4.65625 1.546875 -4.585938 1.671875 -4.453125 C 1.804688 -4.328125 1.875 -4.171875 1.875 -3.984375 Z M 1.875 -3.984375 "/></g></g></g><g fill="#000000" fill-opacity="1"><g transform="translate(198.787748, 23.762585)"><g/></g></g><g fill="#000000" fill-opacity="1"><g transform="translate(201.944333, 23.762585)"><g><path d="M 2.75 0 L 1.84375 0 C 1.914062 -2.59375 2.570312 -4.554688 3.8125 -5.890625 L 0.390625 -5.890625 L 0.59375 -6.65625 L 4.9375 -6.65625 L 4.8125 -5.890625 C 4.101562 -4.992188 3.59375 -4.140625 3.28125 -3.328125 C 2.925781 -2.378906 2.75 -1.269531 2.75 0 Z M 2.75 0 "/></g></g></g><g fill="#000000" fill-opacity="1"><g transform="translate(207.223935, 23.762585)"><g><path d="M 1.875 -0.546875 C 1.875 -0.359375 1.804688 -0.195312 1.671875 -0.0625 C 1.546875 0.0625 1.390625 0.125 1.203125 0.125 C 1.015625 0.125 0.851562 0.0625 0.71875 -0.0625 C 0.59375 -0.195312 0.53125 -0.359375 0.53125 -0.546875 C 0.53125 -0.734375 0.59375 -0.890625 0.71875 -1.015625 C 0.851562 -1.148438 1.015625 -1.21875 1.203125 -1.21875 C 1.390625 -1.21875 1.546875 -1.148438 1.671875 -1.015625 C 1.804688 -0.890625 1.875 -0.734375 1.875 -0.546875 Z M 1.875 -0.546875 "/></g></g></g><g fill="#000000" fill-opacity="1"><g transform="translate(209.626295, 23.762585)"><g><path d="M 4.859375 0 L 0.328125 0 C 0.410156 -0.40625 0.492188 -0.738281 0.578125 -1 C 0.816406 -1.300781 1.554688 -2.03125 2.796875 -3.1875 C 3.554688 -3.90625 3.9375 -4.488281 3.9375 -4.9375 C 3.9375 -5.550781 3.570312 -5.859375 2.84375 -5.859375 C 2.132812 -5.859375 1.707031 -5.445312 1.5625 -4.625 L 0.734375 -4.828125 C 0.804688 -5.429688 1.039062 -5.894531 1.4375 -6.21875 C 1.8125 -6.519531 2.285156 -6.671875 2.859375 -6.671875 C 3.429688 -6.671875 3.898438 -6.503906 4.265625 -6.171875 C 4.640625 -5.835938 4.828125 -5.414062 4.828125 -4.90625 C 4.828125 -4.445312 4.585938 -3.929688 4.109375 -3.359375 C 3.804688 -3.003906 3.304688 -2.519531 2.609375 -1.90625 C 1.984375 -1.363281 1.601562 -0.988281 1.46875 -0.78125 L 5.03125 -0.78125 Z M 4.859375 0 "/></g></g></g><g fill="#000000" fill-opacity="1"><g transform="translate(214.905898, 23.762585)"><g/></g></g><g fill="#000000" fill-opacity="1"><g transform="translate(218.062482, 23.762585)"><g><path d="M 2.84375 -0.953125 C 2.84375 -0.648438 2.738281 -0.394531 2.53125 -0.1875 C 2.320312 0.0078125 2.070312 0.109375 1.78125 0.109375 C 1.46875 0.109375 1.203125 0.00390625 0.984375 -0.203125 C 0.773438 -0.421875 0.671875 -0.691406 0.671875 -1.015625 L 0.671875 -5.578125 L 1.53125 -5.578125 L 1.53125 -1.984375 C 1.582031 -2.003906 1.664062 -2.015625 1.78125 -2.015625 C 2.070312 -2.015625 2.320312 -1.910156 2.53125 -1.703125 C 2.738281 -1.492188 2.84375 -1.242188 2.84375 -0.953125 Z M 2.265625 -0.953125 C 2.265625 -1.078125 2.21875 -1.1875 2.125 -1.28125 C 2.03125 -1.375 1.914062 -1.421875 1.78125 -1.421875 C 1.65625 -1.421875 1.546875 -1.375 1.453125 -1.28125 C 1.359375 -1.1875 1.3125 -1.078125 1.3125 -0.953125 C 1.3125 -0.816406 1.359375 -0.703125 1.453125 -0.609375 C 1.546875 -0.515625 1.65625 -0.46875 1.78125 -0.46875 C 1.914062 -0.46875 2.03125 -0.515625 2.125 -0.609375 C 2.21875 -0.703125 2.265625 -0.816406 2.265625 -0.953125 Z M 2.265625 -0.953125 "/></g></g></g><g fill="#000000" fill-opacity="1"><g transform="translate(220.967666, 23.762585)"><g><path d="M 5.109375 0 L 4.25 0 C 3.707031 -0.476562 3.160156 -0.816406 2.609375 -1.015625 L 2.609375 -0.953125 C 2.609375 -0.648438 2.492188 -0.394531 2.265625 -0.1875 C 2.035156 0.0078125 1.78125 0.109375 1.5 0.109375 C 1.1875 0.109375 0.914062 0 0.6875 -0.21875 C 0.46875 -0.445312 0.359375 -0.710938 0.359375 -1.015625 C 0.359375 -1.328125 0.46875 -1.59375 0.6875 -1.8125 C 0.914062 -2.03125 1.1875 -2.140625 1.5 -2.140625 L 1.59375 -2.140625 L 1.59375 -3.59375 C 1.5 -3.570312 1.421875 -3.5625 1.359375 -3.5625 C 1.054688 -3.5625 0.800781 -3.664062 0.59375 -3.875 C 0.394531 -4.082031 0.296875 -4.335938 0.296875 -4.640625 C 0.296875 -4.929688 0.394531 -5.175781 0.59375 -5.375 C 0.800781 -5.582031 1.054688 -5.6875 1.359375 -5.6875 C 1.671875 -5.6875 1.929688 -5.578125 2.140625 -5.359375 C 2.347656 -5.148438 2.453125 -4.878906 2.453125 -4.546875 L 2.453125 -1.90625 C 3.191406 -1.644531 3.789062 -1.3125 4.25 -0.90625 L 4.25 -5.578125 L 5.109375 -5.578125 Z M 1.828125 -4.625 C 1.828125 -4.75 1.78125 -4.859375 1.6875 -4.953125 C 1.59375 -5.046875 1.484375 -5.09375 1.359375 -5.09375 C 1.222656 -5.09375 1.109375 -5.046875 1.015625 -4.953125 C 0.921875 -4.859375 0.875 -4.75 0.875 -4.625 C 0.875 -4.488281 0.921875 -4.375 1.015625 -4.28125 C 1.109375 -4.195312 1.222656 -4.15625 1.359375 -4.15625 C 1.484375 -4.15625 1.59375 -4.195312 1.6875 -4.28125 C 1.78125 -4.375 1.828125 -4.488281 1.828125 -4.625 Z M 1.96875 -1.015625 C 1.96875 -1.148438 1.921875 -1.265625 1.828125 -1.359375 C 1.734375 -1.453125 1.625 -1.5 1.5 -1.5 C 1.363281 -1.5 1.25 -1.453125 1.15625 -1.359375 C 1.0625 -1.265625 1.015625 -1.148438 1.015625 -1.015625 C 1.015625 -0.890625 1.0625 -0.78125 1.15625 -0.6875 C 1.25 -0.59375 1.363281 -0.546875 1.5 -0.546875 C 1.625 -0.546875 1.734375 -0.59375 1.828125 -0.6875 C 1.921875 -0.78125 1.96875 -0.890625 1.96875 -1.015625 Z M 1.96875 -1.015625 "/></g></g></g><g fill="#000000" fill-opacity="1"><g transform="translate(226.791994, 23.762585)"><g><path d="M 4.9375 0 L 4.078125 0 L 4.078125 -3.65625 C 4.078125 -4.25 3.914062 -4.675781 3.59375 -4.9375 L 2.71875 -4.3125 L 1.875 -4.9375 C 1.476562 -4.75 1.28125 -4.3125 1.28125 -3.625 C 1.28125 -3.394531 1.347656 -3.0625 1.484375 -2.625 C 1.617188 -2.1875 1.6875 -1.859375 1.6875 -1.640625 C 1.6875 -1.492188 1.660156 -1.34375 1.609375 -1.1875 C 1.660156 -1.320312 1.789062 -1.503906 2 -1.734375 C 2.21875 -1.960938 2.425781 -2.140625 2.625 -2.265625 C 2.375 -2.285156 2.175781 -2.382812 2.03125 -2.5625 C 1.882812 -2.738281 1.8125 -2.929688 1.8125 -3.140625 C 1.8125 -3.390625 1.894531 -3.601562 2.0625 -3.78125 C 2.238281 -3.957031 2.453125 -4.046875 2.703125 -4.046875 C 2.960938 -4.046875 3.179688 -3.957031 3.359375 -3.78125 C 3.535156 -3.601562 3.625 -3.390625 3.625 -3.140625 C 3.625 -2.742188 3.410156 -2.320312 2.984375 -1.875 C 2.429688 -1.28125 2.109375 -0.894531 2.015625 -0.71875 C 1.867188 -0.445312 1.796875 -0.207031 1.796875 0 L 0.921875 0 C 0.941406 -0.351562 0.953125 -0.710938 0.953125 -1.078125 C 0.953125 -1.453125 0.894531 -1.796875 0.78125 -2.109375 C 0.550781 -2.773438 0.4375 -3.28125 0.4375 -3.625 C 0.4375 -4.132812 0.5625 -4.570312 0.8125 -4.9375 C 1.070312 -5.3125 1.4375 -5.566406 1.90625 -5.703125 L 2.703125 -5.09375 L 3.453125 -5.703125 C 4.441406 -5.546875 4.9375 -4.875 4.9375 -3.6875 Z M 3.125 -3.15625 C 3.125 -3.28125 3.082031 -3.378906 3 -3.453125 C 2.925781 -3.535156 2.828125 -3.578125 2.703125 -3.578125 C 2.585938 -3.578125 2.488281 -3.535156 2.40625 -3.453125 C 2.332031 -3.378906 2.296875 -3.28125 2.296875 -3.15625 C 2.296875 -3.03125 2.332031 -2.925781 2.40625 -2.84375 C 2.488281 -2.769531 2.585938 -2.734375 2.703125 -2.734375 C 2.828125 -2.734375 2.925781 -2.769531 3 -2.84375 C 3.082031 -2.925781 3.125 -3.03125 3.125 -3.15625 Z M 3.125 -3.15625 "/></g></g></g><g fill="#000000" fill-opacity="1"><g transform="translate(232.448714, 23.762585)"><g><path d="M 3.78125 -0.9375 C 3.78125 -0.632812 3.675781 -0.382812 3.46875 -0.1875 C 3.257812 0.0078125 3.003906 0.109375 2.703125 0.109375 C 2.410156 0.109375 2.160156 0.0078125 1.953125 -0.1875 C 1.742188 -0.394531 1.640625 -0.648438 1.640625 -0.953125 C 1.640625 -1.242188 1.742188 -1.492188 1.953125 -1.703125 C 2.160156 -1.910156 2.410156 -2.015625 2.703125 -2.015625 C 2.816406 -2.015625 2.890625 -2.007812 2.921875 -2 L 2.921875 -3.203125 C 2.921875 -3.347656 2.609375 -3.492188 1.984375 -3.640625 C 1.367188 -3.785156 0.8125 -3.898438 0.3125 -3.984375 C 0.320312 -4.492188 0.453125 -4.90625 0.703125 -5.21875 C 0.960938 -5.53125 1.328125 -5.6875 1.796875 -5.6875 C 1.992188 -5.6875 2.257812 -5.640625 2.59375 -5.546875 C 2.9375 -5.460938 3.1875 -5.421875 3.34375 -5.421875 C 3.5 -5.421875 3.585938 -5.523438 3.609375 -5.734375 L 4.28125 -5.546875 C 4.113281 -4.972656 3.804688 -4.6875 3.359375 -4.6875 C 3.191406 -4.6875 2.953125 -4.726562 2.640625 -4.8125 C 2.328125 -4.894531 2.09375 -4.9375 1.9375 -4.9375 C 1.53125 -4.9375 1.300781 -4.78125 1.25 -4.46875 C 1.957031 -4.320312 2.554688 -4.164062 3.046875 -4 C 3.535156 -3.832031 3.78125 -3.539062 3.78125 -3.125 Z M 3.1875 -0.953125 C 3.1875 -1.078125 3.140625 -1.1875 3.046875 -1.28125 C 2.953125 -1.375 2.835938 -1.421875 2.703125 -1.421875 C 2.578125 -1.421875 2.46875 -1.375 2.375 -1.28125 C 2.28125 -1.1875 2.234375 -1.078125 2.234375 -0.953125 C 2.234375 -0.816406 2.28125 -0.703125 2.375 -0.609375 C 2.46875 -0.515625 2.578125 -0.46875 2.703125 -0.46875 C 2.835938 -0.46875 2.953125 -0.515625 3.046875 -0.609375 C 3.140625 -0.703125 3.1875 -0.816406 3.1875 -0.953125 Z M 3.1875 -0.953125 "/></g></g></g><g fill="#000000" fill-opacity="1"><g transform="translate(237.043925, 23.762585)"><g><path d="M 2.265625 0.765625 C 1.160156 -0.367188 0.609375 -1.71875 0.609375 -3.28125 C 0.609375 -4.738281 1.144531 -6.113281 2.21875 -7.40625 L 3.25 -7.40625 C 2.070312 -6.113281 1.484375 -4.738281 1.484375 -3.28125 C 1.484375 -1.90625 2.066406 -0.554688 3.234375 0.765625 Z M 2.265625 0.765625 "/></g></g></g><g fill="#000000" fill-opacity="1"><g transform="translate(240.451921, 23.762585)"><g><path d="M 8.1875 0 L 7.3125 0 L 7.3125 -2.625 C 7.3125 -3.050781 7.210938 -3.40625 7.015625 -3.6875 C 6.785156 -4 6.488281 -4.15625 6.125 -4.15625 C 5.820312 -4.15625 5.535156 -4.03125 5.265625 -3.78125 C 5.003906 -3.539062 4.875 -3.28125 4.875 -3 L 4.875 0 L 4 0 L 4 -2.859375 C 4 -3.722656 3.640625 -4.15625 2.921875 -4.15625 C 2.597656 -4.15625 2.289062 -4.007812 2 -3.71875 C 1.71875 -3.4375 1.578125 -3.140625 1.578125 -2.828125 L 1.578125 0 L 0.703125 0 L 0.703125 -3.484375 C 0.703125 -4.066406 0.664062 -4.492188 0.59375 -4.765625 L 1.40625 -4.765625 C 1.476562 -4.609375 1.515625 -4.425781 1.515625 -4.21875 C 1.640625 -4.40625 1.847656 -4.5625 2.140625 -4.6875 C 2.441406 -4.820312 2.738281 -4.890625 3.03125 -4.890625 C 3.644531 -4.890625 4.140625 -4.628906 4.515625 -4.109375 C 5.003906 -4.628906 5.597656 -4.890625 6.296875 -4.890625 C 6.847656 -4.890625 7.300781 -4.679688 7.65625 -4.265625 C 8.007812 -3.847656 8.1875 -3.304688 8.1875 -2.640625 Z M 8.1875 0 "/></g></g></g><g fill="#000000" fill-opacity="1"><g transform="translate(249.335059, 23.762585)"><g><path d="M 2.78125 -3.328125 C 2.78125 -1.796875 2.226562 -0.429688 1.125 0.765625 L 0.171875 0.765625 C 1.328125 -0.617188 1.90625 -1.984375 1.90625 -3.328125 C 1.90625 -4.671875 1.320312 -6.03125 0.15625 -7.40625 L 1.125 -7.40625 C 2.226562 -6.21875 2.78125 -4.859375 2.78125 -3.328125 Z M 2.78125 -3.328125 "/></g></g></g><g fill="#000000" fill-opacity="1"><g transform="translate(19.303797, 189.331294)"><g><path d="M 0 -4.078125 L 0 -3.328125 L -3.171875 -3.328125 C -3.503906 -3.328125 -3.765625 -3.226562 -3.953125 -3.03125 C -4.148438 -2.832031 -4.25 -2.566406 -4.25 -2.234375 C -4.25 -1.753906 -4.039062 -1.394531 -3.625 -1.15625 C -3.550781 -1.53125 -3.375 -1.796875 -3.09375 -1.953125 C -2.851562 -1.546875 -2.566406 -1.34375 -2.234375 -1.34375 L 0 -1.34375 L 0 -0.59375 L -2.28125 -0.59375 C -2.613281 -0.59375 -2.875 -0.757812 -3.0625 -1.09375 C -3.195312 -0.894531 -3.25 -0.648438 -3.21875 -0.359375 C -3.707031 -0.378906 -4.113281 -0.570312 -4.4375 -0.9375 C -4.726562 -1.269531 -4.875 -1.695312 -4.875 -2.21875 C -4.875 -2.789062 -4.71875 -3.242188 -4.40625 -3.578125 C -4.101562 -3.910156 -3.6875 -4.078125 -3.15625 -4.078125 Z M 0 -4.078125 "/></g></g></g><g fill="#000000" fill-opacity="1"><g transform="translate(19.303797, 184.647663)"><g><path d="M -0.875 -3.9375 C -0.59375 -3.9375 -0.363281 -3.84375 -0.1875 -3.65625 C -0.0078125 -3.46875 0.078125 -3.238281 0.078125 -2.96875 C 0.078125 -2.71875 -0.00390625 -2.503906 -0.171875 -2.328125 C -0.347656 -2.148438 -0.5625 -2.0625 -0.8125 -2.0625 C -1.070312 -2.0625 -1.285156 -2.148438 -1.453125 -2.328125 C -1.628906 -2.503906 -1.71875 -2.71875 -1.71875 -2.96875 C -1.71875 -3.0625 -1.71875 -3.132812 -1.71875 -3.1875 L -3.46875 -3.1875 C -3.988281 -3.1875 -4.25 -2.816406 -4.25 -2.078125 C -4.25 -1.773438 -4.148438 -1.519531 -3.953125 -1.3125 C -3.765625 -1.101562 -3.519531 -1 -3.21875 -1 L -3.21875 -0.28125 C -3.738281 -0.300781 -4.144531 -0.472656 -4.4375 -0.796875 C -4.726562 -1.117188 -4.875 -1.546875 -4.875 -2.078125 C -4.875 -2.609375 -4.769531 -3.035156 -4.5625 -3.359375 C -4.3125 -3.742188 -3.929688 -3.9375 -3.421875 -3.9375 Z M -0.828125 -3.375 C -0.941406 -3.375 -1.035156 -3.332031 -1.109375 -3.25 C -1.191406 -3.175781 -1.234375 -3.082031 -1.234375 -2.96875 C -1.234375 -2.851562 -1.191406 -2.753906 -1.109375 -2.671875 C -1.035156 -2.597656 -0.941406 -2.5625 -0.828125 -2.5625 C -0.710938 -2.5625 -0.613281 -2.597656 -0.53125 -2.671875 C -0.457031 -2.753906 -0.421875 -2.851562 -0.421875 -2.96875 C -0.421875 -3.082031 -0.457031 -3.175781 -0.53125 -3.25 C -0.613281 -3.332031 -0.710938 -3.375 -0.828125 -3.375 Z M -0.828125 -3.375 "/></g></g></g><g fill="#000000" fill-opacity="1"><g transform="translate(19.303797, 180.107777)"><g><path d="M -7.640625 -0.125 C -7.210938 -0.0390625 -6.851562 0.0703125 -6.5625 0.21875 C -6.28125 0.363281 -6.050781 0.546875 -5.875 0.765625 C -5.707031 0.992188 -5.585938 1.253906 -5.515625 1.546875 C -5.441406 1.847656 -5.40625 2.195312 -5.40625 2.59375 L -5.40625 2.984375 L -5.890625 2.984375 C -5.890625 2.828125 -5.941406 2.691406 -6.046875 2.578125 C -6.148438 2.472656 -6.253906 2.398438 -6.359375 2.359375 C -6.390625 2.554688 -6.476562 2.710938 -6.625 2.828125 C -6.769531 2.953125 -6.945312 3.015625 -7.15625 3.015625 C -7.375 3.015625 -7.550781 2.9375 -7.6875 2.78125 C -7.832031 2.625 -7.90625 2.441406 -7.90625 2.234375 C -7.90625 1.992188 -7.828125 1.804688 -7.671875 1.671875 C -7.523438 1.535156 -7.335938 1.46875 -7.109375 1.46875 C -6.878906 1.46875 -6.65625 1.519531 -6.4375 1.625 C -6.21875 1.738281 -6.050781 1.859375 -5.9375 1.984375 C -6.007812 1.578125 -6.203125 1.25 -6.515625 1 C -6.828125 0.75 -7.203125 0.613281 -7.640625 0.59375 Z M -7.125 1.921875 C -7.21875 1.921875 -7.289062 1.953125 -7.34375 2.015625 C -7.40625 2.078125 -7.4375 2.148438 -7.4375 2.234375 C -7.4375 2.328125 -7.40625 2.398438 -7.34375 2.453125 C -7.289062 2.515625 -7.21875 2.546875 -7.125 2.546875 C -7.039062 2.546875 -6.96875 2.515625 -6.90625 2.453125 C -6.84375 2.398438 -6.8125 2.328125 -6.8125 2.234375 C -6.8125 2.148438 -6.84375 2.078125 -6.90625 2.015625 C -6.96875 1.953125 -7.039062 1.921875 -7.125 1.921875 Z M -7.125 1.921875 "/></g></g></g><g fill="#000000" fill-opacity="1"><g transform="translate(19.303797, 180.107777)"><g><path d="M 0 -3.421875 L 0 -2.671875 L -3.484375 -2.671875 C -3.710938 -2.671875 -3.894531 -2.59375 -4.03125 -2.4375 C -4.175781 -2.289062 -4.25 -2.085938 -4.25 -1.828125 C -4.25 -1.554688 -4.160156 -1.335938 -3.984375 -1.171875 C -3.804688 -1.003906 -3.582031 -0.914062 -3.3125 -0.90625 L -3.3125 -0.1875 C -3.789062 -0.21875 -4.171875 -0.378906 -4.453125 -0.671875 C -4.734375 -0.960938 -4.875 -1.347656 -4.875 -1.828125 C -4.875 -2.273438 -4.757812 -2.648438 -4.53125 -2.953125 C -4.300781 -3.265625 -3.957031 -3.421875 -3.5 -3.421875 Z M 0 -3.421875 "/></g></g></g><g fill="#000000" fill-opacity="1"><g transform="translate(19.303797, 176.082972)"><g><path d="M 0 -3.203125 L 0 -2.46875 L -2.53125 -0.234375 L -3.046875 -0.671875 L -1.03125 -2.453125 L -3.09375 -2.453125 C -3.082031 -2.429688 -3.078125 -2.359375 -3.078125 -2.234375 C -3.078125 -1.984375 -3.160156 -1.769531 -3.328125 -1.59375 C -3.492188 -1.425781 -3.703125 -1.34375 -3.953125 -1.34375 C -4.210938 -1.34375 -4.429688 -1.429688 -4.609375 -1.609375 C -4.785156 -1.785156 -4.875 -1.992188 -4.875 -2.234375 C -4.875 -2.515625 -4.785156 -2.742188 -4.609375 -2.921875 C -4.429688 -3.109375 -4.195312 -3.203125 -3.90625 -3.203125 Z M -3.984375 -2.640625 C -4.085938 -2.640625 -4.179688 -2.597656 -4.265625 -2.515625 C -4.347656 -2.429688 -4.390625 -2.335938 -4.390625 -2.234375 C -4.390625 -2.117188 -4.347656 -2.019531 -4.265625 -1.9375 C -4.179688 -1.863281 -4.085938 -1.828125 -3.984375 -1.828125 C -3.867188 -1.828125 -3.769531 -1.863281 -3.6875 -1.9375 C -3.613281 -2.019531 -3.578125 -2.117188 -3.578125 -2.234375 C -3.578125 -2.335938 -3.613281 -2.429688 -3.6875 -2.515625 C -3.769531 -2.597656 -3.867188 -2.640625 -3.984375 -2.640625 Z M -3.984375 -2.640625 "/></g></g></g><g fill="#000000" fill-opacity="1"><g transform="translate(19.303797, 172.273777)"><g><path d="M 0.65625 -1.9375 C -0.3125 -1 -1.46875 -0.53125 -2.8125 -0.53125 C -4.070312 -0.53125 -5.253906 -0.988281 -6.359375 -1.90625 L -6.359375 -2.796875 C -5.242188 -1.773438 -4.0625 -1.265625 -2.8125 -1.265625 C -1.632812 -1.265625 -0.476562 -1.769531 0.65625 -2.78125 Z M 0.65625 -1.9375 "/></g></g></g><g fill="#000000" fill-opacity="1"><g transform="translate(19.303797, 169.351)"><g><path d="M 0 -5.796875 L 0 -5.109375 L -4.65625 -3.671875 L 0 -2.234375 L 0 -1.53125 L -5.703125 0.046875 L -5.703125 -0.78125 L -1.15625 -1.890625 L -5.703125 -3.3125 L -5.703125 -4.03125 L -1.15625 -5.4375 L -5.703125 -6.5625 L -5.703125 -7.375 Z M 0 -5.796875 "/></g></g></g><g fill="#000000" fill-opacity="1"><g transform="translate(19.303797, 162.020098)"><g><path d="M -2.859375 -2.390625 C -1.546875 -2.390625 -0.375 -1.914062 0.65625 -0.96875 L 0.65625 -0.140625 C -0.53125 -1.140625 -1.703125 -1.640625 -2.859375 -1.640625 C -4.015625 -1.640625 -5.179688 -1.132812 -6.359375 -0.125 L -6.359375 -0.953125 C -5.335938 -1.910156 -4.171875 -2.390625 -2.859375 -2.390625 Z M -2.859375 -2.390625 "/></g></g></g><g fill="#000000" fill-opacity="1"><g transform="translate(19.303797, 159.097321)"><g/></g></g><g fill="#000000" fill-opacity="1"><g transform="translate(19.303797, 156.390155)"><g><path d="M -0.46875 -1.609375 C -0.3125 -1.609375 -0.175781 -1.550781 -0.0625 -1.4375 C 0.0507812 -1.320312 0.109375 -1.1875 0.109375 -1.03125 C 0.109375 -0.875 0.0507812 -0.738281 -0.0625 -0.625 C -0.175781 -0.507812 -0.3125 -0.453125 -0.46875 -0.453125 C -0.625 -0.453125 -0.757812 -0.507812 -0.875 -0.625 C -0.988281 -0.738281 -1.046875 -0.875 -1.046875 -1.03125 C -1.046875 -1.1875 -0.988281 -1.320312 -0.875 -1.4375 C -0.757812 -1.550781 -0.625 -1.609375 -0.46875 -1.609375 Z M -3.421875 -1.609375 C -3.253906 -1.609375 -3.113281 -1.550781 -3 -1.4375 C -2.894531 -1.320312 -2.84375 -1.1875 -2.84375 -1.03125 C -2.84375 -0.875 -2.894531 -0.738281 -3 -0.625 C -3.113281 -0.507812 -3.253906 -0.453125 -3.421875 -0.453125 C -3.578125 -0.453125 -3.707031 -0.507812 -3.8125 -0.625 C -3.925781 -0.738281 -3.984375 -0.875 -3.984375 -1.03125 C -3.984375 -1.1875 -3.925781 -1.320312 -3.8125 -1.4375 C -3.707031 -1.550781 -3.578125 -1.609375 -3.421875 -1.609375 Z M -3.421875 -1.609375 "/></g></g></g><g fill="#000000" fill-opacity="1"><g transform="translate(19.303797, 154.329842)"><g/></g></g><g fill="#000000" fill-opacity="1"><g transform="translate(19.303797, 151.622675)"><g><path d="M -2.015625 -4.140625 C -1.390625 -4.140625 -0.878906 -3.921875 -0.484375 -3.484375 C -0.0976562 -3.046875 0.09375 -2.476562 0.09375 -1.78125 C 0.09375 -1.195312 -0.078125 -0.707031 -0.421875 -0.3125 L -0.96875 -0.640625 C -0.6875 -1.085938 -0.546875 -1.5 -0.546875 -1.875 C -0.546875 -2.289062 -0.679688 -2.644531 -0.953125 -2.9375 C -1.234375 -3.226562 -1.582031 -3.375 -2 -3.375 C -2.34375 -3.375 -2.609375 -3.257812 -2.796875 -3.03125 C -2.984375 -2.8125 -3.078125 -2.515625 -3.078125 -2.140625 C -3.078125 -1.765625 -2.945312 -1.523438 -2.6875 -1.421875 L -2.65625 -0.9375 L -5.703125 -1.140625 L -5.703125 -3.984375 L -5.0625 -3.859375 L -5.0625 -1.875 L -3.671875 -1.78125 C -3.734375 -1.925781 -3.765625 -2.097656 -3.765625 -2.296875 C -3.765625 -2.828125 -3.597656 -3.265625 -3.265625 -3.609375 C -2.941406 -3.960938 -2.523438 -4.140625 -2.015625 -4.140625 Z M -2.015625 -4.140625 "/></g></g></g><g fill="#000000" fill-opacity="1"><g transform="translate(19.303797, 147.094761)"><g><path d="M -0.46875 -1.609375 C -0.3125 -1.609375 -0.175781 -1.550781 -0.0625 -1.4375 C 0.0507812 -1.320312 0.109375 -1.1875 0.109375 -1.03125 C 0.109375 -0.875 0.0507812 -0.738281 -0.0625 -0.625 C -0.175781 -0.507812 -0.3125 -0.453125 -0.46875 -0.453125 C -0.625 -0.453125 -0.757812 -0.507812 -0.875 -0.625 C -0.988281 -0.738281 -1.046875 -0.875 -1.046875 -1.03125 C -1.046875 -1.1875 -0.988281 -1.320312 -0.875 -1.4375 C -0.757812 -1.550781 -0.625 -1.609375 -0.46875 -1.609375 Z M -0.46875 -1.609375 "/></g></g></g><g fill="#000000" fill-opacity="1"><g transform="translate(19.303797, 145.034447)"><g><path d="M -1.984375 -4.140625 C -1.359375 -4.140625 -0.851562 -3.914062 -0.46875 -3.46875 C -0.09375 -3.019531 0.09375 -2.4375 0.09375 -1.71875 C 0.09375 -1.175781 -0.0703125 -0.707031 -0.40625 -0.3125 L -1.015625 -0.640625 C -0.765625 -1.003906 -0.640625 -1.40625 -0.640625 -1.84375 C -0.640625 -2.257812 -0.769531 -2.617188 -1.03125 -2.921875 C -1.289062 -3.222656 -1.597656 -3.375 -1.953125 -3.375 C -2.210938 -3.375 -2.425781 -3.289062 -2.59375 -3.125 C -2.769531 -2.96875 -2.859375 -2.765625 -2.859375 -2.515625 C -2.859375 -2.222656 -2.742188 -1.941406 -2.515625 -1.671875 L -3.046875 -1.34375 C -3.265625 -1.726562 -3.515625 -2.078125 -3.796875 -2.390625 C -4.128906 -2.742188 -4.398438 -2.921875 -4.609375 -2.921875 C -4.921875 -2.921875 -5.078125 -2.703125 -5.078125 -2.265625 C -5.078125 -1.972656 -4.984375 -1.707031 -4.796875 -1.46875 C -4.617188 -1.226562 -4.40625 -1.054688 -4.15625 -0.953125 L -4.4375 -0.40625 C -4.832031 -0.5625 -5.144531 -0.804688 -5.375 -1.140625 C -5.613281 -1.484375 -5.734375 -1.867188 -5.734375 -2.296875 C -5.734375 -2.679688 -5.628906 -3 -5.421875 -3.25 C -5.222656 -3.507812 -4.957031 -3.640625 -4.625 -3.640625 C -4.300781 -3.640625 -3.925781 -3.394531 -3.5 -2.90625 C -3.425781 -3.28125 -3.253906 -3.578125 -2.984375 -3.796875 C -2.710938 -4.023438 -2.378906 -4.140625 -1.984375 -4.140625 Z M -1.984375 -4.140625 "/></g></g></g><g fill="#000000" fill-opacity="1"><g transform="translate(19.303797, 140.506533)"><g/></g></g><g fill="#000000" fill-opacity="1"><g transform="translate(19.303797, 137.799367)"><g><path d="M -0.8125 -2.4375 C -0.5625 -2.4375 -0.347656 -2.347656 -0.171875 -2.171875 C 0.00390625 -1.992188 0.09375 -1.78125 0.09375 -1.53125 C 0.09375 -1.257812 0.00390625 -1.03125 -0.171875 -0.84375 C -0.359375 -0.664062 -0.59375 -0.578125 -0.875 -0.578125 L -4.78125 -0.578125 L -4.78125 -1.3125 L -1.703125 -1.3125 C -1.710938 -1.351562 -1.71875 -1.425781 -1.71875 -1.53125 C -1.71875 -1.78125 -1.628906 -1.992188 -1.453125 -2.171875 C -1.285156 -2.347656 -1.070312 -2.4375 -0.8125 -2.4375 Z M -0.8125 -1.9375 C -0.925781 -1.9375 -1.019531 -1.894531 -1.09375 -1.8125 C -1.175781 -1.738281 -1.21875 -1.644531 -1.21875 -1.53125 C -1.21875 -1.414062 -1.175781 -1.316406 -1.09375 -1.234375 C -1.019531 -1.160156 -0.925781 -1.125 -0.8125 -1.125 C -0.695312 -1.125 -0.597656 -1.160156 -0.515625 -1.234375 C -0.441406 -1.316406 -0.40625 -1.414062 -0.40625 -1.53125 C -0.40625 -1.644531 -0.441406 -1.738281 -0.515625 -1.8125 C -0.597656 -1.894531 -0.695312 -1.9375 -0.8125 -1.9375 Z M -0.8125 -1.9375 "/></g></g></g><g fill="#000000" fill-opacity="1"><g transform="translate(19.303797, 135.307822)"><g><path d="M 0 -4.390625 L 0 -3.640625 C -0.414062 -3.179688 -0.707031 -2.710938 -0.875 -2.234375 L -0.8125 -2.234375 C -0.5625 -2.234375 -0.347656 -2.132812 -0.171875 -1.9375 C 0.00390625 -1.75 0.09375 -1.53125 0.09375 -1.28125 C 0.09375 -1.019531 0 -0.789062 -0.1875 -0.59375 C -0.382812 -0.40625 -0.613281 -0.3125 -0.875 -0.3125 C -1.132812 -0.3125 -1.359375 -0.40625 -1.546875 -0.59375 C -1.734375 -0.789062 -1.828125 -1.019531 -1.828125 -1.28125 L -1.828125 -1.359375 L -3.078125 -1.359375 C -3.066406 -1.285156 -3.0625 -1.21875 -3.0625 -1.15625 C -3.0625 -0.90625 -3.148438 -0.691406 -3.328125 -0.515625 C -3.503906 -0.335938 -3.722656 -0.25 -3.984375 -0.25 C -4.222656 -0.25 -4.429688 -0.335938 -4.609375 -0.515625 C -4.785156 -0.691406 -4.875 -0.90625 -4.875 -1.15625 C -4.875 -1.425781 -4.78125 -1.648438 -4.59375 -1.828125 C -4.414062 -2.015625 -4.1875 -2.109375 -3.90625 -2.109375 L -1.625 -2.109375 C -1.414062 -2.742188 -1.132812 -3.253906 -0.78125 -3.640625 L -4.78125 -3.640625 L -4.78125 -4.390625 Z M -3.96875 -1.5625 C -4.082031 -1.5625 -4.175781 -1.519531 -4.25 -1.4375 C -4.332031 -1.363281 -4.375 -1.269531 -4.375 -1.15625 C -4.375 -1.050781 -4.332031 -0.957031 -4.25 -0.875 C -4.175781 -0.789062 -4.082031 -0.75 -3.96875 -0.75 C -3.851562 -0.75 -3.753906 -0.789062 -3.671875 -0.875 C -3.597656 -0.957031 -3.5625 -1.050781 -3.5625 -1.15625 C -3.5625 -1.269531 -3.597656 -1.363281 -3.671875 -1.4375 C -3.753906 -1.519531 -3.851562 -1.5625 -3.96875 -1.5625 Z M -0.875 -1.6875 C -0.988281 -1.6875 -1.082031 -1.644531 -1.15625 -1.5625 C -1.238281 -1.488281 -1.28125 -1.394531 -1.28125 -1.28125 C -1.28125 -1.164062 -1.238281 -1.066406 -1.15625 -0.984375 C -1.082031 -0.910156 -0.988281 -0.875 -0.875 -0.875 C -0.757812 -0.875 -0.660156 -0.910156 -0.578125 -0.984375 C -0.503906 -1.066406 -0.46875 -1.164062 -0.46875 -1.28125 C -0.46875 -1.394531 -0.503906 -1.488281 -0.578125 -1.5625 C -0.660156 -1.644531 -0.757812 -1.6875 -0.875 -1.6875 Z M -0.875 -1.6875 "/></g></g></g><g fill="#000000" fill-opacity="1"><g transform="translate(19.303797, 130.312748)"><g><path d="M 0 -4.25 L 0 -3.5 L -3.140625 -3.5 C -3.648438 -3.5 -4.019531 -3.359375 -4.25 -3.078125 L -3.703125 -2.34375 L -4.25 -1.609375 C -4.070312 -1.273438 -3.691406 -1.109375 -3.109375 -1.109375 C -2.910156 -1.109375 -2.625 -1.164062 -2.25 -1.28125 C -1.875 -1.394531 -1.597656 -1.453125 -1.421875 -1.453125 C -1.285156 -1.453125 -1.148438 -1.425781 -1.015625 -1.375 C -1.128906 -1.425781 -1.285156 -1.539062 -1.484375 -1.71875 C -1.679688 -1.90625 -1.832031 -2.082031 -1.9375 -2.25 C -1.957031 -2.03125 -2.039062 -1.859375 -2.1875 -1.734375 C -2.34375 -1.617188 -2.515625 -1.5625 -2.703125 -1.5625 C -2.910156 -1.5625 -3.085938 -1.632812 -3.234375 -1.78125 C -3.390625 -1.925781 -3.46875 -2.109375 -3.46875 -2.328125 C -3.46875 -2.546875 -3.390625 -2.726562 -3.234375 -2.875 C -3.085938 -3.03125 -2.910156 -3.109375 -2.703125 -3.109375 C -2.359375 -3.109375 -1.992188 -2.925781 -1.609375 -2.5625 C -1.097656 -2.082031 -0.765625 -1.800781 -0.609375 -1.71875 C -0.378906 -1.601562 -0.175781 -1.546875 0 -1.546875 L 0 -0.796875 C -0.300781 -0.804688 -0.609375 -0.8125 -0.921875 -0.8125 C -1.242188 -0.8125 -1.539062 -0.765625 -1.8125 -0.671875 C -2.382812 -0.472656 -2.816406 -0.375 -3.109375 -0.375 C -3.546875 -0.375 -3.921875 -0.484375 -4.234375 -0.703125 C -4.554688 -0.921875 -4.773438 -1.234375 -4.890625 -1.640625 L -4.375 -2.328125 L -4.890625 -2.953125 C -4.765625 -3.816406 -4.1875 -4.25 -3.15625 -4.25 Z M -2.703125 -2.6875 C -2.804688 -2.6875 -2.890625 -2.648438 -2.953125 -2.578125 C -3.023438 -2.515625 -3.0625 -2.429688 -3.0625 -2.328125 C -3.0625 -2.222656 -3.023438 -2.132812 -2.953125 -2.0625 C -2.890625 -2 -2.804688 -1.96875 -2.703125 -1.96875 C -2.597656 -1.96875 -2.507812 -2 -2.4375 -2.0625 C -2.375 -2.132812 -2.34375 -2.222656 -2.34375 -2.328125 C -2.34375 -2.429688 -2.375 -2.515625 -2.4375 -2.578125 C -2.507812 -2.648438 -2.597656 -2.6875 -2.703125 -2.6875 Z M -2.703125 -2.6875 "/></g></g></g><g fill="#000000" fill-opacity="1"><g transform="translate(19.303797, 125.461419)"><g><path d="M -0.796875 -3.25 C -0.546875 -3.25 -0.332031 -3.15625 -0.15625 -2.96875 C 0.0078125 -2.789062 0.09375 -2.578125 0.09375 -2.328125 C 0.09375 -2.066406 0.00390625 -1.847656 -0.171875 -1.671875 C -0.347656 -1.492188 -0.5625 -1.40625 -0.8125 -1.40625 C -1.070312 -1.40625 -1.285156 -1.492188 -1.453125 -1.671875 C -1.628906 -1.847656 -1.71875 -2.066406 -1.71875 -2.328125 C -1.71875 -2.421875 -1.71875 -2.476562 -1.71875 -2.5 L -2.75 -2.5 C -2.875 -2.5 -3 -2.234375 -3.125 -1.703125 C -3.25 -1.171875 -3.347656 -0.691406 -3.421875 -0.265625 C -3.859375 -0.273438 -4.207031 -0.390625 -4.46875 -0.609375 C -4.738281 -0.828125 -4.875 -1.140625 -4.875 -1.546875 C -4.875 -1.710938 -4.835938 -1.941406 -4.765625 -2.234375 C -4.691406 -2.523438 -4.65625 -2.734375 -4.65625 -2.859375 C -4.65625 -2.992188 -4.738281 -3.070312 -4.90625 -3.09375 L -4.75 -3.671875 C -4.269531 -3.535156 -4.03125 -3.273438 -4.03125 -2.890625 C -4.03125 -2.742188 -4.066406 -2.535156 -4.140625 -2.265625 C -4.210938 -2.003906 -4.25 -1.804688 -4.25 -1.671875 C -4.25 -1.316406 -4.109375 -1.113281 -3.828125 -1.0625 C -3.703125 -1.675781 -3.566406 -2.191406 -3.421875 -2.609375 C -3.285156 -3.035156 -3.039062 -3.25 -2.6875 -3.25 Z M -0.8125 -2.734375 C -0.925781 -2.734375 -1.019531 -2.691406 -1.09375 -2.609375 C -1.175781 -2.535156 -1.21875 -2.441406 -1.21875 -2.328125 C -1.21875 -2.210938 -1.175781 -2.113281 -1.09375 -2.03125 C -1.019531 -1.957031 -0.925781 -1.921875 -0.8125 -1.921875 C -0.695312 -1.921875 -0.597656 -1.957031 -0.515625 -2.03125 C -0.441406 -2.113281 -0.40625 -2.210938 -0.40625 -2.328125 C -0.40625 -2.441406 -0.441406 -2.535156 -0.515625 -2.609375 C -0.597656 -2.691406 -0.695312 -2.734375 -0.8125 -2.734375 Z M -0.8125 -2.734375 "/></g></g></g><g fill="#000000" fill-opacity="1"><g transform="translate(19.303797, 121.520463)"><g><path d="M 0.65625 -1.9375 C -0.3125 -1 -1.46875 -0.53125 -2.8125 -0.53125 C -4.070312 -0.53125 -5.253906 -0.988281 -6.359375 -1.90625 L -6.359375 -2.796875 C -5.242188 -1.773438 -4.0625 -1.265625 -2.8125 -1.265625 C -1.632812 -1.265625 -0.476562 -1.769531 0.65625 -2.78125 Z M 0.65625 -1.9375 "/></g></g></g><g fill="#000000" fill-opacity="1"><g transform="translate(19.303797, 118.597687)"><g><path d="M 0 -7.015625 L 0 -6.265625 L -2.25 -6.265625 C -2.613281 -6.265625 -2.914062 -6.179688 -3.15625 -6.015625 C -3.425781 -5.828125 -3.5625 -5.578125 -3.5625 -5.265625 C -3.5625 -4.992188 -3.457031 -4.742188 -3.25 -4.515625 C -3.039062 -4.296875 -2.816406 -4.1875 -2.578125 -4.1875 L 0 -4.1875 L 0 -3.421875 L -2.453125 -3.421875 C -3.191406 -3.421875 -3.5625 -3.113281 -3.5625 -2.5 C -3.5625 -2.226562 -3.4375 -1.96875 -3.1875 -1.71875 C -2.945312 -1.476562 -2.695312 -1.359375 -2.4375 -1.359375 L 0 -1.359375 L 0 -0.59375 L -3 -0.59375 C -3.488281 -0.59375 -3.851562 -0.5625 -4.09375 -0.5 L -4.09375 -1.203125 C -3.957031 -1.265625 -3.800781 -1.296875 -3.625 -1.296875 C -3.78125 -1.410156 -3.910156 -1.59375 -4.015625 -1.84375 C -4.128906 -2.101562 -4.1875 -2.351562 -4.1875 -2.59375 C -4.1875 -3.125 -3.960938 -3.550781 -3.515625 -3.875 C -3.960938 -4.289062 -4.1875 -4.800781 -4.1875 -5.40625 C -4.1875 -5.875 -4.007812 -6.257812 -3.65625 -6.5625 C -3.300781 -6.863281 -2.835938 -7.015625 -2.265625 -7.015625 Z M 0 -7.015625 "/></g></g></g><g fill="#000000" fill-opacity="1"><g transform="translate(19.303797, 110.979297)"><g><path d="M -2.859375 -2.390625 C -1.546875 -2.390625 -0.375 -1.914062 0.65625 -0.96875 L 0.65625 -0.140625 C -0.53125 -1.140625 -1.703125 -1.640625 -2.859375 -1.640625 C -4.015625 -1.640625 -5.179688 -1.132812 -6.359375 -0.125 L -6.359375 -0.953125 C -5.335938 -1.910156 -4.171875 -2.390625 -2.859375 -2.390625 Z M -2.859375 -2.390625 "/></g></g></g><path stroke-linecap="butt" transform="matrix(0.748661, 0, 0, 0.748661, 53.230163, 59.187994)" fill="none" stroke-linejoin="miter" d="M 1.497875 1.00113 L 415.669776 1.00113 " stroke="#000000" stroke-width="2" stroke-opacity="1" stroke-miterlimit="4"/><path stroke-linecap="round" transform="matrix(0.748661, 0, 0, 0.748661, 53.230163, 59.187994)" fill="none" stroke-linejoin="round" d="M 1.002198 -1.999019 L 1.002198 4.001279 " stroke="#000000" stroke-width="2" stroke-opacity="1" stroke-miterlimit="4"/><path stroke-linecap="round" transform="matrix(0.748661, 0, 0, 0.748661, 53.230163, 59.187994)" fill="none" stroke-linejoin="round" d="M 416.170671 -1.999019 L 416.170671 4.001279 " stroke="#000000" stroke-width="2" stroke-opacity="1" stroke-miterlimit="4"/><g fill="#000000" fill-opacity="1"><g transform="translate(163.376974, 56.402521)"><g><path d="M 4.671875 -1.40625 C 4.671875 -0.394531 3.984375 0.109375 2.609375 0.109375 C 1.242188 0.109375 0.5625 -0.394531 0.5625 -1.40625 L 0.5625 -2.046875 C 0.5625 -2.492188 0.75 -2.8125 1.125 -3 C 0.695312 -3.289062 0.484375 -3.71875 0.484375 -4.28125 C 0.484375 -4.6875 0.597656 -5.019531 0.828125 -5.28125 C 1.054688 -5.550781 1.375 -5.6875 1.78125 -5.6875 C 2.050781 -5.6875 2.285156 -5.597656 2.484375 -5.421875 C 2.679688 -5.253906 2.78125 -5.03125 2.78125 -4.75 C 2.78125 -4.5 2.691406 -4.28125 2.515625 -4.09375 C 2.335938 -3.90625 2.101562 -3.8125 1.8125 -3.8125 C 1.664062 -3.8125 1.535156 -3.835938 1.421875 -3.890625 C 1.492188 -3.535156 1.660156 -3.359375 1.921875 -3.359375 L 2.921875 -3.359375 L 2.921875 -2.671875 L 1.921875 -2.671875 C 1.773438 -2.671875 1.65625 -2.601562 1.5625 -2.46875 C 1.46875 -2.34375 1.421875 -2.195312 1.421875 -2.03125 L 1.421875 -1.390625 C 1.421875 -0.878906 1.816406 -0.625 2.609375 -0.625 C 3.410156 -0.625 3.8125 -0.878906 3.8125 -1.390625 L 3.8125 -5.578125 L 4.671875 -5.578125 Z M 2.265625 -4.734375 C 2.265625 -4.867188 2.222656 -4.976562 2.140625 -5.0625 C 2.054688 -5.144531 1.945312 -5.1875 1.8125 -5.1875 C 1.6875 -5.1875 1.582031 -5.144531 1.5 -5.0625 C 1.414062 -4.976562 1.375 -4.867188 1.375 -4.734375 C 1.375 -4.609375 1.414062 -4.5 1.5 -4.40625 C 1.582031 -4.320312 1.6875 -4.28125 1.8125 -4.28125 C 1.945312 -4.28125 2.054688 -4.320312 2.140625 -4.40625 C 2.222656 -4.5 2.265625 -4.609375 2.265625 -4.734375 Z M 2.265625 -4.734375 "/></g></g></g><g fill="#000000" fill-opacity="1"><g transform="translate(168.768311, 56.402521)"><g><path d="M 3.984375 0 L 3.109375 0 L 3.109375 -4.0625 C 3.109375 -4.320312 3.019531 -4.53125 2.84375 -4.6875 C 2.664062 -4.851562 2.425781 -4.9375 2.125 -4.9375 C 1.8125 -4.9375 1.554688 -4.832031 1.359375 -4.625 C 1.171875 -4.425781 1.070312 -4.171875 1.0625 -3.859375 L 0.21875 -3.859375 C 0.25 -4.410156 0.429688 -4.851562 0.765625 -5.1875 C 1.109375 -5.519531 1.5625 -5.6875 2.125 -5.6875 C 2.644531 -5.6875 3.082031 -5.550781 3.4375 -5.28125 C 3.800781 -5.019531 3.984375 -4.617188 3.984375 -4.078125 Z M 3.984375 0 "/></g></g></g><g fill="#000000" fill-opacity="1"><g transform="translate(173.461297, 56.402521)"><g><path d="M 4.578125 -1.015625 C 4.578125 -0.691406 4.46875 -0.425781 4.25 -0.21875 C 4.039062 -0.0078125 3.78125 0.09375 3.46875 0.09375 C 3.164062 0.09375 2.910156 -0.00390625 2.703125 -0.203125 C 2.503906 -0.410156 2.40625 -0.660156 2.40625 -0.953125 C 2.40625 -1.242188 2.503906 -1.492188 2.703125 -1.703125 C 2.910156 -1.910156 3.164062 -2.015625 3.46875 -2.015625 C 3.570312 -2.015625 3.65625 -2.007812 3.71875 -2 L 3.71875 -4.046875 C 3.71875 -4.640625 3.289062 -4.9375 2.4375 -4.9375 C 2.082031 -4.9375 1.78125 -4.828125 1.53125 -4.609375 C 1.28125 -4.390625 1.15625 -4.101562 1.15625 -3.75 L 0.328125 -3.75 C 0.347656 -4.363281 0.546875 -4.835938 0.921875 -5.171875 C 1.304688 -5.515625 1.8125 -5.6875 2.4375 -5.6875 C 3.050781 -5.6875 3.539062 -5.566406 3.90625 -5.328125 C 4.351562 -5.035156 4.578125 -4.59375 4.578125 -4 Z M 3.9375 -0.96875 C 3.9375 -1.09375 3.890625 -1.203125 3.796875 -1.296875 C 3.703125 -1.390625 3.59375 -1.4375 3.46875 -1.4375 C 3.332031 -1.4375 3.21875 -1.390625 3.125 -1.296875 C 3.03125 -1.203125 2.984375 -1.09375 2.984375 -0.96875 C 2.984375 -0.832031 3.03125 -0.71875 3.125 -0.625 C 3.21875 -0.53125 3.332031 -0.484375 3.46875 -0.484375 C 3.59375 -0.484375 3.703125 -0.53125 3.796875 -0.625 C 3.890625 -0.71875 3.9375 -0.832031 3.9375 -0.96875 Z M 3.9375 -0.96875 "/></g></g></g><g fill="#000000" fill-opacity="1"><g transform="translate(178.754871, 56.402521)"><g><path d="M 2.265625 0.765625 C 1.160156 -0.367188 0.609375 -1.71875 0.609375 -3.28125 C 0.609375 -4.738281 1.144531 -6.113281 2.21875 -7.40625 L 3.25 -7.40625 C 2.070312 -6.113281 1.484375 -4.738281 1.484375 -3.28125 C 1.484375 -1.90625 2.066406 -0.554688 3.234375 0.765625 Z M 2.265625 0.765625 "/></g></g></g><g fill="#000000" fill-opacity="1"><g transform="translate(182.162867, 56.402521)"><g><path d="M 4.828125 0 L 0.703125 0 L 0.703125 -6.65625 L 1.578125 -6.65625 L 1.578125 -0.75 L 4.828125 -0.75 Z M 4.828125 0 "/></g></g></g><g fill="#000000" fill-opacity="1"><g transform="translate(187.177098, 56.402521)"><g><path d="M 2.78125 -3.328125 C 2.78125 -1.796875 2.226562 -0.429688 1.125 0.765625 L 0.171875 0.765625 C 1.328125 -0.617188 1.90625 -1.984375 1.90625 -3.328125 C 1.90625 -4.671875 1.320312 -6.03125 0.15625 -7.40625 L 1.125 -7.40625 C 2.226562 -6.21875 2.78125 -4.859375 2.78125 -3.328125 Z M 2.78125 -3.328125 "/></g></g></g><g fill="#000000" fill-opacity="1"><g transform="translate(190.585094, 56.402521)"><g/></g></g><g fill="#000000" fill-opacity="1"><g transform="translate(193.741679, 56.402521)"><g><path d="M 1.875 -0.546875 C 1.875 -0.359375 1.804688 -0.195312 1.671875 -0.0625 C 1.546875 0.0625 1.390625 0.125 1.203125 0.125 C 1.015625 0.125 0.851562 0.0625 0.71875 -0.0625 C 0.59375 -0.195312 0.53125 -0.359375 0.53125 -0.546875 C 0.53125 -0.734375 0.59375 -0.890625 0.71875 -1.015625 C 0.851562 -1.148438 1.015625 -1.21875 1.203125 -1.21875 C 1.390625 -1.21875 1.546875 -1.148438 1.671875 -1.015625 C 1.804688 -0.890625 1.875 -0.734375 1.875 -0.546875 Z M 1.875 -3.984375 C 1.875 -3.796875 1.804688 -3.632812 1.671875 -3.5 C 1.546875 -3.375 1.390625 -3.3125 1.203125 -3.3125 C 1.015625 -3.3125 0.851562 -3.375 0.71875 -3.5 C 0.59375 -3.632812 0.53125 -3.796875 0.53125 -3.984375 C 0.53125 -4.171875 0.59375 -4.328125 0.71875 -4.453125 C 0.851562 -4.585938 1.015625 -4.65625 1.203125 -4.65625 C 1.390625 -4.65625 1.546875 -4.585938 1.671875 -4.453125 C 1.804688 -4.328125 1.875 -4.171875 1.875 -3.984375 Z M 1.875 -3.984375 "/></g></g></g><g fill="#000000" fill-opacity="1"><g transform="translate(196.144039, 56.402521)"><g/></g></g><g fill="#000000" fill-opacity="1"><g transform="translate(199.300624, 56.402521)"><g><path d="M 4.8125 -2.3125 C 4.8125 -1.582031 4.550781 -0.992188 4.03125 -0.546875 C 3.519531 -0.109375 2.847656 0.109375 2.015625 0.109375 C 1.378906 0.109375 0.828125 -0.0820312 0.359375 -0.46875 L 0.75 -1.1875 C 1.175781 -0.882812 1.644531 -0.734375 2.15625 -0.734375 C 2.632812 -0.734375 3.050781 -0.882812 3.40625 -1.1875 C 3.757812 -1.5 3.9375 -1.863281 3.9375 -2.28125 C 3.9375 -2.570312 3.835938 -2.820312 3.640625 -3.03125 C 3.453125 -3.238281 3.21875 -3.34375 2.9375 -3.34375 C 2.59375 -3.34375 2.257812 -3.207031 1.9375 -2.9375 L 1.5625 -3.546875 C 2.019531 -3.804688 2.425781 -4.097656 2.78125 -4.421875 C 3.195312 -4.816406 3.40625 -5.132812 3.40625 -5.375 C 3.40625 -5.738281 3.148438 -5.921875 2.640625 -5.921875 C 2.304688 -5.921875 1.992188 -5.8125 1.703125 -5.59375 C 1.421875 -5.382812 1.222656 -5.132812 1.109375 -4.84375 L 0.46875 -5.171875 C 0.644531 -5.628906 0.929688 -5.992188 1.328125 -6.265625 C 1.722656 -6.535156 2.175781 -6.671875 2.6875 -6.671875 C 3.132812 -6.671875 3.503906 -6.554688 3.796875 -6.328125 C 4.097656 -6.097656 4.25 -5.785156 4.25 -5.390625 C 4.25 -5.003906 3.957031 -4.566406 3.375 -4.078125 C 3.8125 -3.992188 4.160156 -3.789062 4.421875 -3.46875 C 4.679688 -3.15625 4.8125 -2.769531 4.8125 -2.3125 Z M 4.8125 -2.3125 "/></g></g></g><g fill="#000000" fill-opacity="1"><g transform="translate(204.580226, 56.402521)"><g><path d="M 1.875 -0.546875 C 1.875 -0.359375 1.804688 -0.195312 1.671875 -0.0625 C 1.546875 0.0625 1.390625 0.125 1.203125 0.125 C 1.015625 0.125 0.851562 0.0625 0.71875 -0.0625 C 0.59375 -0.195312 0.53125 -0.359375 0.53125 -0.546875 C 0.53125 -0.734375 0.59375 -0.890625 0.71875 -1.015625 C 0.851562 -1.148438 1.015625 -1.21875 1.203125 -1.21875 C 1.390625 -1.21875 1.546875 -1.148438 1.671875 -1.015625 C 1.804688 -0.890625 1.875 -0.734375 1.875 -0.546875 Z M 1.875 -0.546875 "/></g></g></g><g fill="#000000" fill-opacity="1"><g transform="translate(206.982586, 56.402521)"><g><path d="M 4 -1.828125 C 4 -2.171875 3.878906 -2.484375 3.640625 -2.765625 C 3.410156 -3.046875 3.078125 -3.203125 2.640625 -3.234375 C 2.203125 -3.203125 1.863281 -3.046875 1.625 -2.765625 C 1.394531 -2.484375 1.28125 -2.171875 1.28125 -1.828125 C 1.28125 -1.460938 1.40625 -1.171875 1.65625 -0.953125 C 1.914062 -0.742188 2.242188 -0.640625 2.640625 -0.640625 C 3.035156 -0.640625 3.359375 -0.742188 3.609375 -0.953125 C 3.867188 -1.171875 4 -1.460938 4 -1.828125 Z M 3.796875 -4.953125 C 3.796875 -5.234375 3.6875 -5.46875 3.46875 -5.65625 C 3.257812 -5.84375 2.984375 -5.9375 2.640625 -5.9375 C 2.296875 -5.9375 2.015625 -5.84375 1.796875 -5.65625 C 1.585938 -5.46875 1.484375 -5.234375 1.484375 -4.953125 C 1.484375 -4.503906 1.863281 -4.171875 2.625 -3.953125 C 3.40625 -4.171875 3.796875 -4.503906 3.796875 -4.953125 Z M 4.84375 -1.875 C 4.84375 -1.257812 4.640625 -0.773438 4.234375 -0.421875 C 3.835938 -0.0664062 3.300781 0.109375 2.625 0.109375 C 1.957031 0.109375 1.425781 -0.0664062 1.03125 -0.421875 C 0.632812 -0.773438 0.4375 -1.257812 0.4375 -1.875 C 0.4375 -2.25 0.539062 -2.59375 0.75 -2.90625 C 0.957031 -3.21875 1.222656 -3.453125 1.546875 -3.609375 C 0.941406 -3.929688 0.640625 -4.367188 0.640625 -4.921875 C 0.640625 -5.429688 0.828125 -5.851562 1.203125 -6.1875 C 1.585938 -6.519531 2.066406 -6.6875 2.640625 -6.6875 C 3.210938 -6.6875 3.6875 -6.519531 4.0625 -6.1875 C 4.445312 -5.851562 4.640625 -5.429688 4.640625 -4.921875 C 4.640625 -4.367188 4.335938 -3.929688 3.734375 -3.609375 C 4.054688 -3.453125 4.320312 -3.21875 4.53125 -2.90625 C 4.738281 -2.59375 4.84375 -2.25 4.84375 -1.875 Z M 4.84375 -1.875 "/></g></g></g><g fill="#000000" fill-opacity="1"><g transform="translate(212.262189, 56.402521)"><g><path d="M 3.203125 -2.234375 L 3.203125 -5.640625 C 2.753906 -5.347656 2.347656 -4.875 1.984375 -4.21875 C 1.628906 -3.570312 1.390625 -2.910156 1.265625 -2.234375 Z M 4.09375 0 L 3.203125 0 L 3.203125 -1.484375 L 0.390625 -1.484375 C 0.390625 -2.648438 0.753906 -3.8125 1.484375 -4.96875 C 2.222656 -6.125 3.09375 -6.742188 4.09375 -6.828125 L 4.09375 -2.234375 L 4.984375 -2.234375 L 4.890625 -1.484375 L 4.09375 -1.484375 Z M 4.09375 0 "/></g></g></g><g fill="#000000" fill-opacity="1"><g transform="translate(217.541791, 56.402521)"><g/></g></g><g fill="#000000" fill-opacity="1"><g transform="translate(220.698376, 56.402521)"><g><path d="M 2.84375 -0.953125 C 2.84375 -0.648438 2.738281 -0.394531 2.53125 -0.1875 C 2.320312 0.0078125 2.070312 0.109375 1.78125 0.109375 C 1.46875 0.109375 1.203125 0.00390625 0.984375 -0.203125 C 0.773438 -0.421875 0.671875 -0.691406 0.671875 -1.015625 L 0.671875 -5.578125 L 1.53125 -5.578125 L 1.53125 -1.984375 C 1.582031 -2.003906 1.664062 -2.015625 1.78125 -2.015625 C 2.070312 -2.015625 2.320312 -1.910156 2.53125 -1.703125 C 2.738281 -1.492188 2.84375 -1.242188 2.84375 -0.953125 Z M 2.265625 -0.953125 C 2.265625 -1.078125 2.21875 -1.1875 2.125 -1.28125 C 2.03125 -1.375 1.914062 -1.421875 1.78125 -1.421875 C 1.65625 -1.421875 1.546875 -1.375 1.453125 -1.28125 C 1.359375 -1.1875 1.3125 -1.078125 1.3125 -0.953125 C 1.3125 -0.816406 1.359375 -0.703125 1.453125 -0.609375 C 1.546875 -0.515625 1.65625 -0.46875 1.78125 -0.46875 C 1.914062 -0.46875 2.03125 -0.515625 2.125 -0.609375 C 2.21875 -0.703125 2.265625 -0.816406 2.265625 -0.953125 Z M 2.265625 -0.953125 "/></g></g></g><g fill="#000000" fill-opacity="1"><g transform="translate(223.60356, 56.402521)"><g><path d="M 5.109375 0 L 4.25 0 C 3.707031 -0.476562 3.160156 -0.816406 2.609375 -1.015625 L 2.609375 -0.953125 C 2.609375 -0.648438 2.492188 -0.394531 2.265625 -0.1875 C 2.035156 0.0078125 1.78125 0.109375 1.5 0.109375 C 1.1875 0.109375 0.914062 0 0.6875 -0.21875 C 0.46875 -0.445312 0.359375 -0.710938 0.359375 -1.015625 C 0.359375 -1.328125 0.46875 -1.59375 0.6875 -1.8125 C 0.914062 -2.03125 1.1875 -2.140625 1.5 -2.140625 L 1.59375 -2.140625 L 1.59375 -3.59375 C 1.5 -3.570312 1.421875 -3.5625 1.359375 -3.5625 C 1.054688 -3.5625 0.800781 -3.664062 0.59375 -3.875 C 0.394531 -4.082031 0.296875 -4.335938 0.296875 -4.640625 C 0.296875 -4.929688 0.394531 -5.175781 0.59375 -5.375 C 0.800781 -5.582031 1.054688 -5.6875 1.359375 -5.6875 C 1.671875 -5.6875 1.929688 -5.578125 2.140625 -5.359375 C 2.347656 -5.148438 2.453125 -4.878906 2.453125 -4.546875 L 2.453125 -1.90625 C 3.191406 -1.644531 3.789062 -1.3125 4.25 -0.90625 L 4.25 -5.578125 L 5.109375 -5.578125 Z M 1.828125 -4.625 C 1.828125 -4.75 1.78125 -4.859375 1.6875 -4.953125 C 1.59375 -5.046875 1.484375 -5.09375 1.359375 -5.09375 C 1.222656 -5.09375 1.109375 -5.046875 1.015625 -4.953125 C 0.921875 -4.859375 0.875 -4.75 0.875 -4.625 C 0.875 -4.488281 0.921875 -4.375 1.015625 -4.28125 C 1.109375 -4.195312 1.222656 -4.15625 1.359375 -4.15625 C 1.484375 -4.15625 1.59375 -4.195312 1.6875 -4.28125 C 1.78125 -4.375 1.828125 -4.488281 1.828125 -4.625 Z M 1.96875 -1.015625 C 1.96875 -1.148438 1.921875 -1.265625 1.828125 -1.359375 C 1.734375 -1.453125 1.625 -1.5 1.5 -1.5 C 1.363281 -1.5 1.25 -1.453125 1.15625 -1.359375 C 1.0625 -1.265625 1.015625 -1.148438 1.015625 -1.015625 C 1.015625 -0.890625 1.0625 -0.78125 1.15625 -0.6875 C 1.25 -0.59375 1.363281 -0.546875 1.5 -0.546875 C 1.625 -0.546875 1.734375 -0.59375 1.828125 -0.6875 C 1.921875 -0.78125 1.96875 -0.890625 1.96875 -1.015625 Z M 1.96875 -1.015625 "/></g></g></g><g fill="#000000" fill-opacity="1"><g transform="translate(229.427887, 56.402521)"><g><path d="M 4.9375 0 L 4.078125 0 L 4.078125 -3.65625 C 4.078125 -4.25 3.914062 -4.675781 3.59375 -4.9375 L 2.71875 -4.3125 L 1.875 -4.9375 C 1.476562 -4.75 1.28125 -4.3125 1.28125 -3.625 C 1.28125 -3.394531 1.347656 -3.0625 1.484375 -2.625 C 1.617188 -2.1875 1.6875 -1.859375 1.6875 -1.640625 C 1.6875 -1.492188 1.660156 -1.34375 1.609375 -1.1875 C 1.660156 -1.320312 1.789062 -1.503906 2 -1.734375 C 2.21875 -1.960938 2.425781 -2.140625 2.625 -2.265625 C 2.375 -2.285156 2.175781 -2.382812 2.03125 -2.5625 C 1.882812 -2.738281 1.8125 -2.929688 1.8125 -3.140625 C 1.8125 -3.390625 1.894531 -3.601562 2.0625 -3.78125 C 2.238281 -3.957031 2.453125 -4.046875 2.703125 -4.046875 C 2.960938 -4.046875 3.179688 -3.957031 3.359375 -3.78125 C 3.535156 -3.601562 3.625 -3.390625 3.625 -3.140625 C 3.625 -2.742188 3.410156 -2.320312 2.984375 -1.875 C 2.429688 -1.28125 2.109375 -0.894531 2.015625 -0.71875 C 1.867188 -0.445312 1.796875 -0.207031 1.796875 0 L 0.921875 0 C 0.941406 -0.351562 0.953125 -0.710938 0.953125 -1.078125 C 0.953125 -1.453125 0.894531 -1.796875 0.78125 -2.109375 C 0.550781 -2.773438 0.4375 -3.28125 0.4375 -3.625 C 0.4375 -4.132812 0.5625 -4.570312 0.8125 -4.9375 C 1.070312 -5.3125 1.4375 -5.566406 1.90625 -5.703125 L 2.703125 -5.09375 L 3.453125 -5.703125 C 4.441406 -5.546875 4.9375 -4.875 4.9375 -3.6875 Z M 3.125 -3.15625 C 3.125 -3.28125 3.082031 -3.378906 3 -3.453125 C 2.925781 -3.535156 2.828125 -3.578125 2.703125 -3.578125 C 2.585938 -3.578125 2.488281 -3.535156 2.40625 -3.453125 C 2.332031 -3.378906 2.296875 -3.28125 2.296875 -3.15625 C 2.296875 -3.03125 2.332031 -2.925781 2.40625 -2.84375 C 2.488281 -2.769531 2.585938 -2.734375 2.703125 -2.734375 C 2.828125 -2.734375 2.925781 -2.769531 3 -2.84375 C 3.082031 -2.925781 3.125 -3.03125 3.125 -3.15625 Z M 3.125 -3.15625 "/></g></g></g><g fill="#000000" fill-opacity="1"><g transform="translate(235.084607, 56.402521)"><g><path d="M 3.78125 -0.9375 C 3.78125 -0.632812 3.675781 -0.382812 3.46875 -0.1875 C 3.257812 0.0078125 3.003906 0.109375 2.703125 0.109375 C 2.410156 0.109375 2.160156 0.0078125 1.953125 -0.1875 C 1.742188 -0.394531 1.640625 -0.648438 1.640625 -0.953125 C 1.640625 -1.242188 1.742188 -1.492188 1.953125 -1.703125 C 2.160156 -1.910156 2.410156 -2.015625 2.703125 -2.015625 C 2.816406 -2.015625 2.890625 -2.007812 2.921875 -2 L 2.921875 -3.203125 C 2.921875 -3.347656 2.609375 -3.492188 1.984375 -3.640625 C 1.367188 -3.785156 0.8125 -3.898438 0.3125 -3.984375 C 0.320312 -4.492188 0.453125 -4.90625 0.703125 -5.21875 C 0.960938 -5.53125 1.328125 -5.6875 1.796875 -5.6875 C 1.992188 -5.6875 2.257812 -5.640625 2.59375 -5.546875 C 2.9375 -5.460938 3.1875 -5.421875 3.34375 -5.421875 C 3.5 -5.421875 3.585938 -5.523438 3.609375 -5.734375 L 4.28125 -5.546875 C 4.113281 -4.972656 3.804688 -4.6875 3.359375 -4.6875 C 3.191406 -4.6875 2.953125 -4.726562 2.640625 -4.8125 C 2.328125 -4.894531 2.09375 -4.9375 1.9375 -4.9375 C 1.53125 -4.9375 1.300781 -4.78125 1.25 -4.46875 C 1.957031 -4.320312 2.554688 -4.164062 3.046875 -4 C 3.535156 -3.832031 3.78125 -3.539062 3.78125 -3.125 Z M 3.1875 -0.953125 C 3.1875 -1.078125 3.140625 -1.1875 3.046875 -1.28125 C 2.953125 -1.375 2.835938 -1.421875 2.703125 -1.421875 C 2.578125 -1.421875 2.46875 -1.375 2.375 -1.28125 C 2.28125 -1.1875 2.234375 -1.078125 2.234375 -0.953125 C 2.234375 -0.816406 2.28125 -0.703125 2.375 -0.609375 C 2.46875 -0.515625 2.578125 -0.46875 2.703125 -0.46875 C 2.835938 -0.46875 2.953125 -0.515625 3.046875 -0.609375 C 3.140625 -0.703125 3.1875 -0.816406 3.1875 -0.953125 Z M 3.1875 -0.953125 "/></g></g></g><g fill="#000000" fill-opacity="1"><g transform="translate(239.679819, 56.402521)"><g><path d="M 2.265625 0.765625 C 1.160156 -0.367188 0.609375 -1.71875 0.609375 -3.28125 C 0.609375 -4.738281 1.144531 -6.113281 2.21875 -7.40625 L 3.25 -7.40625 C 2.070312 -6.113281 1.484375 -4.738281 1.484375 -3.28125 C 1.484375 -1.90625 2.066406 -0.554688 3.234375 0.765625 Z M 2.265625 0.765625 "/></g></g></g><g fill="#000000" fill-opacity="1"><g transform="translate(243.087815, 56.402521)"><g><path d="M 8.1875 0 L 7.3125 0 L 7.3125 -2.625 C 7.3125 -3.050781 7.210938 -3.40625 7.015625 -3.6875 C 6.785156 -4 6.488281 -4.15625 6.125 -4.15625 C 5.820312 -4.15625 5.535156 -4.03125 5.265625 -3.78125 C 5.003906 -3.539062 4.875 -3.28125 4.875 -3 L 4.875 0 L 4 0 L 4 -2.859375 C 4 -3.722656 3.640625 -4.15625 2.921875 -4.15625 C 2.597656 -4.15625 2.289062 -4.007812 2 -3.71875 C 1.71875 -3.4375 1.578125 -3.140625 1.578125 -2.828125 L 1.578125 0 L 0.703125 0 L 0.703125 -3.484375 C 0.703125 -4.066406 0.664062 -4.492188 0.59375 -4.765625 L 1.40625 -4.765625 C 1.476562 -4.609375 1.515625 -4.425781 1.515625 -4.21875 C 1.640625 -4.40625 1.847656 -4.5625 2.140625 -4.6875 C 2.441406 -4.820312 2.738281 -4.890625 3.03125 -4.890625 C 3.644531 -4.890625 4.140625 -4.628906 4.515625 -4.109375 C 5.003906 -4.628906 5.597656 -4.890625 6.296875 -4.890625 C 6.847656 -4.890625 7.300781 -4.679688 7.65625 -4.265625 C 8.007812 -3.847656 8.1875 -3.304688 8.1875 -2.640625 Z M 8.1875 0 "/></g></g></g><g fill="#000000" fill-opacity="1"><g transform="translate(251.970952, 56.402521)"><g><path d="M 2.78125 -3.328125 C 2.78125 -1.796875 2.226562 -0.429688 1.125 0.765625 L 0.171875 0.765625 C 1.328125 -0.617188 1.90625 -1.984375 1.90625 -3.328125 C 1.90625 -4.671875 1.320312 -6.03125 0.15625 -7.40625 L 1.125 -7.40625 C 2.226562 -6.21875 2.78125 -4.859375 2.78125 -3.328125 Z M 2.78125 -3.328125 "/></g></g></g><path stroke-linecap="butt" transform="matrix(0, -0.748661, 0.748661, 0, 372.888936, 230.397655)" fill="none" stroke-linejoin="miter" d="M 1.501638 0.998827 L 216.766257 0.998827 " stroke="#000000" stroke-width="2" stroke-opacity="1" stroke-miterlimit="4"/><path stroke-linecap="round" transform="matrix(0, -0.748661, 0.748661, 0, 372.888936, 230.397655)" fill="none" stroke-linejoin="round" d="M 1.000744 -2.001322 L 1.000744 3.998976 " stroke="#000000" stroke-width="2" stroke-opacity="1" stroke-miterlimit="4"/><path stroke-linecap="round" transform="matrix(0, -0.748661, 0.748661, 0, 372.888936, 230.397655)" fill="none" stroke-linejoin="round" d="M 217.267151 -2.001322 L 217.267151 3.998976 " stroke="#000000" stroke-width="2" stroke-opacity="1" stroke-miterlimit="4"/><g fill="#000000" fill-opacity="1"><g transform="translate(384.216699, 98.668075)"><g><path d="M 0 4.75 L 0 3.890625 L 3.703125 3.890625 C 4.085938 3.890625 4.390625 3.769531 4.609375 3.53125 C 4.828125 3.300781 4.9375 2.992188 4.9375 2.609375 C 4.9375 2.054688 4.703125 1.632812 4.234375 1.34375 C 4.148438 1.78125 3.941406 2.09375 3.609375 2.28125 C 3.328125 1.800781 2.988281 1.5625 2.59375 1.5625 L 0 1.5625 L 0 0.703125 L 2.65625 0.703125 C 3.039062 0.703125 3.347656 0.890625 3.578125 1.265625 C 3.734375 1.035156 3.789062 0.753906 3.75 0.421875 C 4.320312 0.441406 4.796875 0.664062 5.171875 1.09375 C 5.515625 1.476562 5.6875 1.972656 5.6875 2.578125 C 5.6875 3.253906 5.503906 3.785156 5.140625 4.171875 C 4.785156 4.554688 4.300781 4.75 3.6875 4.75 Z M 0 4.75 "/></g></g></g><g fill="#000000" fill-opacity="1"><g transform="translate(384.216699, 104.129256)"><g><path d="M 1.015625 4.578125 C 0.691406 4.578125 0.425781 4.46875 0.21875 4.25 C 0.0078125 4.039062 -0.09375 3.78125 -0.09375 3.46875 C -0.09375 3.164062 0.00390625 2.910156 0.203125 2.703125 C 0.410156 2.503906 0.660156 2.40625 0.953125 2.40625 C 1.242188 2.40625 1.492188 2.503906 1.703125 2.703125 C 1.910156 2.910156 2.015625 3.164062 2.015625 3.46875 C 2.015625 3.570312 2.007812 3.65625 2 3.71875 L 4.046875 3.71875 C 4.640625 3.71875 4.9375 3.289062 4.9375 2.4375 C 4.9375 2.082031 4.828125 1.78125 4.609375 1.53125 C 4.390625 1.28125 4.101562 1.15625 3.75 1.15625 L 3.75 0.328125 C 4.363281 0.347656 4.835938 0.546875 5.171875 0.921875 C 5.515625 1.304688 5.6875 1.8125 5.6875 2.4375 C 5.6875 3.050781 5.566406 3.539062 5.328125 3.90625 C 5.035156 4.351562 4.59375 4.578125 4 4.578125 Z M 0.96875 3.9375 C 1.09375 3.9375 1.203125 3.890625 1.296875 3.796875 C 1.390625 3.703125 1.4375 3.59375 1.4375 3.46875 C 1.4375 3.332031 1.390625 3.21875 1.296875 3.125 C 1.203125 3.03125 1.09375 2.984375 0.96875 2.984375 C 0.832031 2.984375 0.71875 3.03125 0.625 3.125 C 0.53125 3.21875 0.484375 3.332031 0.484375 3.46875 C 0.484375 3.59375 0.53125 3.703125 0.625 3.796875 C 0.71875 3.890625 0.832031 3.9375 0.96875 3.9375 Z M 0.96875 3.9375 "/></g></g></g><g fill="#000000" fill-opacity="1"><g transform="translate(384.216699, 109.42283)"><g><path d="M 8.890625 0.140625 C 8.398438 0.046875 7.988281 -0.0820312 7.65625 -0.25 C 7.320312 -0.414062 7.050781 -0.628906 6.84375 -0.890625 C 6.644531 -1.148438 6.503906 -1.453125 6.421875 -1.796875 C 6.335938 -2.148438 6.296875 -2.554688 6.296875 -3.015625 L 6.296875 -3.484375 L 6.859375 -3.484375 C 6.867188 -3.296875 6.929688 -3.140625 7.046875 -3.015625 C 7.171875 -2.890625 7.296875 -2.800781 7.421875 -2.75 C 7.453125 -2.976562 7.550781 -3.160156 7.71875 -3.296875 C 7.882812 -3.429688 8.09375 -3.5 8.34375 -3.5 C 8.59375 -3.5 8.800781 -3.410156 8.96875 -3.234375 C 9.132812 -3.054688 9.21875 -2.84375 9.21875 -2.59375 C 9.21875 -2.3125 9.128906 -2.09375 8.953125 -1.9375 C 8.773438 -1.78125 8.550781 -1.703125 8.28125 -1.703125 C 8.007812 -1.703125 7.75 -1.765625 7.5 -1.890625 C 7.25 -2.023438 7.054688 -2.164062 6.921875 -2.3125 C 7.003906 -1.84375 7.226562 -1.457031 7.59375 -1.15625 C 7.957031 -0.863281 8.390625 -0.710938 8.890625 -0.703125 Z M 8.3125 -2.25 C 8.414062 -2.25 8.5 -2.28125 8.5625 -2.34375 C 8.632812 -2.414062 8.671875 -2.503906 8.671875 -2.609375 C 8.671875 -2.710938 8.632812 -2.796875 8.5625 -2.859375 C 8.5 -2.929688 8.414062 -2.96875 8.3125 -2.96875 C 8.207031 -2.96875 8.117188 -2.929688 8.046875 -2.859375 C 7.984375 -2.796875 7.953125 -2.710938 7.953125 -2.609375 C 7.953125 -2.503906 7.984375 -2.414062 8.046875 -2.34375 C 8.117188 -2.28125 8.207031 -2.25 8.3125 -2.25 Z M 8.3125 -2.25 "/></g></g></g><g fill="#000000" fill-opacity="1"><g transform="translate(384.216699, 109.42283)"><g><path d="M 0 3.984375 L 0 3.109375 L 4.0625 3.109375 C 4.320312 3.109375 4.53125 3.019531 4.6875 2.84375 C 4.851562 2.664062 4.9375 2.425781 4.9375 2.125 C 4.9375 1.8125 4.832031 1.554688 4.625 1.359375 C 4.425781 1.171875 4.171875 1.070312 3.859375 1.0625 L 3.859375 0.21875 C 4.410156 0.25 4.851562 0.429688 5.1875 0.765625 C 5.519531 1.109375 5.6875 1.5625 5.6875 2.125 C 5.6875 2.644531 5.550781 3.082031 5.28125 3.4375 C 5.019531 3.800781 4.617188 3.984375 4.078125 3.984375 Z M 0 3.984375 "/></g></g></g><g fill="#000000" fill-opacity="1"><g transform="translate(384.216699, 114.115816)"><g><path d="M 0 3.734375 L 0 2.875 L 2.953125 0.265625 L 3.546875 0.78125 L 1.203125 2.859375 L 3.609375 2.859375 C 3.597656 2.835938 3.59375 2.75 3.59375 2.59375 C 3.59375 2.3125 3.6875 2.066406 3.875 1.859375 C 4.0625 1.660156 4.304688 1.5625 4.609375 1.5625 C 4.910156 1.5625 5.164062 1.660156 5.375 1.859375 C 5.582031 2.066406 5.6875 2.3125 5.6875 2.59375 C 5.6875 2.925781 5.582031 3.195312 5.375 3.40625 C 5.164062 3.625 4.890625 3.734375 4.546875 3.734375 Z M 4.640625 3.078125 C 4.765625 3.078125 4.875 3.03125 4.96875 2.9375 C 5.0625 2.84375 5.109375 2.726562 5.109375 2.59375 C 5.109375 2.46875 5.0625 2.359375 4.96875 2.265625 C 4.875 2.171875 4.765625 2.125 4.640625 2.125 C 4.503906 2.125 4.390625 2.171875 4.296875 2.265625 C 4.203125 2.359375 4.15625 2.46875 4.15625 2.59375 C 4.15625 2.726562 4.203125 2.84375 4.296875 2.9375 C 4.390625 3.03125 4.503906 3.078125 4.640625 3.078125 Z M 4.640625 3.078125 "/></g></g></g><g fill="#000000" fill-opacity="1"><g transform="translate(384.216699, 118.55739)"><g><path d="M -0.765625 2.265625 C 0.367188 1.160156 1.71875 0.609375 3.28125 0.609375 C 4.738281 0.609375 6.113281 1.144531 7.40625 2.21875 L 7.40625 3.25 C 6.113281 2.070312 4.738281 1.484375 3.28125 1.484375 C 1.90625 1.484375 0.554688 2.066406 -0.765625 3.234375 Z M -0.765625 2.265625 "/></g></g></g><g fill="#000000" fill-opacity="1"><g transform="translate(384.216699, 121.965386)"><g><path d="M 0 6.765625 L 0 5.953125 L 5.4375 4.28125 L 0 2.59375 L 0 1.78125 L 6.65625 -0.0625 L 6.65625 0.90625 L 1.34375 2.203125 L 6.65625 3.859375 L 6.65625 4.6875 L 1.34375 6.34375 L 6.65625 7.640625 L 6.65625 8.609375 Z M 0 6.765625 "/></g></g></g><g fill="#000000" fill-opacity="1"><g transform="translate(384.216699, 130.513319)"><g><path d="M 3.328125 2.78125 C 1.796875 2.78125 0.429688 2.226562 -0.765625 1.125 L -0.765625 0.171875 C 0.617188 1.328125 1.984375 1.90625 3.328125 1.90625 C 4.671875 1.90625 6.03125 1.320312 7.40625 0.15625 L 7.40625 1.125 C 6.21875 2.226562 4.859375 2.78125 3.328125 2.78125 Z M 3.328125 2.78125 "/></g></g></g><g fill="#000000" fill-opacity="1"><g transform="translate(384.216699, 133.921316)"><g/></g></g><g fill="#000000" fill-opacity="1"><g transform="translate(384.216699, 137.0779)"><g><path d="M 0.546875 1.875 C 0.359375 1.875 0.195312 1.804688 0.0625 1.671875 C -0.0625 1.546875 -0.125 1.390625 -0.125 1.203125 C -0.125 1.015625 -0.0625 0.851562 0.0625 0.71875 C 0.195312 0.59375 0.359375 0.53125 0.546875 0.53125 C 0.734375 0.53125 0.890625 0.59375 1.015625 0.71875 C 1.148438 0.851562 1.21875 1.015625 1.21875 1.203125 C 1.21875 1.390625 1.148438 1.546875 1.015625 1.671875 C 0.890625 1.804688 0.734375 1.875 0.546875 1.875 Z M 3.984375 1.875 C 3.796875 1.875 3.632812 1.804688 3.5 1.671875 C 3.375 1.546875 3.3125 1.390625 3.3125 1.203125 C 3.3125 1.015625 3.375 0.851562 3.5 0.71875 C 3.632812 0.59375 3.796875 0.53125 3.984375 0.53125 C 4.171875 0.53125 4.328125 0.59375 4.453125 0.71875 C 4.585938 0.851562 4.65625 1.015625 4.65625 1.203125 C 4.65625 1.390625 4.585938 1.546875 4.453125 1.671875 C 4.328125 1.804688 4.171875 1.875 3.984375 1.875 Z M 3.984375 1.875 "/></g></g></g><g fill="#000000" fill-opacity="1"><g transform="translate(384.216699, 139.480261)"><g/></g></g><g fill="#000000" fill-opacity="1"><g transform="translate(384.216699, 142.636845)"><g><path d="M 0 4.859375 L 0 0.328125 C 0.40625 0.410156 0.738281 0.492188 1 0.578125 C 1.300781 0.816406 2.03125 1.554688 3.1875 2.796875 C 3.90625 3.554688 4.488281 3.9375 4.9375 3.9375 C 5.550781 3.9375 5.859375 3.570312 5.859375 2.84375 C 5.859375 2.132812 5.445312 1.707031 4.625 1.5625 L 4.828125 0.734375 C 5.429688 0.804688 5.894531 1.039062 6.21875 1.4375 C 6.519531 1.8125 6.671875 2.285156 6.671875 2.859375 C 6.671875 3.429688 6.503906 3.898438 6.171875 4.265625 C 5.835938 4.640625 5.414062 4.828125 4.90625 4.828125 C 4.445312 4.828125 3.929688 4.585938 3.359375 4.109375 C 3.003906 3.804688 2.519531 3.304688 1.90625 2.609375 C 1.363281 1.984375 0.988281 1.601562 0.78125 1.46875 L 0.78125 5.03125 Z M 0 4.859375 "/></g></g></g><g fill="#000000" fill-opacity="1"><g transform="translate(384.216699, 147.916447)"><g><path d="M 0.546875 1.875 C 0.359375 1.875 0.195312 1.804688 0.0625 1.671875 C -0.0625 1.546875 -0.125 1.390625 -0.125 1.203125 C -0.125 1.015625 -0.0625 0.851562 0.0625 0.71875 C 0.195312 0.59375 0.359375 0.53125 0.546875 0.53125 C 0.734375 0.53125 0.890625 0.59375 1.015625 0.71875 C 1.148438 0.851562 1.21875 1.015625 1.21875 1.203125 C 1.21875 1.390625 1.148438 1.546875 1.015625 1.671875 C 0.890625 1.804688 0.734375 1.875 0.546875 1.875 Z M 0.546875 1.875 "/></g></g></g><g fill="#000000" fill-opacity="1"><g transform="translate(384.216699, 150.318808)"><g><path d="M 3.28125 4.875 C 2.34375 4.875 1.539062 4.675781 0.875 4.28125 C 0.207031 3.894531 -0.125 3.335938 -0.125 2.609375 C -0.125 1.910156 0.207031 1.363281 0.875 0.96875 C 1.539062 0.582031 2.34375 0.390625 3.28125 0.390625 C 4.21875 0.390625 5.019531 0.582031 5.6875 0.96875 C 6.351562 1.363281 6.6875 1.910156 6.6875 2.609375 C 6.6875 3.335938 6.351562 3.894531 5.6875 4.28125 C 5.019531 4.675781 4.21875 4.875 3.28125 4.875 Z M 3.28125 3.984375 C 4.0625 3.984375 4.695312 3.867188 5.1875 3.640625 C 5.675781 3.421875 5.921875 3.085938 5.921875 2.640625 C 5.921875 2.179688 5.675781 1.835938 5.1875 1.609375 C 4.695312 1.390625 4.0625 1.28125 3.28125 1.28125 C 2.5 1.28125 1.863281 1.390625 1.375 1.609375 C 0.882812 1.835938 0.640625 2.175781 0.640625 2.625 C 0.640625 3.082031 0.882812 3.421875 1.375 3.640625 C 1.863281 3.867188 2.5 3.984375 3.28125 3.984375 Z M 3.28125 3.984375 "/></g></g></g><g fill="#000000" fill-opacity="1"><g transform="translate(384.216699, 155.59841)"><g><path d="M 2.34375 4.828125 C 1.613281 4.828125 1.019531 4.570312 0.5625 4.0625 C 0.113281 3.550781 -0.109375 2.890625 -0.109375 2.078125 C -0.109375 1.390625 0.0859375 0.816406 0.484375 0.359375 L 1.125 0.734375 C 0.800781 1.253906 0.640625 1.734375 0.640625 2.171875 C 0.640625 2.660156 0.800781 3.078125 1.125 3.421875 C 1.445312 3.765625 1.847656 3.9375 2.328125 3.9375 C 2.734375 3.9375 3.046875 3.804688 3.265625 3.546875 C 3.484375 3.285156 3.59375 2.9375 3.59375 2.5 C 3.59375 2.0625 3.4375 1.773438 3.125 1.640625 L 3.09375 1.09375 L 6.65625 1.328125 L 6.65625 4.65625 L 5.890625 4.5 L 5.890625 2.171875 L 4.28125 2.078125 C 4.351562 2.242188 4.390625 2.445312 4.390625 2.6875 C 4.390625 3.300781 4.195312 3.8125 3.8125 4.21875 C 3.425781 4.625 2.9375 4.828125 2.34375 4.828125 Z M 2.34375 4.828125 "/></g></g></g><g fill="#000000" fill-opacity="1"><g transform="translate(384.216699, 160.878012)"><g/></g></g><g fill="#000000" fill-opacity="1"><g transform="translate(384.216699, 164.034597)"><g><path d="M 0.953125 2.84375 C 0.648438 2.84375 0.394531 2.738281 0.1875 2.53125 C -0.0078125 2.320312 -0.109375 2.070312 -0.109375 1.78125 C -0.109375 1.46875 -0.00390625 1.203125 0.203125 0.984375 C 0.421875 0.773438 0.691406 0.671875 1.015625 0.671875 L 5.578125 0.671875 L 5.578125 1.53125 L 1.984375 1.53125 C 2.003906 1.582031 2.015625 1.664062 2.015625 1.78125 C 2.015625 2.070312 1.910156 2.320312 1.703125 2.53125 C 1.492188 2.738281 1.242188 2.84375 0.953125 2.84375 Z M 0.953125 2.265625 C 1.078125 2.265625 1.1875 2.21875 1.28125 2.125 C 1.375 2.03125 1.421875 1.914062 1.421875 1.78125 C 1.421875 1.65625 1.375 1.546875 1.28125 1.453125 C 1.1875 1.359375 1.078125 1.3125 0.953125 1.3125 C 0.816406 1.3125 0.703125 1.359375 0.609375 1.453125 C 0.515625 1.546875 0.46875 1.65625 0.46875 1.78125 C 0.46875 1.914062 0.515625 2.03125 0.609375 2.125 C 0.703125 2.21875 0.816406 2.265625 0.953125 2.265625 Z M 0.953125 2.265625 "/></g></g></g><g fill="#000000" fill-opacity="1"><g transform="translate(384.216699, 166.939781)"><g><path d="M 0 5.109375 L 0 4.25 C 0.476562 3.707031 0.816406 3.160156 1.015625 2.609375 L 0.953125 2.609375 C 0.648438 2.609375 0.394531 2.492188 0.1875 2.265625 C -0.0078125 2.035156 -0.109375 1.78125 -0.109375 1.5 C -0.109375 1.1875 0 0.914062 0.21875 0.6875 C 0.445312 0.46875 0.710938 0.359375 1.015625 0.359375 C 1.328125 0.359375 1.59375 0.46875 1.8125 0.6875 C 2.03125 0.914062 2.140625 1.1875 2.140625 1.5 L 2.140625 1.59375 L 3.59375 1.59375 C 3.570312 1.5 3.5625 1.421875 3.5625 1.359375 C 3.5625 1.054688 3.664062 0.800781 3.875 0.59375 C 4.082031 0.394531 4.335938 0.296875 4.640625 0.296875 C 4.929688 0.296875 5.175781 0.394531 5.375 0.59375 C 5.582031 0.800781 5.6875 1.054688 5.6875 1.359375 C 5.6875 1.671875 5.578125 1.929688 5.359375 2.140625 C 5.148438 2.347656 4.878906 2.453125 4.546875 2.453125 L 1.90625 2.453125 C 1.644531 3.191406 1.3125 3.789062 0.90625 4.25 L 5.578125 4.25 L 5.578125 5.109375 Z M 4.625 1.828125 C 4.75 1.828125 4.859375 1.78125 4.953125 1.6875 C 5.046875 1.59375 5.09375 1.484375 5.09375 1.359375 C 5.09375 1.222656 5.046875 1.109375 4.953125 1.015625 C 4.859375 0.921875 4.75 0.875 4.625 0.875 C 4.488281 0.875 4.375 0.921875 4.28125 1.015625 C 4.195312 1.109375 4.15625 1.222656 4.15625 1.359375 C 4.15625 1.484375 4.195312 1.59375 4.28125 1.6875 C 4.375 1.78125 4.488281 1.828125 4.625 1.828125 Z M 1.015625 1.96875 C 1.148438 1.96875 1.265625 1.921875 1.359375 1.828125 C 1.453125 1.734375 1.5 1.625 1.5 1.5 C 1.5 1.363281 1.453125 1.25 1.359375 1.15625 C 1.265625 1.0625 1.148438 1.015625 1.015625 1.015625 C 0.890625 1.015625 0.78125 1.0625 0.6875 1.15625 C 0.59375 1.25 0.546875 1.363281 0.546875 1.5 C 0.546875 1.625 0.59375 1.734375 0.6875 1.828125 C 0.78125 1.921875 0.890625 1.96875 1.015625 1.96875 Z M 1.015625 1.96875 "/></g></g></g><g fill="#000000" fill-opacity="1"><g transform="translate(384.216699, 172.764109)"><g><path d="M 0 4.9375 L 0 4.078125 L 3.65625 4.078125 C 4.25 4.078125 4.675781 3.914062 4.9375 3.59375 L 4.3125 2.71875 L 4.9375 1.875 C 4.75 1.476562 4.3125 1.28125 3.625 1.28125 C 3.394531 1.28125 3.0625 1.347656 2.625 1.484375 C 2.1875 1.617188 1.859375 1.6875 1.640625 1.6875 C 1.492188 1.6875 1.34375 1.660156 1.1875 1.609375 C 1.320312 1.660156 1.503906 1.789062 1.734375 2 C 1.960938 2.21875 2.140625 2.425781 2.265625 2.625 C 2.285156 2.375 2.382812 2.175781 2.5625 2.03125 C 2.738281 1.882812 2.929688 1.8125 3.140625 1.8125 C 3.390625 1.8125 3.601562 1.894531 3.78125 2.0625 C 3.957031 2.238281 4.046875 2.453125 4.046875 2.703125 C 4.046875 2.960938 3.957031 3.179688 3.78125 3.359375 C 3.601562 3.535156 3.390625 3.625 3.140625 3.625 C 2.742188 3.625 2.320312 3.410156 1.875 2.984375 C 1.28125 2.429688 0.894531 2.109375 0.71875 2.015625 C 0.445312 1.867188 0.207031 1.796875 0 1.796875 L 0 0.921875 C 0.351562 0.941406 0.710938 0.953125 1.078125 0.953125 C 1.453125 0.953125 1.796875 0.894531 2.109375 0.78125 C 2.773438 0.550781 3.28125 0.4375 3.625 0.4375 C 4.132812 0.4375 4.570312 0.5625 4.9375 0.8125 C 5.3125 1.070312 5.566406 1.4375 5.703125 1.90625 L 5.09375 2.703125 L 5.703125 3.453125 C 5.546875 4.441406 4.875 4.9375 3.6875 4.9375 Z M 3.15625 3.125 C 3.28125 3.125 3.378906 3.082031 3.453125 3 C 3.535156 2.925781 3.578125 2.828125 3.578125 2.703125 C 3.578125 2.585938 3.535156 2.488281 3.453125 2.40625 C 3.378906 2.332031 3.28125 2.296875 3.15625 2.296875 C 3.03125 2.296875 2.925781 2.332031 2.84375 2.40625 C 2.769531 2.488281 2.734375 2.585938 2.734375 2.703125 C 2.734375 2.828125 2.769531 2.925781 2.84375 3 C 2.925781 3.082031 3.03125 3.125 3.15625 3.125 Z M 3.15625 3.125 "/></g></g></g><g fill="#000000" fill-opacity="1"><g transform="translate(384.216699, 178.420829)"><g><path d="M 0.9375 3.78125 C 0.632812 3.78125 0.382812 3.675781 0.1875 3.46875 C -0.0078125 3.257812 -0.109375 3.003906 -0.109375 2.703125 C -0.109375 2.410156 -0.0078125 2.160156 0.1875 1.953125 C 0.394531 1.742188 0.648438 1.640625 0.953125 1.640625 C 1.242188 1.640625 1.492188 1.742188 1.703125 1.953125 C 1.910156 2.160156 2.015625 2.410156 2.015625 2.703125 C 2.015625 2.816406 2.007812 2.890625 2 2.921875 L 3.203125 2.921875 C 3.347656 2.921875 3.492188 2.609375 3.640625 1.984375 C 3.785156 1.367188 3.898438 0.8125 3.984375 0.3125 C 4.492188 0.320312 4.90625 0.453125 5.21875 0.703125 C 5.53125 0.960938 5.6875 1.328125 5.6875 1.796875 C 5.6875 1.992188 5.640625 2.257812 5.546875 2.59375 C 5.460938 2.9375 5.421875 3.1875 5.421875 3.34375 C 5.421875 3.5 5.523438 3.585938 5.734375 3.609375 L 5.546875 4.28125 C 4.972656 4.113281 4.6875 3.804688 4.6875 3.359375 C 4.6875 3.191406 4.726562 2.953125 4.8125 2.640625 C 4.894531 2.328125 4.9375 2.09375 4.9375 1.9375 C 4.9375 1.53125 4.78125 1.300781 4.46875 1.25 C 4.320312 1.957031 4.164062 2.554688 4 3.046875 C 3.832031 3.535156 3.539062 3.78125 3.125 3.78125 Z M 0.953125 3.1875 C 1.078125 3.1875 1.1875 3.140625 1.28125 3.046875 C 1.375 2.953125 1.421875 2.835938 1.421875 2.703125 C 1.421875 2.578125 1.375 2.46875 1.28125 2.375 C 1.1875 2.28125 1.078125 2.234375 0.953125 2.234375 C 0.816406 2.234375 0.703125 2.28125 0.609375 2.375 C 0.515625 2.46875 0.46875 2.578125 0.46875 2.703125 C 0.46875 2.835938 0.515625 2.953125 0.609375 3.046875 C 0.703125 3.140625 0.816406 3.1875 0.953125 3.1875 Z M 0.953125 3.1875 "/></g></g></g><g fill="#000000" fill-opacity="1"><g transform="translate(384.216699, 183.01604)"><g><path d="M -0.765625 2.265625 C 0.367188 1.160156 1.71875 0.609375 3.28125 0.609375 C 4.738281 0.609375 6.113281 1.144531 7.40625 2.21875 L 7.40625 3.25 C 6.113281 2.070312 4.738281 1.484375 3.28125 1.484375 C 1.90625 1.484375 0.554688 2.066406 -0.765625 3.234375 Z M -0.765625 2.265625 "/></g></g></g><g fill="#000000" fill-opacity="1"><g transform="translate(384.216699, 186.424036)"><g><path d="M 0 8.1875 L 0 7.3125 L 2.625 7.3125 C 3.050781 7.3125 3.40625 7.210938 3.6875 7.015625 C 4 6.785156 4.15625 6.488281 4.15625 6.125 C 4.15625 5.820312 4.03125 5.535156 3.78125 5.265625 C 3.539062 5.003906 3.28125 4.875 3 4.875 L 0 4.875 L 0 4 L 2.859375 4 C 3.722656 4 4.15625 3.640625 4.15625 2.921875 C 4.15625 2.597656 4.007812 2.289062 3.71875 2 C 3.4375 1.71875 3.140625 1.578125 2.828125 1.578125 L 0 1.578125 L 0 0.703125 L 3.484375 0.703125 C 4.066406 0.703125 4.492188 0.664062 4.765625 0.59375 L 4.765625 1.40625 C 4.609375 1.476562 4.425781 1.515625 4.21875 1.515625 C 4.40625 1.640625 4.5625 1.847656 4.6875 2.140625 C 4.820312 2.441406 4.890625 2.738281 4.890625 3.03125 C 4.890625 3.644531 4.628906 4.140625 4.109375 4.515625 C 4.628906 5.003906 4.890625 5.597656 4.890625 6.296875 C 4.890625 6.847656 4.679688 7.300781 4.265625 7.65625 C 3.847656 8.007812 3.304688 8.1875 2.640625 8.1875 Z M 0 8.1875 "/></g></g></g><g fill="#000000" fill-opacity="1"><g transform="translate(384.216699, 195.307173)"><g><path d="M 3.328125 2.78125 C 1.796875 2.78125 0.429688 2.226562 -0.765625 1.125 L -0.765625 0.171875 C 0.617188 1.328125 1.984375 1.90625 3.328125 1.90625 C 4.671875 1.90625 6.03125 1.320312 7.40625 0.15625 L 7.40625 1.125 C 6.21875 2.226562 4.859375 2.78125 3.328125 2.78125 Z M 3.328125 2.78125 "/></g></g></g></svg>